<svg id="преимущества_работы" data-name="преимущества работы" xmlns="http://www.w3.org/2000/svg" xmlns:xlink="http://www.w3.org/1999/xlink" viewBox="0 0 69.56 56.16"><defs><style>.cls-1{fill:url(#linear-gradient);}.cls-2{fill:url(#linear-gradient-2);}.cls-3{fill:url(#linear-gradient-3);}.cls-4{fill:url(#linear-gradient-4);}.cls-5{fill:url(#linear-gradient-5);}.cls-6{fill:url(#linear-gradient-6);}.cls-7{fill:url(#linear-gradient-7);}</style><linearGradient id="linear-gradient" x1="1076.51" y1="3219.14" x2="1146.07" y2="3219.14" gradientUnits="userSpaceOnUse"><stop offset="0" stop-color="#32113f"/><stop offset="1" stop-color="#56267d"/></linearGradient><linearGradient id="linear-gradient-2" x1="1081.69" y1="3234.67" x2="1088.17" y2="3234.67" xlink:href="#linear-gradient"/><linearGradient id="linear-gradient-3" x1="1081.69" y1="3227.12" x2="1084.41" y2="3227.12" xlink:href="#linear-gradient"/><linearGradient id="linear-gradient-4" x1="1095.4" y1="3221.91" x2="1135.12" y2="3221.91" xlink:href="#linear-gradient"/><linearGradient id="linear-gradient-5" x1="1118.02" y1="3215.39" x2="1130.3" y2="3215.39" xlink:href="#linear-gradient"/><linearGradient id="linear-gradient-6" x1="1113.9" y1="3208.23" x2="1116.76" y2="3208.23" xlink:href="#linear-gradient"/><linearGradient id="linear-gradient-7" x1="1084.1" y1="3207.56" x2="1092.25" y2="3207.56" xlink:href="#linear-gradient"/></defs><title>content</title><path class="cls-1" d="M1140.29,3198.81h-11.66l-4.94-7.16a1.35,1.35,0,0,0-1.12-.59H1100a1.36,1.36,0,0,0-1.12.59l-4.93,7.16h-3.82v-4.07a1.36,1.36,0,0,0-1.36-1.36h-6.49a1.36,1.36,0,0,0-1.36,1.36V3199a5.77,5.77,0,0,0-4.41,5.61v34.64a5.78,5.78,0,0,0,5.77,5.78h22.65a25.35,25.35,0,0,0,20.66,0h14.7a5.78,5.78,0,0,0,5.78-5.78v-34.64A5.78,5.78,0,0,0,1140.29,3198.81Zm-39.57-5h21.14l3.35,4.87a25.32,25.32,0,0,0-20.28.16h-7.68Zm-17.08,2.32h3.77v2.71h-3.77Zm-1.36,46.19a3.07,3.07,0,0,1-3.06-3.06v-34.64a3.07,3.07,0,0,1,3.06-3.06h18a25.28,25.28,0,0,0,0,40.76Zm33,2.21a22.59,22.59,0,1,1,22.59-22.59A22.62,22.62,0,0,1,1115.26,3244.5Zm28.09-5.27h0a3.06,3.06,0,0,1-3.06,3.06h-10a25.27,25.27,0,0,0,0-40.76h10a3.06,3.06,0,0,1,3.06,3.06Z" transform="translate(-1076.51 -3191.06)"/><path class="cls-2" d="M1086.81,3237.11h-2.4v-6.24a1.36,1.36,0,0,0-2.72,0v7.6a1.35,1.35,0,0,0,1.36,1.35h3.76a1.36,1.36,0,1,0,0-2.71Z" transform="translate(-1076.51 -3191.06)"/><path class="cls-3" d="M1083.05,3225.73a1.36,1.36,0,0,0-1.36,1.36v.07a1.36,1.36,0,0,0,2.72,0v-.07A1.36,1.36,0,0,0,1083.05,3225.73Z" transform="translate(-1076.51 -3191.06)"/><path class="cls-4" d="M1115.26,3202.05a19.86,19.86,0,1,0,19.86,19.86A19.88,19.88,0,0,0,1115.26,3202.05Zm0,37a17.15,17.15,0,1,1,17.15-17.15A17.17,17.17,0,0,1,1115.26,3239.06Z" transform="translate(-1076.51 -3191.06)"/><path class="cls-5" d="M1127.33,3212.94a14.93,14.93,0,0,0-7.54-5.37,1.36,1.36,0,0,0-1.71.88,1.38,1.38,0,0,0,.89,1.71,12.26,12.26,0,0,1,8.61,11.75,1.36,1.36,0,1,0,2.72,0A14.91,14.91,0,0,0,1127.33,3212.94Z" transform="translate(-1076.51 -3191.06)"/><path class="cls-6" d="M1115.41,3206.87h-.15a1.36,1.36,0,1,0,0,2.72h.14a1.36,1.36,0,0,0,0-2.72Z" transform="translate(-1076.51 -3191.06)"/><path class="cls-7" d="M1088.17,3203.49a4.08,4.08,0,1,0,4.08,4.07A4.07,4.07,0,0,0,1088.17,3203.49Zm0,5.43a1.36,1.36,0,1,1,1.36-1.36A1.36,1.36,0,0,1,1088.17,3208.92Z" transform="translate(-1076.51 -3191.06)"/></svg>