<svg id="контакты" xmlns="http://www.w3.org/2000/svg" xmlns:xlink="http://www.w3.org/1999/xlink" viewBox="0 0 123 20.65"><defs><style>.cls-1{opacity:0.4;}.cls-2{fill:url(#linear-gradient);}.cls-3{fill:url(#linear-gradient-2);}.cls-4{fill:url(#linear-gradient-3);}.cls-5{fill:url(#linear-gradient-4);}.cls-6{fill:url(#linear-gradient-5);}.cls-7{fill:url(#linear-gradient-6);}.cls-8{fill:url(#linear-gradient-7);}.cls-9{fill:url(#linear-gradient-8);}.cls-10{fill:url(#linear-gradient-9);}.cls-11{fill:url(#linear-gradient-10);}.cls-12{fill:url(#linear-gradient-11);}.cls-13{fill:url(#linear-gradient-12);}.cls-14{fill:url(#linear-gradient-13);}.cls-15{fill:url(#linear-gradient-14);}.cls-16{fill:#fff;}</style><linearGradient id="linear-gradient" x1="129.65" y1="3506.62" x2="140.27" y2="3506.62" gradientUnits="userSpaceOnUse"><stop offset="0" stop-color="#e0997b"/><stop offset="0.51" stop-color="#dd8f7b"/><stop offset="1" stop-color="#d36479"/></linearGradient><linearGradient id="linear-gradient-2" x1="138.4" y1="3510.65" x2="152.89" y2="3510.65" xlink:href="#linear-gradient"/><linearGradient id="linear-gradient-3" x1="151.7" y1="3507.16" x2="159.75" y2="3507.16" xlink:href="#linear-gradient"/><linearGradient id="linear-gradient-4" x1="160.63" y1="3510.2" x2="166.39" y2="3510.2" xlink:href="#linear-gradient"/><linearGradient id="linear-gradient-5" x1="167.14" y1="3507.46" x2="175.22" y2="3507.46" xlink:href="#linear-gradient"/><linearGradient id="linear-gradient-6" x1="179.86" y1="3507.91" x2="184.1" y2="3507.91" xlink:href="#linear-gradient"/><linearGradient id="linear-gradient-7" x1="182.9" y1="3509.88" x2="191.77" y2="3509.88" xlink:href="#linear-gradient"/><linearGradient id="linear-gradient-8" x1="197.15" y1="3509.19" x2="209.71" y2="3509.19" xlink:href="#linear-gradient"/><linearGradient id="linear-gradient-9" x1="208.62" y1="3507.16" x2="216.67" y2="3507.16" xlink:href="#linear-gradient"/><linearGradient id="linear-gradient-10" x1="216.34" y1="3509.88" x2="223.78" y2="3509.88" xlink:href="#linear-gradient"/><linearGradient id="linear-gradient-11" x1="224.04" y1="3510" x2="231.36" y2="3510" xlink:href="#linear-gradient"/><linearGradient id="linear-gradient-12" x1="232.36" y1="3507.91" x2="236.6" y2="3507.91" xlink:href="#linear-gradient"/><linearGradient id="linear-gradient-13" x1="235.4" y1="3509.88" x2="244.27" y2="3509.88" xlink:href="#linear-gradient"/><linearGradient id="linear-gradient-14" x1="245.14" y1="3510.2" x2="250.9" y2="3510.2" xlink:href="#linear-gradient"/></defs><title>cooked</title><g class="cls-1"><path class="cls-2" d="M134.39,3498.55c0,.2-.13.42-.46.66-.11.09-.77.46-1.21.76a10,10,0,0,0-1.81,1.8,7.86,7.86,0,0,0-1.14,1.9l-.09.24c-.06,0,0-.31.11-.76a6.84,6.84,0,0,1,2.06-3,9.93,9.93,0,0,1,2.12-1.42Zm-3.35,9.69a19.82,19.82,0,0,0-.28,2.56c0,1.25.21,1.36.43,1.58a.57.57,0,0,1-.46-.2,1.94,1.94,0,0,1-.39-1.47,11.66,11.66,0,0,1,.59-3.43A1.47,1.47,0,0,1,131,3508.24Zm8.66-7.09a1.67,1.67,0,0,1,.57,1.08c0,1.18-.72,2.38-2.14,3.58a8.12,8.12,0,0,1-5.41,2.06,1.78,1.78,0,0,1-1.4-.55,4.4,4.4,0,0,0,2.15.11,8.75,8.75,0,0,0,4.79-2.34,5.76,5.76,0,0,0,1.57-2.49,2.86,2.86,0,0,0,.09-.66A1.72,1.72,0,0,0,139.7,3501.15Zm-2.19,0a3.81,3.81,0,0,1-1.2.81,11.35,11.35,0,0,0-3.52,2.74,11.55,11.55,0,0,1-1.14,1.11l-.15.11.61-.9a11.63,11.63,0,0,1,2.6-2.6,8.87,8.87,0,0,1,2.39-1.16Zm.62,9.69a14.83,14.83,0,0,1-1.67,1.95c-1.2,1.25-2.29,1.92-2.84,1.92a1.44,1.44,0,0,1-.61-.08l0,0a5.22,5.22,0,0,0,1.32-.48,10.23,10.23,0,0,0,1.57-1.31,12.69,12.69,0,0,0,2.52-3A1.35,1.35,0,0,1,138.13,3510.82Z" transform="translate(-128 -3497.65)"/><path class="cls-3" d="M138.44,3512.33v0a3.32,3.32,0,0,1,.17-1.67,6.91,6.91,0,0,1,2.39-3.52c0,.16-.13.42-.44.84a9.65,9.65,0,0,0-1.71,3.19Zm4.88-2.08a9.61,9.61,0,0,1-1,2,4.31,4.31,0,0,1-2.26,1.88,1.41,1.41,0,0,1-.78,0l-.11-.05a2.4,2.4,0,0,0,.85-.26,5,5,0,0,0,1.92-1.79,10.17,10.17,0,0,0,1-1.86l.11-.31a1.3,1.3,0,0,0,.85-.15.64.64,0,0,1-.24.41Zm2.55,2.08v0a3.52,3.52,0,0,1,.18-1.67,7,7,0,0,1,2.38-3.52c0,.16-.13.42-.43.84a9.65,9.65,0,0,0-1.71,3.19Zm.68,1.77a2.38,2.38,0,0,0,.86-.26,5,5,0,0,0,1.92-1.79,13.26,13.26,0,0,0,1-1.86l.11-.29a2.39,2.39,0,0,0,1.31-.28,1.86,1.86,0,0,0,1-1.18.79.79,0,0,1,0,.54,1.79,1.79,0,0,1-1,1,4.07,4.07,0,0,1-.92.29h-.15a12,12,0,0,1-1.1,2,4.29,4.29,0,0,1-2.25,1.88,1.45,1.45,0,0,1-.79,0Z" transform="translate(-128 -3497.65)"/><path class="cls-4" d="M151.7,3514s.42,0,.57-.17a5.83,5.83,0,0,0,.5-1.43l.31-1a1.72,1.72,0,0,1,0,.88,4.83,4.83,0,0,1-.37,1.46c-.15.29-.33.44-.57.42a.79.79,0,0,1-.42-.16Zm4.79-7a6.13,6.13,0,0,1-1,1.18,7,7,0,0,1-1,.72l-.13.07a9.78,9.78,0,0,1,.92-1,11.65,11.65,0,0,1,1.15-.92Zm-1.29-1.47.24-.52c.28-.64.9-2,1.16-2.6a5.44,5.44,0,0,0,.61-1.89c0-.17,0-.28-.09-.34a1.13,1.13,0,0,1,.35.58,3.92,3.92,0,0,1-.56,1.89c-.7,1.46-1.1,2.25-1.19,2.38a1.18,1.18,0,0,1-.26.31,1.15,1.15,0,0,1-.19.15Zm.35,4.86a5.31,5.31,0,0,0,2.36-1.38,3.43,3.43,0,0,0,1.16-2.23l0-.44a1.52,1.52,0,0,1,.17.62,2.66,2.66,0,0,1-.94,2.2,4.14,4.14,0,0,1-2.32,1.32Zm3,1.86a15.46,15.46,0,0,0,1.08-2l.13-.31a2,2,0,0,1-.07.88,8.66,8.66,0,0,1-.85,1.72,4.37,4.37,0,0,1-1.66,1.71,1.29,1.29,0,0,1-.79-.09.86.86,0,0,0,.68-.19A6.46,6.46,0,0,0,158.52,3512.18Z" transform="translate(-128 -3497.65)"/><path class="cls-5" d="M164,3509.53a3.18,3.18,0,0,0,1.42-2.32,2,2,0,0,0-.26-1.05,1.32,1.32,0,0,1,.61,1.14,3.09,3.09,0,0,1-1.44,2.47,8.3,8.3,0,0,1-3.35,1.49,4.15,4.15,0,0,0-.15.57,1.93,1.93,0,0,1-.16.48,2.22,2.22,0,0,1,0-1.33A7.83,7.83,0,0,0,164,3509.53Zm-2.71-.39a7.5,7.5,0,0,1,1.16-1.71,5.66,5.66,0,0,1,.67-.59l.11-.09a2.54,2.54,0,0,1-.48.9A4.84,4.84,0,0,1,161.33,3509.14Zm.17,5a5.44,5.44,0,0,0,2.52-1.23,8.68,8.68,0,0,0,2-2.56l.3-.76a1.32,1.32,0,0,1,0,.87,5.84,5.84,0,0,1-1.9,2.67,3.87,3.87,0,0,1-2.45,1.09Z" transform="translate(-128 -3497.65)"/><path class="cls-6" d="M170,3507.24a5.75,5.75,0,0,0-1.05,1.13,15.57,15.57,0,0,0-1.35,2.65c-.22.5-.38.76-.44.76s-.07-.21.33-1.35a10.94,10.94,0,0,1,1-2.1,3.45,3.45,0,0,1,1.08-1.16,1.27,1.27,0,0,1,.74-.28A1.14,1.14,0,0,1,170,3507.24Zm-1.09,5.27a3.78,3.78,0,0,1-.75,1.24.91.91,0,0,1-.85.27c.15,0,.35-.18.64-.51a12.11,12.11,0,0,0,1-1.68A1.19,1.19,0,0,1,168.9,3512.51Zm2.58-1.82c.15-.37.48-1.18,1-2.41s1-2.18,1.24-2.9a13,13,0,0,0,1.14-3.61,1.72,1.72,0,0,0-.13-.81l0-.07a1.33,1.33,0,0,1,.48,1.2,12,12,0,0,1-1.2,3.61c-.33.73-.73,1.64-1.18,2.74s-.77,1.81-.92,2.12a8,8,0,0,1-.79,1.44A4.42,4.42,0,0,1,171.48,3510.69Zm-.15,3.22a1.3,1.3,0,0,0,.67-.29,6.07,6.07,0,0,0,1.49-1.75,12.14,12.14,0,0,0,.83-1.83l.09-.29,0,.66a4.49,4.49,0,0,1-.61,1.61,4.15,4.15,0,0,1-1.73,1.86,1.72,1.72,0,0,1-.67,0Z" transform="translate(-128 -3497.65)"/><path class="cls-7" d="M182.51,3506.23a5.68,5.68,0,0,1-.75,2c-.54,1.09-1,2.1-1.37,3a2.18,2.18,0,0,1-.53.76v0a4.11,4.11,0,0,1,.11-.53,15.47,15.47,0,0,1,1.4-3.3,7.27,7.27,0,0,0,.88-2.08,1.62,1.62,0,0,0-.07-.44A.62.62,0,0,1,182.51,3506.23Zm-2.41,7.68a1.32,1.32,0,0,0,.68-.29,6.23,6.23,0,0,0,1.49-1.75,12.14,12.14,0,0,0,.83-1.83l.09-.29a1.19,1.19,0,0,1,0,.59,4.55,4.55,0,0,1-.61,1.68,4.1,4.1,0,0,1-1.73,1.86,1.77,1.77,0,0,1-.68,0Zm1.6-10a1.33,1.33,0,0,0,1.05-.24,2.87,2.87,0,0,0,1.11-1.36l.14-.43a1,1,0,0,1,0,.76,2.19,2.19,0,0,1-1,1.29,1.32,1.32,0,0,1-1.16.09Z" transform="translate(-128 -3497.65)"/><path class="cls-8" d="M183,3513.86a.36.36,0,0,0,.33,0,2.93,2.93,0,0,0,.56-.8,24.72,24.72,0,0,1,1.73-2.28l.48-.57v.09a3.63,3.63,0,0,1-.24.7c-.15.28-.65.83-1,1.33a13.11,13.11,0,0,0-.86,1.36.62.62,0,0,1-.56.41.7.7,0,0,1-.49-.26Zm3.61-7.3a.56.56,0,0,0-.37-.51,1,1,0,0,1,0,.55,13.31,13.31,0,0,1-.86,1.88l-.24.5.11-.08a6.62,6.62,0,0,0,.64-.79A3.47,3.47,0,0,0,186.56,3506.56Zm3,2.53c.13-.28.33-.67.59-1.18s.44-.87.55-1.11a1.39,1.39,0,0,0,.15-.53.59.59,0,0,0-.35-.63,1.23,1.23,0,0,1,.07.44,7,7,0,0,1-.79,1.7c-.24.48-.46.9-.61,1.23a9.21,9.21,0,0,0-.92,3l.09-.08a4.24,4.24,0,0,0,.35-.68C189,3510.45,189.27,3509.73,189.55,3509.09Zm-.46,4.75a5.62,5.62,0,0,0,1.71-2,8.31,8.31,0,0,0,.92-2.12l0,0a1.8,1.8,0,0,1,0,.55,4.55,4.55,0,0,1-.61,1.68c-.52,1-1.33,2-2,2.08a2.64,2.64,0,0,1-.74,0A1.11,1.11,0,0,0,189.09,3513.84Z" transform="translate(-128 -3497.65)"/><path class="cls-9" d="M201.85,3501.15c-.15.11-.65.55-.83.73s-.63.65-1.07,1.18a10.91,10.91,0,0,0-2.43,5.38,8.92,8.92,0,0,0-.11,1.68,2.18,2.18,0,0,1-.26-1.29,9.2,9.2,0,0,1,.57-2.75,10.44,10.44,0,0,1,2-3.33,6.51,6.51,0,0,1,2.71-2.19A2.86,2.86,0,0,1,201.85,3501.15Zm3.52,0a27.12,27.12,0,0,1-1.42,4.79l-1.6,4.66a3.06,3.06,0,0,1-.48,1l-.06.09a2.24,2.24,0,0,1,.09-.65c.13-.64.7-2.34,1.68-5.17a24.83,24.83,0,0,0,1.44-4.87,1.27,1.27,0,0,0-.43-.86A1,1,0,0,1,205.37,3501.13Zm-1.2,10.44a3.75,3.75,0,0,1-.33,1.33,2,2,0,0,1-.92,1.09,1,1,0,0,1-.76.07,2.21,2.21,0,0,0,1.11-.92C203.62,3512.57,203.93,3512.05,204.17,3511.57Zm3,6a7.69,7.69,0,0,1-.53-2.88,18.49,18.49,0,0,1,1-5.74c.28-.89.68-2,1.14-3.17s.7-1.9.76-2.14a2.26,2.26,0,0,0,.07-1.29,1.08,1.08,0,0,0-.46-.61,1.17,1.17,0,0,1,.17.46,3.33,3.33,0,0,1-.24,1.62c-.06.21-1.07,2.73-1.79,4.94a19.79,19.79,0,0,0-1,5.9,6.38,6.38,0,0,0,.72,3.13.49.49,0,0,1,0,.48C207.21,3518.3,207.34,3518.06,207.19,3517.6Z" transform="translate(-128 -3497.65)"/><path class="cls-10" d="M208.62,3514s.41,0,.57-.17a5.83,5.83,0,0,0,.5-1.43l.31-1a1.72,1.72,0,0,1,0,.88,4.83,4.83,0,0,1-.37,1.46c-.16.29-.33.44-.57.42a.76.76,0,0,1-.42-.16Zm4.79-7a6.13,6.13,0,0,1-1,1.18,7.64,7.64,0,0,1-1,.72l-.14.07a12.84,12.84,0,0,1,.92-1,12.63,12.63,0,0,1,1.16-.92Zm-1.29-1.47.24-.52c.28-.64.89-2,1.16-2.6a5.44,5.44,0,0,0,.61-1.89c0-.17,0-.28-.09-.34a1.13,1.13,0,0,1,.35.58,3.86,3.86,0,0,1-.57,1.89c-.7,1.46-1.09,2.25-1.18,2.38a1.41,1.41,0,0,1-.26.31.84.84,0,0,1-.2.15Zm.35,4.86a5.31,5.31,0,0,0,2.36-1.38,3.48,3.48,0,0,0,1.16-2.23l0-.44a1.69,1.69,0,0,1,.17.62,2.66,2.66,0,0,1-.94,2.2,4.14,4.14,0,0,1-2.32,1.32Zm3,1.86a14.08,14.08,0,0,0,1.07-2l.13-.31a1.87,1.87,0,0,1-.06.88,8.66,8.66,0,0,1-.85,1.72,4.45,4.45,0,0,1-1.67,1.71,1.26,1.26,0,0,1-.78-.09.84.84,0,0,0,.67-.19A6.64,6.64,0,0,0,215.44,3512.18Z" transform="translate(-128 -3497.65)"/><path class="cls-11" d="M216.39,3513.82a.5.5,0,0,0,.21-.22s.29-.74.53-1.36a6.6,6.6,0,0,1,.9-1.68l1.4-1.53-.05.15a2.5,2.5,0,0,1-.28.7c-.18.26-.7.81-.81,1a9.51,9.51,0,0,0-.83,1.6c-.22.52-.48,1.16-.51,1.22-.11.25-.3.29-.61.18Zm3-7.44a2.81,2.81,0,0,1-.28.77l.08-.07a1.9,1.9,0,0,0,.46-.48.46.46,0,0,0-.35-.74A.63.63,0,0,1,219.36,3506.38Zm2.27,3.39a15.5,15.5,0,0,1,1.21-2.45c.54-.85.7-1,.72-1.4.24.11.28.35.15.68s-.54.79-.74,1.2a18.36,18.36,0,0,0-1.07,2.26c-.13.37-.29.54-.46.54A2.6,2.6,0,0,1,221.63,3509.77Z" transform="translate(-128 -3497.65)"/><path class="cls-12" d="M226.89,3507.24a5.75,5.75,0,0,0-1,1.13,16.17,16.17,0,0,0-1.36,2.65c-.22.5-.37.76-.44.76a3.51,3.51,0,0,1,.33-1.35,11.71,11.71,0,0,1,1-2.1,3.32,3.32,0,0,1,1.07-1.16,1.32,1.32,0,0,1,.75-.28A1.49,1.49,0,0,1,226.89,3507.24Zm-1.1,5.27a3.59,3.59,0,0,1-.74,1.24.91.91,0,0,1-.85.27c.15,0,.35-.18.63-.51a11.41,11.41,0,0,0,1-1.68A1.3,1.3,0,0,1,225.79,3512.51Zm4.71-5.91a5.68,5.68,0,0,1-.75,2l-1.18,2.47c-.28.64-.46.94-.52.94a1.33,1.33,0,0,1,.11-.66,15.42,15.42,0,0,1,1.2-2.84,8.14,8.14,0,0,0,.87-2.08,1.49,1.49,0,0,0-.06-.43C230.39,3506.05,230.5,3506.27,230.5,3506.6Zm-1.49,7.28a4.1,4.1,0,0,0,1.73-1.86,4.55,4.55,0,0,0,.61-1.68,2,2,0,0,0,0-.55l0,0a8.68,8.68,0,0,1-.92,2.12,6.23,6.23,0,0,1-1.49,1.75,1.32,1.32,0,0,1-.68.29A1.58,1.58,0,0,0,229,3513.88Z" transform="translate(-128 -3497.65)"/><path class="cls-13" d="M235,3506.23a5.91,5.91,0,0,1-.75,2c-.55,1.09-1,2.1-1.38,3a2.09,2.09,0,0,1-.52.76v0a2.85,2.85,0,0,1,.11-.53,15.47,15.47,0,0,1,1.4-3.3,7.11,7.11,0,0,0,.87-2.08,1.61,1.61,0,0,0-.06-.44A.62.62,0,0,1,235,3506.23Zm-2.41,7.68a1.32,1.32,0,0,0,.68-.29,6,6,0,0,0,1.48-1.75,11.42,11.42,0,0,0,.84-1.83l.08-.29a1.08,1.08,0,0,1,0,.59,4.6,4.6,0,0,1-.62,1.68,4,4,0,0,1-1.72,1.86,1.78,1.78,0,0,1-.68,0Zm1.6-10a1.33,1.33,0,0,0,1.05-.24,2.93,2.93,0,0,0,1.11-1.36l.13-.43a.88.88,0,0,1,0,.76,2.2,2.2,0,0,1-1,1.29,1.32,1.32,0,0,1-1.16.09Z" transform="translate(-128 -3497.65)"/><path class="cls-14" d="M235.45,3513.86a.34.34,0,0,0,.32,0,2.62,2.62,0,0,0,.57-.8,24.72,24.72,0,0,1,1.73-2.28l.48-.57v.09a3.63,3.63,0,0,1-.24.7c-.15.28-.66.83-1,1.33a13.06,13.06,0,0,0-.85,1.36.64.64,0,0,1-.57.41.7.7,0,0,1-.48-.26Zm3.6-7.3a.56.56,0,0,0-.37-.51.86.86,0,0,1,0,.55,12.59,12.59,0,0,1-.85,1.88l-.24.5.11-.08a6.82,6.82,0,0,0,.63-.79A3.47,3.47,0,0,0,239.05,3506.56Zm3,2.53c.13-.28.33-.67.59-1.18s.44-.87.55-1.11a1.39,1.39,0,0,0,.15-.53.59.59,0,0,0-.35-.63,1.23,1.23,0,0,1,.07.44,7.48,7.48,0,0,1-.79,1.7c-.24.48-.46.9-.61,1.23a9,9,0,0,0-.92,3l.09-.08a5.25,5.25,0,0,0,.35-.68C241.46,3510.45,241.77,3509.73,242.05,3509.09Zm-.46,4.75a5.62,5.62,0,0,0,1.71-2,8.68,8.68,0,0,0,.92-2.12l0,0a1.8,1.8,0,0,1,0,.55,4.55,4.55,0,0,1-.61,1.68c-.53,1-1.34,2-2,2.08a2.64,2.64,0,0,1-.74,0A1.11,1.11,0,0,0,241.59,3513.84Z" transform="translate(-128 -3497.65)"/><path class="cls-15" d="M248.55,3509.53a3.18,3.18,0,0,0,1.42-2.32,2,2,0,0,0-.26-1.05,1.3,1.3,0,0,1,.61,1.14,3.09,3.09,0,0,1-1.44,2.47,8.24,8.24,0,0,1-3.35,1.49c0,.11-.08.28-.15.57a2.77,2.77,0,0,1-.15.48,2.2,2.2,0,0,1,0-1.33A7.83,7.83,0,0,0,248.55,3509.53Zm-2.71-.39a7.5,7.5,0,0,1,1.16-1.71,5,5,0,0,1,.68-.59l.11-.09a2.81,2.81,0,0,1-.49.9A4.73,4.73,0,0,1,245.84,3509.14Zm.17,5a5.44,5.44,0,0,0,2.52-1.23,8.52,8.52,0,0,0,2-2.56l.31-.76a1.4,1.4,0,0,1,0,.87,5.76,5.76,0,0,1-1.9,2.67,3.87,3.87,0,0,1-2.45,1.09Z" transform="translate(-128 -3497.65)"/></g><path class="cls-16" d="M133.34,3497.87c.46.16.7.29.7.4a13.62,13.62,0,0,0-2.23,1.35,6.11,6.11,0,0,0-2.59,4.42,2.21,2.21,0,0,0,.22,1,11.52,11.52,0,0,1,3.61-4.49,6.1,6.1,0,0,1,3.11-1.2,5.32,5.32,0,0,1,2.51,1.29,1.79,1.79,0,0,1,.75,1.34,3.54,3.54,0,0,1-1.07,2.29,9,9,0,0,1-2.78,2,7.71,7.71,0,0,1-3.35.84,4.44,4.44,0,0,1-1.6-.29,9.77,9.77,0,0,0-.74,3.63,3.38,3.38,0,0,0,.33,1.84c.2.28.65.44,1.38.44a4.87,4.87,0,0,0,1.94-.48,11.7,11.7,0,0,0,1.86-1c.51-.35,1.25-.88,2.21-1.58a.5.5,0,0,1,.26-.1c.07,0,.11,0,.11.08s0,.11-.11.22a20.66,20.66,0,0,1-2.93,3.11,4.18,4.18,0,0,1-2.34,1.22,3.9,3.9,0,0,1-1.77-.63,9.36,9.36,0,0,1-1.84-1.4,2.63,2.63,0,0,1-.74-1.93,11.49,11.49,0,0,1,.88-4.41,3,3,0,0,1-1.12-2.19,6.69,6.69,0,0,1,2.52-5.16,2.77,2.77,0,0,1,1.74-.84A3.78,3.78,0,0,1,133.34,3497.87Zm-2.41,8.29a3,3,0,0,0,.68.07c2.49.11,6.3-2.54,6.19-4.72,0-.44-.09-.64-.53-.64a5,5,0,0,0-2.69,1.07,11.58,11.58,0,0,0-2.88,2.95C131.41,3505.31,131.17,3505.73,130.93,3506.16Z" transform="translate(-128 -3497.65)"/><path class="cls-16" d="M149.4,3507.41c.45-.31.72-.39.83-.24s.37.46.59.7a2.09,2.09,0,0,0,.83.59,1.62,1.62,0,0,0,1.31-.26c.09-.07.13,0,.11.08a.42.42,0,0,1-.09.27,2.32,2.32,0,0,1-2.29.89,7.71,7.71,0,0,1-1.27,2.43c-.94,1.27-1.82,1.91-2.67,1.91a2.2,2.2,0,0,1-1-.42,3.21,3.21,0,0,1-.94-.85,3.59,3.59,0,0,1-.06-2.76,7.14,7.14,0,0,1,.21-.72,2.2,2.2,0,0,1-1.68.41,7.51,7.51,0,0,1-1.27,2.43c-.94,1.27-1.81,1.91-2.67,1.91a2.2,2.2,0,0,1-1-.42,3.34,3.34,0,0,1-.94-.85,3.59,3.59,0,0,1-.06-2.76,8.64,8.64,0,0,1,1.95-3.7,3.65,3.65,0,0,1,2.69-1.29,1.9,1.9,0,0,1,1.4.77c.35.39.5.68.45.83a.09.09,0,0,1-.13,0,2.65,2.65,0,0,0-2.27.33,5.82,5.82,0,0,0-2.08,2.34,6.2,6.2,0,0,0-.79,2.71,1.33,1.33,0,0,0,.18.84c.26.26,1.09-.16,2-1.62a6.33,6.33,0,0,0,1-2.43,1.66,1.66,0,0,0-.08-.68c-.16-.28,1.5-1.09,1.68-.79s.48,1,1,1.08,1.29-.6,1.82-1.38a4.4,4.4,0,0,1,.55-.75,3.84,3.84,0,0,1,2.31-1.68,1.51,1.51,0,0,1,1,.59c.29.33.55.74.37.81a6.92,6.92,0,0,0-3.58,3.3,6.07,6.07,0,0,0-.79,2.71,1.43,1.43,0,0,0,.17.84c.27.26,1.1-.16,2-1.62a4.87,4.87,0,0,0,.65-1.45,3.82,3.82,0,0,0,.11-.76,1.53,1.53,0,0,0-.09-.68C148.72,3508,148.94,3507.72,149.4,3507.41Z" transform="translate(-128 -3497.65)"/><path class="cls-16" d="M156.38,3499.62a1,1,0,0,1,.5.81,2.72,2.72,0,0,1-.28.94c-.2.46-.55,1.32-1.09,2.56s-1.1,2.58-1.64,3.92a16.92,16.92,0,0,1,1.83-2.21c.75-.77,1.23-1.16,1.47-1.16s.52.22.89.66a2.68,2.68,0,0,1,.64,1.09,2.91,2.91,0,0,1-1,2.36,6.37,6.37,0,0,1-2.6,1.55,5.93,5.93,0,0,0,.29,1.69c.15.55.3.83.43.83a5.75,5.75,0,0,0,2.13-1.55,12,12,0,0,0,1.37-1.69c0-.08.22,0,.2.07a9.55,9.55,0,0,1-1.27,2.4c-.85,1.25-1.51,1.86-2,1.86a4.19,4.19,0,0,1-1.81-.61,4.65,4.65,0,0,1-1.21-3.08c-.19.41-.54,1.38-1,2.86-.2.4-.11.64-.44.64a1.2,1.2,0,0,1-1.14-.55,67.2,67.2,0,0,1,2.21-7.09,61.19,61.19,0,0,1,2.58-6.67A1.68,1.68,0,0,1,156.38,3499.62Zm-2.89,10a7.06,7.06,0,0,0,.9-.35,5.79,5.79,0,0,0,2.12-1.8c.5-.72.7-1.13.59-1.24s-1.57,1-2.53,1.92A6.1,6.1,0,0,0,153.49,3509.6Z" transform="translate(-128 -3497.65)"/><path class="cls-16" d="M160.8,3510.71a4.18,4.18,0,0,0-.15,1.05c0,.46.06.72.24.81.52.24,2-.33,3.43-1.4a13.75,13.75,0,0,0,2-1.73c0-.06.16,0,.16,0a7.72,7.72,0,0,1-1.51,2.34c-1.4,1.51-2.71,2.1-3.5,2a3.2,3.2,0,0,1-2-1.34,4.15,4.15,0,0,1-.15-2.86,8.08,8.08,0,0,1,1.84-3.74,2.47,2.47,0,0,1,1.9-1.07,2.61,2.61,0,0,1,1.29.59,3.44,3.44,0,0,1,1,1c.35.59,0,1.73-.87,2.61A7.59,7.59,0,0,1,160.8,3510.71Zm.24-.81a5.79,5.79,0,0,0,.92-.52,5.21,5.21,0,0,0,1.79-1.86c.4-.79.46-1.18.22-1.18a3.16,3.16,0,0,0-1.66,1.22A8.93,8.93,0,0,0,161,3509.9Z" transform="translate(-128 -3497.65)"/><path class="cls-16" d="M169.73,3505a2.87,2.87,0,0,1,1.73,1,40.48,40.48,0,0,0,2-5.64c0-.09.39,0,.83.15a1.11,1.11,0,0,1,.61,1.25,5.87,5.87,0,0,1-.35,1.36,19.44,19.44,0,0,1-.72,1.86c-.39.89-.44,1-.88,2-.19.46-.35.81-.43,1a22.88,22.88,0,0,0-1.34,3.47c-.11.62-.11.94.05,1a5.29,5.29,0,0,0,1.92-1.45,8.2,8.2,0,0,0,1.27-1.5s.09,0,.11.06a8.3,8.3,0,0,1-.94,2,8.86,8.86,0,0,1-1,1.28,1.64,1.64,0,0,1-1.07.66,2.4,2.4,0,0,1-1.46-.74,1.65,1.65,0,0,1-.48-1.4,8.23,8.23,0,0,1,.13-1q-1.68,3.15-2.1,3.15a2.14,2.14,0,0,1-1.62-.9,3.77,3.77,0,0,1-.11-2.6,8.87,8.87,0,0,1,1.62-3.69A2.86,2.86,0,0,1,169.73,3505Zm1.44,1.7a1.38,1.38,0,0,0-.63-.19c-.59,0-1.25.52-2,1.55a8.36,8.36,0,0,0-1.38,3.41c-.11.61-.06.92.09.92a12.39,12.39,0,0,0,2.25-2.74,15.14,15.14,0,0,0,1.27-2.12C170.91,3507.34,171,3507.06,171.17,3506.73Z" transform="translate(-128 -3497.65)"/><path class="cls-16" d="M179.51,3506.64l.77-1.57a1.53,1.53,0,0,1,1.2.33c.44.37.48.52.31,1-.13.37-.66,1.33-1.27,2.6a8.81,8.81,0,0,0-1.05,3.09c0,.26,0,.39.15.39a6.06,6.06,0,0,0,2-1.55,11.34,11.34,0,0,0,1.16-1.4c.07-.07.13,0,.11.06a6.42,6.42,0,0,1-.94,2c-.87,1.28-1.55,1.94-2.05,1.94a2.12,2.12,0,0,1-1.14-.48,1.65,1.65,0,0,1-.77-1.46A16.63,16.63,0,0,1,179.51,3506.64Zm2-3.93a4.47,4.47,0,0,1,.15-1.66.8.8,0,0,1,.79-.24c.68.06,1.25.45,1.27.87a2.53,2.53,0,0,1-1.09,1.68,1.27,1.27,0,0,1-1.14.24C181.31,3503.56,181.48,3503.08,181.48,3502.71Z" transform="translate(-128 -3497.65)"/><path class="cls-16" d="M184.3,3505.46a1.5,1.5,0,0,1,1.29.29.89.89,0,0,1,.4.63,4.2,4.2,0,0,1-.48,1.29,8.25,8.25,0,0,0-.46,1l-1.18,2.78c1.64-2.26,2.73-3.7,3.23-4.31s1.19-1.47,1.47-1.82c.15-.17.24-.28.28-.31a1.93,1.93,0,0,1,.86.18.94.94,0,0,1,.59.81,5.91,5.91,0,0,1-.79,1.64c-.26.48-.5,1-.72,1.46a7.78,7.78,0,0,0-.83,3c0,.37.06.54.19.54a5.73,5.73,0,0,0,2-1.46c.77-.83,1.18-1.42,1.31-1.55s.14,0,.11.06a7.41,7.41,0,0,1-1.16,2.36c-.76,1.14-1.44,1.71-2,1.71a2.33,2.33,0,0,1-1.09-.44,1.74,1.74,0,0,1-.86-1.55,8.5,8.5,0,0,1,.44-2.23c.15-.46.29-.88.44-1.25-.26.26-.83,1-1.71,2.08a32.65,32.65,0,0,0-2.34,3.15c-.09.19-.46.06-1.09-.37a.44.44,0,0,1-.18-.53c.42-1.46.9-3.08,1.49-4.83C183.8,3506.73,184.09,3506,184.3,3505.46Z" transform="translate(-128 -3497.65)"/><path class="cls-16" d="M195.38,3509.55a1.86,1.86,0,0,1-.51-1.4,8.27,8.27,0,0,1,1.21-4,13.82,13.82,0,0,1,3.34-3.94,5.41,5.41,0,0,1,2.72-1.35,3.73,3.73,0,0,1,1.44.76c.7.53,1,.94,1.07,1.25a11.44,11.44,0,0,1-.76,2.82c-.25.72-.84,2.32-1.12,3.22-1.14,3.39-1.71,5.31-1.29,5.33s1.07-.72,2.06-2.25a43.58,43.58,0,0,0,3.41-6.85,12.73,12.73,0,0,0,.7-2,2.25,2.25,0,0,1,1.33.94,2.32,2.32,0,0,1-.15,1.43c-.09.24-1,2.4-1.8,4.9a20.59,20.59,0,0,0-1.18,6.06,7.26,7.26,0,0,0,.9,3.56c-.11.2-.33.09-.68-.28a6.09,6.09,0,0,1-1.75-4.12,19.91,19.91,0,0,1,1.07-5.46,36.47,36.47,0,0,1-2,4.09,3.58,3.58,0,0,1-1,1.24.84.84,0,0,1-.66.24,2.28,2.28,0,0,1-1.07-.67,3.4,3.4,0,0,1-.87-1,4.41,4.41,0,0,1,.19-2q.33-1.57.81-3.15c.68-2.19,1.32-4.11,1.58-4.88.11-.37.2-.66.24-.83.15-.66.17-1,0-1.11s-1.38.32-3.28,2.38a9.45,9.45,0,0,0-2,3.28,9,9,0,0,0-.66,3,5.75,5.75,0,0,0,.24,1.31A2.31,2.31,0,0,1,195.38,3509.55Z" transform="translate(-128 -3497.65)"/><path class="cls-16" d="M213.3,3499.62a1,1,0,0,1,.5.81,3,3,0,0,1-.28.94c-.2.46-.55,1.32-1.1,2.56s-1.09,2.58-1.64,3.92a17.05,17.05,0,0,1,1.84-2.21c.74-.77,1.22-1.16,1.47-1.16s.52.22.89.66a2.8,2.8,0,0,1,.64,1.09,2.91,2.91,0,0,1-1,2.36,6.44,6.44,0,0,1-2.6,1.55,6.29,6.29,0,0,0,.28,1.69c.16.55.31.83.44.83a5.66,5.66,0,0,0,2.12-1.55,11.59,11.59,0,0,0,1.38-1.69c0-.08.22,0,.2.07a9.55,9.55,0,0,1-1.27,2.4c-.85,1.25-1.51,1.86-2,1.86a4.19,4.19,0,0,1-1.81-.61,4.65,4.65,0,0,1-1.21-3.08c-.19.41-.54,1.38-1.05,2.86-.19.4-.11.64-.43.64a1.2,1.2,0,0,1-1.14-.55,67.2,67.2,0,0,1,2.21-7.09,58.92,58.92,0,0,1,2.58-6.67A1.68,1.68,0,0,1,213.3,3499.62Zm-2.89,10a7.06,7.06,0,0,0,.9-.35,6,6,0,0,0,2.12-1.8c.5-.72.7-1.13.59-1.24s-1.57,1-2.54,1.92A5.8,5.8,0,0,0,210.41,3509.6Z" transform="translate(-128 -3497.65)"/><path class="cls-16" d="M220,3509.9q-.22-.26,0-1.11a4.59,4.59,0,0,1,.46-1.16,26.84,26.84,0,0,0-2.56,2.69,7.94,7.94,0,0,0-1.14,2.3,6.31,6.31,0,0,1-.35.85c-.08.19-.46.06-1.09-.37a.42.42,0,0,1-.17-.53c.41-1.46.89-3.08,1.48-4.83.46-1.34.75-2.15.88-2.43a1.49,1.49,0,0,1,1.29.28.91.91,0,0,1,.39.64,5.81,5.81,0,0,1-.39,1.14l-.57,1.29-.42,1c.53-.72,1.23-1.62,2.12-2.69a8.23,8.23,0,0,1,1.78-1.69,1.53,1.53,0,0,1,1.16,0c.32.2.5.39.5.64s-.85,1.42-1.47,2.71a8,8,0,0,0-.65,1.86A2,2,0,0,1,220,3509.9Z" transform="translate(-128 -3497.65)"/><path class="cls-16" d="M226.65,3505a2.74,2.74,0,0,1,1.75,1l.26-.7c0-.09.46-.05.9.15s.67.5.67.87a3.44,3.44,0,0,1-.28.84c-.09.19-.37.76-.55,1.11a17.94,17.94,0,0,0-1.31,3.19c-.11.62-.11.94,0,1a5.28,5.28,0,0,0,1.93-1.45,8.64,8.64,0,0,0,1.27-1.5s.08,0,.11.06a8.3,8.3,0,0,1-.94,2,9.63,9.63,0,0,1-1,1.28,1.64,1.64,0,0,1-1.07.66,2.37,2.37,0,0,1-1.46-.74,1.69,1.69,0,0,1-.49-1.4c0-.31.07-.64.14-1-1.16,2.17-1.86,3.24-2.15,3.24a2.14,2.14,0,0,1-1.62-.9,3.84,3.84,0,0,1-.11-2.6,9.19,9.19,0,0,1,1.67-3.78A2.86,2.86,0,0,1,226.65,3505Zm1.46,1.7a1.53,1.53,0,0,0-.65-.19c-.59,0-1.25.52-2,1.55a8.58,8.58,0,0,0-1.42,3.5c-.11.61-.07.92.08.92a13.67,13.67,0,0,0,2.28-2.8,17.62,17.62,0,0,0,1.29-2.15Z" transform="translate(-128 -3497.65)"/><path class="cls-16" d="M232,3506.64l.76-1.57a1.55,1.55,0,0,1,1.21.33c.43.37.48.52.3,1-.13.37-.65,1.33-1.26,2.6a8.81,8.81,0,0,0-1.05,3.09c0,.26,0,.39.15.39a6.27,6.27,0,0,0,2-1.55,11.34,11.34,0,0,0,1.16-1.4c.07-.07.13,0,.11.06a6.65,6.65,0,0,1-.94,2c-.88,1.28-1.55,1.94-2.06,1.94a2.1,2.1,0,0,1-1.13-.48,1.65,1.65,0,0,1-.77-1.46A16.33,16.33,0,0,1,232,3506.64Zm2-3.93a4.47,4.47,0,0,1,.15-1.66.8.8,0,0,1,.79-.24c.68.06,1.24.45,1.27.87a2.55,2.55,0,0,1-1.1,1.68,1.25,1.25,0,0,1-1.13.24C233.8,3503.56,234,3503.08,234,3502.71Z" transform="translate(-128 -3497.65)"/><path class="cls-16" d="M236.8,3505.46a1.51,1.51,0,0,1,1.29.29.93.93,0,0,1,.4.63,4.36,4.36,0,0,1-.49,1.29,10.18,10.18,0,0,0-.46,1l-1.18,2.78c1.64-2.26,2.74-3.7,3.24-4.31s1.18-1.47,1.47-1.82c.15-.17.24-.28.28-.31a1.85,1.85,0,0,1,.85.18.93.93,0,0,1,.59.81,5.74,5.74,0,0,1-.78,1.64,14.11,14.11,0,0,0-.72,1.46,7.83,7.83,0,0,0-.84,3c0,.37.07.54.2.54a5.93,5.93,0,0,0,2-1.46c.77-.83,1.18-1.42,1.31-1.55s.13,0,.11.06a7.41,7.41,0,0,1-1.16,2.36c-.76,1.14-1.44,1.71-2,1.71a2.36,2.36,0,0,1-1.1-.44,1.75,1.75,0,0,1-.85-1.55,8.11,8.11,0,0,1,.44-2.23c.15-.46.28-.88.44-1.25a26.78,26.78,0,0,0-1.71,2.08,30.82,30.82,0,0,0-2.34,3.15c-.09.19-.46.06-1.09-.37a.44.44,0,0,1-.18-.53c.42-1.46.9-3.08,1.49-4.83C236.3,3506.73,236.58,3506,236.8,3505.46Z" transform="translate(-128 -3497.65)"/><path class="cls-16" d="M245.31,3510.71a4.18,4.18,0,0,0-.15,1.05c0,.46.07.72.24.81.53.24,1.95-.33,3.44-1.4a14.3,14.3,0,0,0,2-1.73c0-.06.15,0,.15,0a7.53,7.53,0,0,1-1.51,2.34c-1.4,1.51-2.71,2.1-3.5,2a3.2,3.2,0,0,1-2-1.34,4.15,4.15,0,0,1-.15-2.86,8.08,8.08,0,0,1,1.84-3.74,2.48,2.48,0,0,1,1.9-1.07,2.61,2.61,0,0,1,1.29.59,3.64,3.64,0,0,1,1,1c.35.59,0,1.73-.88,2.61A7.55,7.55,0,0,1,245.31,3510.71Zm.24-.81a6.38,6.38,0,0,0,2.72-2.38c.39-.79.46-1.18.22-1.18a3.17,3.17,0,0,0-1.67,1.22A8.93,8.93,0,0,0,245.55,3509.9Z" transform="translate(-128 -3497.65)"/></svg>