<svg id="преимущества_работы" data-name="преимущества работы" xmlns="http://www.w3.org/2000/svg" xmlns:xlink="http://www.w3.org/1999/xlink" viewBox="0 0 81.88 69.57"><defs><style>.cls-1{fill:url(#linear-gradient);}.cls-2{fill:url(#linear-gradient-2);}.cls-3{fill:url(#linear-gradient-3);}.cls-4{fill:url(#linear-gradient-4);}.cls-5{fill:url(#linear-gradient-5);}.cls-6{fill:url(#linear-gradient-6);}.cls-7{fill:url(#linear-gradient-7);}.cls-8{fill:url(#linear-gradient-8);}.cls-9{fill:url(#linear-gradient-9);}</style><linearGradient id="linear-gradient" x1="545.05" y1="3027.6" x2="626.93" y2="3027.6" gradientUnits="userSpaceOnUse"><stop offset="0" stop-color="#32113f"/><stop offset="1" stop-color="#56267d"/></linearGradient><linearGradient id="linear-gradient-2" x1="565.57" y1="3054.26" x2="570.86" y2="3054.26" xlink:href="#linear-gradient"/><linearGradient id="linear-gradient-3" x1="610.69" y1="3054.26" x2="615.99" y2="3054.26" xlink:href="#linear-gradient"/><linearGradient id="linear-gradient-4" x1="577.87" y1="3047.43" x2="599.58" y2="3047.43" xlink:href="#linear-gradient"/><linearGradient id="linear-gradient-5" x1="547.79" y1="3041.96" x2="566.76" y2="3041.96" xlink:href="#linear-gradient"/><linearGradient id="linear-gradient-6" x1="558.73" y1="3028.28" x2="566.76" y2="3028.28" xlink:href="#linear-gradient"/><linearGradient id="linear-gradient-7" x1="568.3" y1="3028.28" x2="577.7" y2="3028.28" xlink:href="#linear-gradient"/><linearGradient id="linear-gradient-8" x1="579.24" y1="3028.28" x2="587.27" y2="3028.28" xlink:href="#linear-gradient"/><linearGradient id="linear-gradient-9" x1="588.81" y1="3028.28" x2="596.85" y2="3028.28" xlink:href="#linear-gradient"/></defs><title>delivery</title><g id="доставка"><path class="cls-1" d="M621.2,3032.55l-2.12-8.48a1.3,1.3,0,0,0,1-1.26v-1.37a5.4,5.4,0,0,0-5.39-5.38h-9.66v-2.82a2.65,2.65,0,0,0-2.65-2.65h-18l10.92-4.37a1.28,1.28,0,0,0-1-2.38l-8.94,3.58c2.72-1.75,5.42-3.67,6.44-5a6,6,0,0,0-9.49-7.24h0c-1.46,1.92-3.39,7.29-4.63,11.08-1.25-3.79-3.17-9.16-4.63-11.08h0a6,6,0,0,0-9.5,7.24c1,1.35,3.72,3.27,6.45,5l-8.94-3.58a1.29,1.29,0,0,0-1.67.72,1.28,1.28,0,0,0,.72,1.66l10.91,4.37h-18a2.65,2.65,0,0,0-2.65,2.65v23.25a1.29,1.29,0,0,0,2.57,0v-23.25a.09.09,0,0,1,.08-.09H602.4a.09.09,0,0,1,.09.09v23.25a1.28,1.28,0,1,0,2.56,0V3035h15.13a4.23,4.23,0,0,1,4,2.91h-4a1.28,1.28,0,0,0-1.28,1.28V3042a4,4,0,0,0,4,4h1.45v5.65H621a8.12,8.12,0,0,0-15.35,0h-.62V3042a1.28,1.28,0,1,0-2.56,0v9.66h-26.6a8.12,8.12,0,0,0-15.35,0h-7.37a.09.09,0,0,1-.08-.09v-2.82h5.55a1.28,1.28,0,1,0,0-2.56H546.33a1.28,1.28,0,1,0,0,2.56h4.19v2.82a2.65,2.65,0,0,0,2.65,2.65h6.93v.09a8.12,8.12,0,0,0,16.23,0v-.09h28.9s0,.06,0,.09a8.12,8.12,0,0,0,16.24,0v-.09h4.19a1.28,1.28,0,0,0,1.28-1.28v-13.68A6.76,6.76,0,0,0,621.2,3032.55Zm-36.74-35.83h0a3.4,3.4,0,1,1,5.41,4.13c-.44.58-1.94,2-7,5.17-1,.63-2,1.23-2.88,1.74C581.27,3003.82,583.22,2998.34,584.46,2996.72Zm-18.76,4.13a3.41,3.41,0,0,1,5.42-4.13h0c1.24,1.62,3.18,7.1,4.46,11-.86-.51-1.86-1.11-2.88-1.74C567.65,3002.88,566.15,3001.43,565.7,3000.85Zm39.35,23.24h11.39l2.1,8.38H605.05Zm9.66-5.47a2.82,2.82,0,0,1,2.82,2.82v.09H605.05v-2.91Zm-46.49,41.2a5.56,5.56,0,1,1,5.55-5.56A5.56,5.56,0,0,1,568.22,3059.82Zm45.12,0a5.56,5.56,0,1,1,5.56-5.56A5.56,5.56,0,0,1,613.34,3059.82Zm9.58-16.41a1.45,1.45,0,0,1-1.46-1.45v-1.46h2.91v2.91Z" transform="translate(-545.05 -2992.81)"/><path class="cls-2" d="M568.22,3051.62a2.65,2.65,0,1,0,2.64,2.64A2.64,2.64,0,0,0,568.22,3051.62Z" transform="translate(-545.05 -2992.81)"/><path class="cls-3" d="M613.34,3051.62a2.65,2.65,0,1,0,2.65,2.64A2.65,2.65,0,0,0,613.34,3051.62Z" transform="translate(-545.05 -2992.81)"/><path class="cls-4" d="M577.87,3047.43a1.28,1.28,0,0,0,1.29,1.28H598.3a1.28,1.28,0,0,0,0-2.56H579.16A1.28,1.28,0,0,0,577.87,3047.43Z" transform="translate(-545.05 -2992.81)"/><path class="cls-5" d="M549.07,3043.24h16.41a1.28,1.28,0,0,0,0-2.56H549.07a1.28,1.28,0,1,0,0,2.56Z" transform="translate(-545.05 -2992.81)"/><path class="cls-6" d="M565.48,3024.09a1.28,1.28,0,1,0,0-2.56H560a1.28,1.28,0,0,0-1.28,1.28v10.94a1.28,1.28,0,1,0,2.56,0v-4.19h2.82a1.28,1.28,0,1,0,0-2.56h-2.82v-2.91Z" transform="translate(-545.05 -2992.81)"/><path class="cls-7" d="M577.7,3026.23a4.71,4.71,0,0,0-4.7-4.7h-3.42a1.28,1.28,0,0,0-1.28,1.28v10.94a1.28,1.28,0,1,0,2.56,0v-2.82H573l2.35,3.53a1.28,1.28,0,1,0,2.14-1.42l-1.92-2.87A4.72,4.72,0,0,0,577.7,3026.23Zm-6.84-2.14H573a2.14,2.14,0,1,1,0,4.28h-2.14Z" transform="translate(-545.05 -2992.81)"/><path class="cls-8" d="M586,3024.09a1.28,1.28,0,0,0,0-2.56h-5.47a1.28,1.28,0,0,0-1.28,1.28v10.94a1.28,1.28,0,0,0,1.28,1.28H586a1.28,1.28,0,0,0,0-2.56H581.8v-2.91h2.83a1.28,1.28,0,1,0,0-2.56H581.8v-2.91Z" transform="translate(-545.05 -2992.81)"/><path class="cls-9" d="M595.57,3024.09a1.28,1.28,0,1,0,0-2.56H590.1a1.28,1.28,0,0,0-1.29,1.28v10.94a1.28,1.28,0,0,0,1.29,1.28h5.47a1.28,1.28,0,0,0,0-2.56h-4.19v-2.91h1.45a1.28,1.28,0,1,0,0-2.56h-1.45v-2.91Z" transform="translate(-545.05 -2992.81)"/></g></svg>