<svg id="шапка" xmlns="http://www.w3.org/2000/svg" xmlns:xlink="http://www.w3.org/1999/xlink" viewBox="0 0 1365.93 387.57"><defs><style>.cls-1{fill:url(#Безымянный_градиент_4);}.cls-2{fill:url(#Безымянный_градиент_4-2);}.cls-3{fill:url(#Безымянный_градиент_4-3);}.cls-4{fill:url(#Безымянный_градиент_4-4);}.cls-5{fill:url(#Безымянный_градиент_4-5);}.cls-6{fill:url(#Безымянный_градиент_4-6);}.cls-7{fill:url(#Безымянный_градиент_4-7);}.cls-8{fill:url(#Безымянный_градиент_4-8);}.cls-9{fill:url(#linear-gradient);}.cls-10{fill:url(#linear-gradient-2);}.cls-11{fill:url(#linear-gradient-3);}.cls-12{fill:url(#linear-gradient-4);}.cls-13{fill:url(#linear-gradient-5);}.cls-14{fill:url(#linear-gradient-6);}.cls-15{fill:url(#linear-gradient-7);}.cls-16{fill:url(#linear-gradient-8);}.cls-17{fill:#d25f60;}</style><radialGradient id="Безымянный_градиент_4" cx="682.96" cy="268.27" r="489.79" gradientUnits="userSpaceOnUse"><stop offset="0" stop-color="#ecdeaa"/><stop offset="1" stop-color="#e8b064"/></radialGradient><radialGradient id="Безымянный_градиент_4-2" cx="1308.79" cy="372.92" r="13.06" xlink:href="#Безымянный_градиент_4"/><radialGradient id="Безымянный_градиент_4-3" cx="1035.7" cy="313.71" r="15.3" xlink:href="#Безымянный_градиент_4"/><radialGradient id="Безымянный_градиент_4-4" cx="1308.79" cy="317.27" r="21.4" xlink:href="#Безымянный_градиент_4"/><radialGradient id="Безымянный_градиент_4-5" cx="-1071.35" cy="-588.61" r="4.93" gradientTransform="translate(4283.29 2604.52) scale(3.82 3.81)" xlink:href="#Безымянный_градиент_4"/><radialGradient id="Безымянный_градиент_4-6" cx="-1107.13" cy="-585.1" r="3.42" gradientTransform="translate(4283.29 2604.52) scale(3.82 3.81)" xlink:href="#Безымянный_градиент_4"/><radialGradient id="Безымянный_градиент_4-7" cx="-1035.58" cy="-600.63" r="4.01" gradientTransform="translate(4283.29 2604.52) scale(3.82 3.81)" xlink:href="#Безымянный_градиент_4"/><radialGradient id="Безымянный_градиент_4-8" cx="-1107.13" cy="-599.69" r="5.61" gradientTransform="translate(4283.29 2604.52) scale(3.82 3.81)" xlink:href="#Безымянный_градиент_4"/><linearGradient id="linear-gradient" x1="1297.41" y1="367.01" x2="1320.17" y2="367.01" gradientUnits="userSpaceOnUse"><stop offset="0" stop-color="#32113f"/><stop offset="1" stop-color="#56267d"/></linearGradient><linearGradient id="linear-gradient-2" x1="1024.32" y1="307.8" x2="1047.08" y2="307.8" xlink:href="#linear-gradient"/><linearGradient id="linear-gradient-3" x1="0.07" y1="189.14" x2="1366" y2="189.14" xlink:href="#linear-gradient"/><linearGradient id="linear-gradient-4" x1="1297.41" y1="311.36" x2="1320.17" y2="311.36" xlink:href="#linear-gradient"/><linearGradient id="linear-gradient-5" x1="182.29" y1="353.63" x2="205.05" y2="353.63" xlink:href="#linear-gradient"/><linearGradient id="linear-gradient-6" x1="45.75" y1="367.01" x2="68.5" y2="367.01" xlink:href="#linear-gradient"/><linearGradient id="linear-gradient-7" x1="318.84" y1="307.8" x2="341.59" y2="307.8" xlink:href="#linear-gradient"/><linearGradient id="linear-gradient-8" x1="45.75" y1="311.36" x2="68.5" y2="311.36" xlink:href="#linear-gradient"/></defs><title>header-background</title><g id="потеки"><path class="cls-1" d="M683.27,152.27s-.23,53.31-.31,83.14h-.08c-.08-29.82-.23-83.14-.23-83.14H.07l.16,82.41a11.38,11.38,0,0,0,22.76,0v-6.47a11.38,11.38,0,0,1,22.76,0v34.4a11.38,11.38,0,0,0,22.75,0V200.13a11.38,11.38,0,0,1,22.76,0v81.11a11.38,11.38,0,0,0,22.76,0V265.33a11.38,11.38,0,0,1,22.76,0v68.93a11.38,11.38,0,0,0,22.75,0V298.72a11.38,11.38,0,0,1,22.76,0v14a11.38,11.38,0,0,0,22.76,0V232.17a11.38,11.38,0,0,1,22.76,0v51a11.38,11.38,0,0,0,22.75,0v-7.85a11.38,11.38,0,0,1,22.76,0v45.45a11.38,11.38,0,0,0,22.76,0V215.14a11.38,11.38,0,0,1,22.76,0V272.6a11.38,11.38,0,0,0,22.75,0V240.13a11.38,11.38,0,0,1,22.76,0V355a11.38,11.38,0,0,0,22.76,0V284.87a11.38,11.38,0,0,1,22.76,0v16.29a11.38,11.38,0,0,0,22.75,0v-86a11.38,11.38,0,0,1,22.76,0V332.73a11.38,11.38,0,0,0,22.76,0V322.34a11.38,11.38,0,0,1,22.76,0v50.58a11.38,11.38,0,0,0,22.75,0V287.26a11.38,11.38,0,0,1,22.76,0v33.57a11.38,11.38,0,0,0,22.76,0v-9.68a11.38,11.38,0,0,1,22.76,0v39.36a11.38,11.38,0,0,0,22.76,0V251.33a11.38,11.38,0,0,1,22.75,0v55.72a11.38,11.38,0,0,0,22.76,0V257.39A11.36,11.36,0,0,1,671.58,246h0c0,.25,0,.49,0,.73V265a11.38,11.38,0,0,0,22.76,0V246.76c0-.24,0-.49,0-.73h0a11.37,11.37,0,0,1,11.38,11.36v49.66a11.38,11.38,0,0,0,22.75,0V251.33a11.38,11.38,0,0,1,22.76,0v99.18a11.38,11.38,0,0,0,22.76,0V311.15a11.38,11.38,0,0,1,22.76,0v9.68a11.38,11.38,0,0,0,22.75,0V287.26a11.38,11.38,0,0,1,22.76,0v85.66a11.38,11.38,0,0,0,22.76,0V322.34a11.38,11.38,0,0,1,22.76,0v10.39a11.38,11.38,0,0,0,22.75,0V215.14a11.38,11.38,0,0,1,22.76,0v86a11.38,11.38,0,0,0,22.76,0V284.87a11.38,11.38,0,0,1,22.76,0V355a11.38,11.38,0,0,0,22.75,0V240.13a11.38,11.38,0,0,1,22.76,0V272.6a11.38,11.38,0,0,0,22.76,0V215.14a11.38,11.38,0,0,1,22.76,0V320.78a11.38,11.38,0,0,0,22.75,0V275.33a11.38,11.38,0,0,1,22.76,0v7.85a11.38,11.38,0,0,0,22.76,0v-51a11.38,11.38,0,0,1,22.76,0v80.57a11.38,11.38,0,0,0,22.75,0v-14a11.38,11.38,0,0,1,22.76,0v35.54a11.38,11.38,0,0,0,22.76,0V265.33a11.38,11.38,0,0,1,22.76,0v15.91a11.38,11.38,0,0,0,22.75,0V200.13a11.38,11.38,0,0,1,22.76,0v62.48a11.38,11.38,0,0,0,22.76,0v-34.4a11.38,11.38,0,0,1,22.76,0v6.47a11.38,11.38,0,0,0,22.75,0l.16-82.41Z" transform="translate(-0.07 -0.35)"/><path class="cls-2" d="M1308.79,358.37a11.37,11.37,0,0,0-11.38,11.35v6.39a11.38,11.38,0,0,0,22.76,0v-6.39A11.36,11.36,0,0,0,1308.79,358.37Z" transform="translate(-0.07 -0.35)"/><path class="cls-3" d="M1035.7,295.32a11.37,11.37,0,0,0-11.38,11.35v14.08a11.38,11.38,0,0,0,22.76,0V306.67A11.37,11.37,0,0,0,1035.7,295.32Z" transform="translate(-0.07 -0.35)"/><path class="cls-4" d="M1308.79,289.23a11.38,11.38,0,0,0-11.38,11.36V334a11.38,11.38,0,0,0,22.76,0V300.59A11.37,11.37,0,0,0,1308.79,289.23Z" transform="translate(-0.07 -0.35)"/><path id="_Контур_" data-name="&lt;Контур&gt;" class="cls-5" d="M193.67,336a11.38,11.38,0,0,1,11.38,11.36v25.37a11.38,11.38,0,0,1-22.76,0V347.31A11.38,11.38,0,0,1,193.67,336Z" transform="translate(-0.07 -0.35)"/><path id="_Контур_2" data-name="&lt;Контур&gt;" class="cls-6" d="M57.12,358.82A11.36,11.36,0,0,1,68.5,370.17v6.39a11.38,11.38,0,0,1-22.75,0v-6.39A11.36,11.36,0,0,1,57.12,358.82Z" transform="translate(-0.07 -0.35)"/><path id="_Контур_3" data-name="&lt;Контур&gt;" class="cls-7" d="M330.22,295.77a11.36,11.36,0,0,1,11.37,11.35v14.09a11.38,11.38,0,0,1-22.75,0V307.12A11.36,11.36,0,0,1,330.22,295.77Z" transform="translate(-0.07 -0.35)"/><path id="_Контур_4" data-name="&lt;Контур&gt;" class="cls-8" d="M57.12,289.69A11.36,11.36,0,0,1,68.5,301v33.37a11.38,11.38,0,0,1-22.75,0V301A11.36,11.36,0,0,1,57.12,289.69Z" transform="translate(-0.07 -0.35)"/><path class="cls-9" d="M1308.79,352.46a11.37,11.37,0,0,0-11.38,11.35v6.39a11.38,11.38,0,0,0,22.76,0v-6.39A11.36,11.36,0,0,0,1308.79,352.46Z" transform="translate(-0.07 -0.35)"/><path class="cls-10" d="M1035.7,289.41a11.37,11.37,0,0,0-11.38,11.35v14.09a11.38,11.38,0,0,0,22.76,0V300.76A11.37,11.37,0,0,0,1035.7,289.41Z" transform="translate(-0.07 -0.35)"/><path class="cls-11" d="M684.38.53.07.35V228a11.76,11.76,0,0,0,11.54,11.64A11.38,11.38,0,0,0,23,228.32v-6.47a11.38,11.38,0,0,1,22.76,0v34.4a11.38,11.38,0,0,0,22.75,0V193.77a11.38,11.38,0,0,1,22.76,0v81.11a11.38,11.38,0,0,0,22.76,0V259a11.38,11.38,0,0,1,22.76,0V327.9a11.38,11.38,0,0,0,22.75,0V292.36a11.38,11.38,0,0,1,22.76,0v14a11.38,11.38,0,0,0,22.76,0V225.81a11.38,11.38,0,0,1,22.76,0v51a11.38,11.38,0,0,0,22.75,0V269a11.38,11.38,0,0,1,22.76,0v45.45a11.38,11.38,0,0,0,22.76,0V208.78a11.38,11.38,0,0,1,22.76,0v57.46a11.38,11.38,0,0,0,22.75,0V233.77a11.38,11.38,0,0,1,22.76,0V348.6a11.38,11.38,0,0,0,22.76,0V278.51a11.38,11.38,0,0,1,22.76,0V294.8a11.38,11.38,0,0,0,22.75,0v-86a11.38,11.38,0,0,1,22.76,0V326.37a11.38,11.38,0,0,0,22.76,0V316a11.38,11.38,0,0,1,22.76,0v50.58a11.38,11.38,0,0,0,22.75,0V280.9a11.38,11.38,0,0,1,22.76,0v33.57a11.38,11.38,0,0,0,22.76,0v-9.68a11.38,11.38,0,0,1,22.76,0v39.36a11.38,11.38,0,0,0,22.76,0V245a11.38,11.38,0,0,1,22.75,0v55.72a11.38,11.38,0,0,0,22.76,0V251a11.36,11.36,0,0,1,11.38-11.36h.2a10.91,10.91,0,0,0-.19,2v18.2a11.38,11.38,0,0,0,22.76,0v-18.2a10.91,10.91,0,0,0-.19-2h.18A11.37,11.37,0,0,1,705.72,251v49.66a11.38,11.38,0,0,0,22.75,0V245a11.38,11.38,0,0,1,22.76,0v99.18a11.38,11.38,0,0,0,22.76,0V304.79a11.38,11.38,0,0,1,22.76,0v9.68a11.38,11.38,0,0,0,22.75,0V280.9a11.38,11.38,0,0,1,22.76,0v85.66a11.38,11.38,0,0,0,22.76,0V316a11.38,11.38,0,0,1,22.76,0v10.39a11.38,11.38,0,0,0,22.75,0V208.78a11.38,11.38,0,0,1,22.76,0v86a11.38,11.38,0,0,0,22.76,0V278.51a11.38,11.38,0,0,1,22.76,0V348.6a11.38,11.38,0,0,0,22.75,0V233.77a11.38,11.38,0,0,1,22.76,0v32.47a11.38,11.38,0,0,0,22.76,0V208.78a11.38,11.38,0,0,1,22.76,0V314.42a11.38,11.38,0,0,0,22.75,0V269a11.38,11.38,0,0,1,22.76,0v7.85a11.38,11.38,0,0,0,22.76,0v-51a11.38,11.38,0,0,1,22.76,0v80.57a11.38,11.38,0,0,0,22.75,0v-14a11.38,11.38,0,0,1,22.76,0V327.9a11.38,11.38,0,0,0,22.76,0V259a11.38,11.38,0,0,1,22.76,0v15.91a11.38,11.38,0,0,0,22.75,0V193.77a11.38,11.38,0,0,1,22.76,0v62.48a11.38,11.38,0,0,0,22.76,0v-34.4a11.38,11.38,0,0,1,22.76,0v6.47a11.37,11.37,0,0,0,11.38,11.36A11.75,11.75,0,0,0,1365.84,228L1366,.53Z" transform="translate(-0.07 -0.35)"/><path class="cls-12" d="M1308.79,283.33a11.37,11.37,0,0,0-11.38,11.35v33.37a11.38,11.38,0,0,0,22.76,0V294.68A11.36,11.36,0,0,0,1308.79,283.33Z" transform="translate(-0.07 -0.35)"/><path id="_Контур_5" data-name="&lt;Контур&gt;" class="cls-13" d="M193.67,329.6A11.37,11.37,0,0,1,205.05,341v25.37a11.38,11.38,0,0,1-22.76,0V341A11.37,11.37,0,0,1,193.67,329.6Z" transform="translate(-0.07 -0.35)"/><path id="_Контур_6" data-name="&lt;Контур&gt;" class="cls-14" d="M57.12,352.46A11.36,11.36,0,0,1,68.5,363.81v6.39a11.38,11.38,0,0,1-22.75,0v-6.39A11.36,11.36,0,0,1,57.12,352.46Z" transform="translate(-0.07 -0.35)"/><path id="_Контур_7" data-name="&lt;Контур&gt;" class="cls-15" d="M330.22,289.41a11.36,11.36,0,0,1,11.37,11.35v14.09a11.38,11.38,0,0,1-22.75,0V300.76A11.36,11.36,0,0,1,330.22,289.41Z" transform="translate(-0.07 -0.35)"/><path id="_Контур_8" data-name="&lt;Контур&gt;" class="cls-16" d="M57.12,283.33A11.36,11.36,0,0,1,68.5,294.68v33.37a11.38,11.38,0,0,1-22.75,0V294.68A11.36,11.36,0,0,1,57.12,283.33Z" transform="translate(-0.07 -0.35)"/><path id="_Контур_9" data-name="&lt;Контур&gt;" class="cls-17" d="M691.06,241.57a1.36,1.36,0,0,0-1.36,1.36v18.21a5.47,5.47,0,0,1-10.93,0,1.37,1.37,0,0,0-2.73,0,8.2,8.2,0,0,0,16.39,0V242.93A1.36,1.36,0,0,0,691.06,241.57Z" transform="translate(-0.07 -0.35)"/><path id="_Контур_10" data-name="&lt;Контур&gt;" class="cls-17" d="M200.5,344.64a1.37,1.37,0,0,0-1.37,1.37v20.31a5.46,5.46,0,0,1-10.92,0,1.37,1.37,0,0,0-2.73,0,8.19,8.19,0,0,0,16.38,0V346A1.36,1.36,0,0,0,200.5,344.64Z" transform="translate(-0.07 -0.35)"/><path id="_Контур_11" data-name="&lt;Контур&gt;" class="cls-17" d="M64,362.45a1.36,1.36,0,0,0-1.36,1.36v6.39a5.47,5.47,0,0,1-10.93,0,1.37,1.37,0,0,0-2.73,0,8.2,8.2,0,0,0,16.39,0v-6.39A1.36,1.36,0,0,0,64,362.45Z" transform="translate(-0.07 -0.35)"/><path id="_Контур_12" data-name="&lt;Контур&gt;" class="cls-17" d="M337,299.4a1.36,1.36,0,0,0-1.36,1.36v14.09a5.47,5.47,0,0,1-10.93,0,1.37,1.37,0,1,0-2.73,0,8.2,8.2,0,0,0,16.39,0V300.76A1.36,1.36,0,0,0,337,299.4Z" transform="translate(-0.07 -0.35)"/><path id="_Контур_13" data-name="&lt;Контур&gt;" class="cls-17" d="M64,306.36a1.36,1.36,0,0,0-1.36,1.37v20.32a5.47,5.47,0,0,1-10.93,0,1.37,1.37,0,1,0-2.73,0,8.2,8.2,0,0,0,16.39,0V307.73A1.37,1.37,0,0,0,64,306.36Z" transform="translate(-0.07 -0.35)"/><path id="_Контур_14" data-name="&lt;Контур&gt;" class="cls-17" d="M34.37,205a17.3,17.3,0,0,0-17.3,17.26v6.47a5.46,5.46,0,0,1-10.92,0,1.37,1.37,0,0,0-2.73,0,8.19,8.19,0,0,0,16.38,0V222.3a14.57,14.57,0,0,1,14.57-14.53,1.37,1.37,0,0,0,0-2.73Z" transform="translate(-0.07 -0.35)"/><path id="_Контур_15" data-name="&lt;Контур&gt;" class="cls-17" d="M64,227.14a1.36,1.36,0,0,0-1.36,1.36v28.2a5.47,5.47,0,0,1-10.93,0,1.37,1.37,0,0,0-2.73,0,8.2,8.2,0,0,0,16.39,0V228.5A1.36,1.36,0,0,0,64,227.14Z" transform="translate(-0.07 -0.35)"/><path id="_Контур_16" data-name="&lt;Контур&gt;" class="cls-17" d="M79.88,177a17.3,17.3,0,0,0-17.29,17.26,1.37,1.37,0,1,0,2.73,0,14.56,14.56,0,0,1,14.56-14.53,1.37,1.37,0,1,0,0-2.73Z" transform="translate(-0.07 -0.35)"/><path id="_Контур_17" data-name="&lt;Контур&gt;" class="cls-17" d="M125.4,242.16a17.31,17.31,0,0,0-17.3,17.27v15.9a5.46,5.46,0,0,1-10.92,0,1.37,1.37,0,1,0-2.73,0,8.19,8.19,0,0,0,16.38,0v-15.9a14.57,14.57,0,0,1,14.57-14.54,1.37,1.37,0,0,0,0-2.73Z" transform="translate(-0.07 -0.35)"/><path id="_Контур_18" data-name="&lt;Контур&gt;" class="cls-17" d="M155,301.82a1.36,1.36,0,0,0-1.36,1.37v25.16a5.47,5.47,0,0,1-10.93,0,1.37,1.37,0,0,0-2.73,0,8.2,8.2,0,0,0,16.39,0V303.19A1.37,1.37,0,0,0,155,301.82Z" transform="translate(-0.07 -0.35)"/><path id="_Контур_19" data-name="&lt;Контур&gt;" class="cls-17" d="M170.91,275.55a17.3,17.3,0,0,0-17.29,17.26,1.37,1.37,0,1,0,2.73,0,14.56,14.56,0,0,1,14.56-14.53,1.37,1.37,0,1,0,0-2.73Z" transform="translate(-0.07 -0.35)"/><path id="_Контур_20" data-name="&lt;Контур&gt;" class="cls-17" d="M200.5,279.83a1.37,1.37,0,0,0-1.37,1.37v25.63a5.46,5.46,0,0,1-10.92,0,1.37,1.37,0,0,0-2.73,0,8.19,8.19,0,0,0,16.38,0V281.2A1.37,1.37,0,0,0,200.5,279.83Z" transform="translate(-0.07 -0.35)"/><path id="_Контур_21" data-name="&lt;Контур&gt;" class="cls-17" d="M216.43,209a17.3,17.3,0,0,0-17.3,17.26,1.37,1.37,0,1,0,2.73,0,14.57,14.57,0,0,1,14.57-14.53,1.37,1.37,0,0,0,0-2.73Z" transform="translate(-0.07 -0.35)"/><path id="_Контур_22" data-name="&lt;Контур&gt;" class="cls-17" d="M261.94,252.16a17.3,17.3,0,0,0-17.29,17.26v7.85a5.47,5.47,0,0,1-10.93,0,1.37,1.37,0,0,0-2.73,0,8.2,8.2,0,0,0,16.39,0v-7.85a14.56,14.56,0,0,1,14.56-14.54,1.36,1.36,0,1,0,0-2.72Z" transform="translate(-0.07 -0.35)"/><path id="_Контур_23" data-name="&lt;Контур&gt;" class="cls-17" d="M291.53,288a1.37,1.37,0,0,0-1.37,1.37v25.46a5.46,5.46,0,0,1-10.92,0,1.37,1.37,0,0,0-2.73,0,8.19,8.19,0,0,0,16.38,0V289.41A1.36,1.36,0,0,0,291.53,288Z" transform="translate(-0.07 -0.35)"/><path id="_Контур_24" data-name="&lt;Контур&gt;" class="cls-17" d="M307.46,192a17.3,17.3,0,0,0-17.3,17.26,1.37,1.37,0,0,0,2.73,0,14.58,14.58,0,0,1,14.57-14.54,1.36,1.36,0,1,0,0-2.72Z" transform="translate(-0.07 -0.35)"/><path id="_Контур_25" data-name="&lt;Контур&gt;" class="cls-17" d="M337,239.25a1.36,1.36,0,0,0-1.36,1.37v26.07a5.47,5.47,0,0,1-10.93,0,1.37,1.37,0,0,0-2.73,0,8.2,8.2,0,0,0,16.39,0V240.62A1.37,1.37,0,0,0,337,239.25Z" transform="translate(-0.07 -0.35)"/><path id="_Контур_26" data-name="&lt;Контур&gt;" class="cls-17" d="M353,217a17.3,17.3,0,0,0-17.29,17.27,1.37,1.37,0,0,0,2.73,0A14.56,14.56,0,0,1,353,219.69a1.37,1.37,0,1,0,0-2.73Z" transform="translate(-0.07 -0.35)"/><path id="_Контур_27" data-name="&lt;Контур&gt;" class="cls-17" d="M382.56,324.84a1.36,1.36,0,0,0-1.37,1.36v22.85a5.46,5.46,0,1,1-10.92,0,1.37,1.37,0,0,0-2.73,0,8.19,8.19,0,0,0,16.38,0V326.2A1.36,1.36,0,0,0,382.56,324.84Z" transform="translate(-0.07 -0.35)"/><path id="_Контур_28" data-name="&lt;Контур&gt;" class="cls-17" d="M398.49,261.7A17.3,17.3,0,0,0,381.19,279a1.37,1.37,0,0,0,2.73,0,14.57,14.57,0,0,1,14.57-14.54,1.36,1.36,0,0,0,0-2.72Z" transform="translate(-0.07 -0.35)"/><path id="_Контур_29" data-name="&lt;Контур&gt;" class="cls-17" d="M428.07,269.54a1.36,1.36,0,0,0-1.36,1.36v24.35a5.47,5.47,0,0,1-10.93,0,1.37,1.37,0,1,0-2.73,0,8.2,8.2,0,0,0,16.39,0V270.9A1.36,1.36,0,0,0,428.07,269.54Z" transform="translate(-0.07 -0.35)"/><path id="_Контур_30" data-name="&lt;Контур&gt;" class="cls-17" d="M444,192a17.3,17.3,0,0,0-17.29,17.26,1.37,1.37,0,0,0,2.73,0A14.57,14.57,0,0,1,444,194.69a1.36,1.36,0,1,0,0-2.72Z" transform="translate(-0.07 -0.35)"/><path id="_Контур_31" data-name="&lt;Контур&gt;" class="cls-17" d="M489.52,299.17a17.31,17.31,0,0,0-17.3,17.27v10.38a5.46,5.46,0,0,1-10.92,0,1.37,1.37,0,0,0-2.73,0,8.19,8.19,0,0,0,16.38,0V316.44a14.57,14.57,0,0,1,14.57-14.54,1.37,1.37,0,0,0,0-2.73Z" transform="translate(-0.07 -0.35)"/><path id="_Контур_32" data-name="&lt;Контур&gt;" class="cls-17" d="M519.1,339.86a1.36,1.36,0,0,0-1.36,1.36V367a5.47,5.47,0,0,1-10.93,0,1.37,1.37,0,0,0-2.73,0,8.2,8.2,0,0,0,16.39,0V341.22A1.36,1.36,0,0,0,519.1,339.86Z" transform="translate(-0.07 -0.35)"/><path id="_Контур_33" data-name="&lt;Контур&gt;" class="cls-17" d="M535,264.09a17.3,17.3,0,0,0-17.29,17.26,1.37,1.37,0,0,0,2.73,0A14.56,14.56,0,0,1,535,266.81a1.36,1.36,0,1,0,0-2.72Z" transform="translate(-0.07 -0.35)"/><path id="_Контур_34" data-name="&lt;Контур&gt;" class="cls-17" d="M580.55,288a17.3,17.3,0,0,0-17.3,17.26v9.69a5.46,5.46,0,0,1-10.92,0,1.37,1.37,0,1,0-2.73,0,8.19,8.19,0,0,0,16.38,0v-9.69a14.58,14.58,0,0,1,14.57-14.54,1.36,1.36,0,1,0,0-2.72Z" transform="translate(-0.07 -0.35)"/><path id="_Контур_35" data-name="&lt;Контур&gt;" class="cls-17" d="M610.13,315.46a1.36,1.36,0,0,0-1.36,1.37V344.6a5.47,5.47,0,0,1-10.93,0,1.37,1.37,0,0,0-2.73,0,8.2,8.2,0,0,0,16.39,0V316.83A1.37,1.37,0,0,0,610.13,315.46Z" transform="translate(-0.07 -0.35)"/><path id="_Контур_36" data-name="&lt;Контур&gt;" class="cls-17" d="M626.06,228.16a17.3,17.3,0,0,0-17.29,17.26,1.37,1.37,0,0,0,2.73,0,14.57,14.57,0,0,1,14.56-14.54,1.36,1.36,0,1,0,0-2.72Z" transform="translate(-0.07 -0.35)"/><path id="_Контур_37" data-name="&lt;Контур&gt;" class="cls-17" d="M655.65,272.57a1.36,1.36,0,0,0-1.37,1.36v27.22a5.46,5.46,0,0,1-10.92,0,1.37,1.37,0,1,0-2.73,0,8.19,8.19,0,0,0,16.38,0V273.93A1.36,1.36,0,0,0,655.65,272.57Z" transform="translate(-0.07 -0.35)"/><path id="_Контур_38" data-name="&lt;Контур&gt;" class="cls-17" d="M671.58,234.22a17.3,17.3,0,0,0-17.3,17.26,1.37,1.37,0,0,0,2.73,0,14.57,14.57,0,0,1,14.57-14.54,1.36,1.36,0,1,0,0-2.72Z" transform="translate(-0.07 -0.35)"/><g id="highlight"><path id="_Контур_39" data-name="&lt;Контур&gt;" class="cls-17" d="M1302,362.45a1.36,1.36,0,0,1,1.37,1.36v6.39a5.46,5.46,0,1,0,10.92,0,1.37,1.37,0,0,1,2.73,0,8.19,8.19,0,0,1-16.38,0v-6.39A1.36,1.36,0,0,1,1302,362.45Z" transform="translate(-0.07 -0.35)"/><path id="_Контур_40" data-name="&lt;Контур&gt;" class="cls-17" d="M1028.87,299.4a1.36,1.36,0,0,1,1.37,1.36v14.09a5.46,5.46,0,0,0,10.92,0,1.37,1.37,0,1,1,2.73,0,8.19,8.19,0,0,1-16.38,0V300.76A1.36,1.36,0,0,1,1028.87,299.4Z" transform="translate(-0.07 -0.35)"/><path id="_Контур_41" data-name="&lt;Контур&gt;" class="cls-17" d="M1302,306.36a1.37,1.37,0,0,1,1.37,1.37v20.32a5.46,5.46,0,0,0,10.92,0,1.37,1.37,0,1,1,2.73,0,8.19,8.19,0,0,1-16.38,0V307.73A1.36,1.36,0,0,1,1302,306.36Z" transform="translate(-0.07 -0.35)"/><path id="_Контур_42" data-name="&lt;Контур&gt;" class="cls-17" d="M1331.55,205a17.3,17.3,0,0,1,17.29,17.26v6.47a5.47,5.47,0,0,0,10.93,0,1.37,1.37,0,0,1,2.73,0,8.2,8.2,0,0,1-16.39,0V222.3a14.56,14.56,0,0,0-14.56-14.53,1.37,1.37,0,1,1,0-2.73Z" transform="translate(-0.07 -0.35)"/><path id="_Контур_43" data-name="&lt;Контур&gt;" class="cls-17" d="M1302,227.14a1.36,1.36,0,0,1,1.37,1.36v28.2a5.46,5.46,0,0,0,10.92,0,1.37,1.37,0,0,1,2.73,0,8.19,8.19,0,0,1-16.38,0V228.5A1.36,1.36,0,0,1,1302,227.14Z" transform="translate(-0.07 -0.35)"/><path id="_Контур_44" data-name="&lt;Контур&gt;" class="cls-17" d="M1286,177a17.3,17.3,0,0,1,17.3,17.26,1.37,1.37,0,1,1-2.73,0A14.57,14.57,0,0,0,1286,179.69a1.37,1.37,0,0,1,0-2.73Z" transform="translate(-0.07 -0.35)"/><path id="_Контур_45" data-name="&lt;Контур&gt;" class="cls-17" d="M1240.52,242.16a17.3,17.3,0,0,1,17.29,17.27v15.9a5.47,5.47,0,0,0,10.93,0,1.37,1.37,0,1,1,2.73,0,8.2,8.2,0,0,1-16.39,0v-15.9a14.56,14.56,0,0,0-14.56-14.54,1.37,1.37,0,1,1,0-2.73Z" transform="translate(-0.07 -0.35)"/><path id="_Контур_46" data-name="&lt;Контур&gt;" class="cls-17" d="M1210.93,301.82a1.37,1.37,0,0,1,1.37,1.37v25.16a5.46,5.46,0,0,0,10.92,0,1.37,1.37,0,0,1,2.73,0,8.19,8.19,0,0,1-16.38,0V303.19A1.36,1.36,0,0,1,1210.93,301.82Z" transform="translate(-0.07 -0.35)"/><path id="_Контур_47" data-name="&lt;Контур&gt;" class="cls-17" d="M1195,275.55a17.3,17.3,0,0,1,17.3,17.26,1.37,1.37,0,1,1-2.73,0A14.57,14.57,0,0,0,1195,278.28a1.37,1.37,0,0,1,0-2.73Z" transform="translate(-0.07 -0.35)"/><path id="_Контур_48" data-name="&lt;Контур&gt;" class="cls-17" d="M1165.42,279.83a1.37,1.37,0,0,1,1.36,1.37v25.63a5.47,5.47,0,0,0,10.93,0,1.37,1.37,0,0,1,2.73,0,8.2,8.2,0,0,1-16.39,0V281.2A1.37,1.37,0,0,1,1165.42,279.83Z" transform="translate(-0.07 -0.35)"/><path id="_Контур_49" data-name="&lt;Контур&gt;" class="cls-17" d="M1149.49,209a17.3,17.3,0,0,1,17.29,17.26,1.37,1.37,0,1,1-2.73,0,14.56,14.56,0,0,0-14.56-14.53,1.37,1.37,0,1,1,0-2.73Z" transform="translate(-0.07 -0.35)"/><path id="_Контур_50" data-name="&lt;Контур&gt;" class="cls-17" d="M1104,252.16a17.3,17.3,0,0,1,17.3,17.26v7.85a5.46,5.46,0,0,0,10.92,0,1.37,1.37,0,0,1,2.73,0,8.19,8.19,0,0,1-16.38,0v-7.85A14.57,14.57,0,0,0,1104,254.88a1.36,1.36,0,0,1,0-2.72Z" transform="translate(-0.07 -0.35)"/><path id="_Контур_51" data-name="&lt;Контур&gt;" class="cls-17" d="M1074.39,288a1.36,1.36,0,0,1,1.36,1.37v25.46a5.47,5.47,0,0,0,10.93,0,1.37,1.37,0,0,1,2.73,0,8.2,8.2,0,0,1-16.39,0V289.41A1.37,1.37,0,0,1,1074.39,288Z" transform="translate(-0.07 -0.35)"/><path id="_Контур_52" data-name="&lt;Контур&gt;" class="cls-17" d="M1058.46,192a17.3,17.3,0,0,1,17.29,17.26,1.37,1.37,0,0,1-2.73,0,14.57,14.57,0,0,0-14.56-14.54,1.36,1.36,0,1,1,0-2.72Z" transform="translate(-0.07 -0.35)"/><path id="_Контур_53" data-name="&lt;Контур&gt;" class="cls-17" d="M1028.87,239.25a1.37,1.37,0,0,1,1.37,1.37v26.07a5.46,5.46,0,0,0,10.92,0,1.37,1.37,0,0,1,2.73,0,8.19,8.19,0,0,1-16.38,0V240.62A1.36,1.36,0,0,1,1028.87,239.25Z" transform="translate(-0.07 -0.35)"/><path id="_Контур_54" data-name="&lt;Контур&gt;" class="cls-17" d="M1012.94,217a17.31,17.31,0,0,1,17.3,17.27,1.37,1.37,0,0,1-2.73,0,14.57,14.57,0,0,0-14.57-14.54,1.37,1.37,0,0,1,0-2.73Z" transform="translate(-0.07 -0.35)"/><path id="_Контур_55" data-name="&lt;Контур&gt;" class="cls-17" d="M983.36,324.84a1.36,1.36,0,0,1,1.36,1.36v22.85a5.47,5.47,0,0,0,10.93,0,1.37,1.37,0,0,1,2.73,0,8.2,8.2,0,0,1-16.39,0V326.2A1.36,1.36,0,0,1,983.36,324.84Z" transform="translate(-0.07 -0.35)"/><path id="_Контур_56" data-name="&lt;Контур&gt;" class="cls-17" d="M967.43,261.7A17.3,17.3,0,0,1,984.72,279a1.37,1.37,0,0,1-2.73,0,14.56,14.56,0,0,0-14.56-14.54,1.36,1.36,0,1,1,0-2.72Z" transform="translate(-0.07 -0.35)"/><path id="_Контур_57" data-name="&lt;Контур&gt;" class="cls-17" d="M937.84,269.54a1.36,1.36,0,0,1,1.37,1.36v24.35a5.46,5.46,0,0,0,10.92,0,1.37,1.37,0,1,1,2.73,0,8.19,8.19,0,0,1-16.38,0V270.9A1.36,1.36,0,0,1,937.84,269.54Z" transform="translate(-0.07 -0.35)"/><path id="_Контур_58" data-name="&lt;Контур&gt;" class="cls-17" d="M921.91,192a17.3,17.3,0,0,1,17.3,17.26,1.37,1.37,0,0,1-2.73,0,14.58,14.58,0,0,0-14.57-14.54,1.36,1.36,0,0,1,0-2.72Z" transform="translate(-0.07 -0.35)"/><path id="_Контур_59" data-name="&lt;Контур&gt;" class="cls-17" d="M876.4,299.17a17.3,17.3,0,0,1,17.29,17.27v10.38a5.47,5.47,0,0,0,10.93,0,1.37,1.37,0,0,1,2.73,0,8.2,8.2,0,0,1-16.39,0V316.44A14.56,14.56,0,0,0,876.4,301.9a1.37,1.37,0,1,1,0-2.73Z" transform="translate(-0.07 -0.35)"/><path id="_Контур_60" data-name="&lt;Контур&gt;" class="cls-17" d="M846.81,339.86a1.36,1.36,0,0,1,1.37,1.36V367a5.46,5.46,0,1,0,10.92,0,1.37,1.37,0,0,1,2.73,0,8.19,8.19,0,0,1-16.38,0V341.22A1.36,1.36,0,0,1,846.81,339.86Z" transform="translate(-0.07 -0.35)"/><path id="_Контур_61" data-name="&lt;Контур&gt;" class="cls-17" d="M830.88,264.09a17.3,17.3,0,0,1,17.3,17.26,1.37,1.37,0,0,1-2.73,0,14.57,14.57,0,0,0-14.57-14.54,1.36,1.36,0,0,1,0-2.72Z" transform="translate(-0.07 -0.35)"/><path id="_Контур_62" data-name="&lt;Контур&gt;" class="cls-17" d="M785.37,288a17.3,17.3,0,0,1,17.29,17.26v9.69a5.47,5.47,0,0,0,10.93,0,1.37,1.37,0,1,1,2.73,0,8.2,8.2,0,0,1-16.39,0v-9.69a14.57,14.57,0,0,0-14.56-14.54,1.36,1.36,0,1,1,0-2.72Z" transform="translate(-0.07 -0.35)"/><path id="_Контур_63" data-name="&lt;Контур&gt;" class="cls-17" d="M755.78,315.46a1.37,1.37,0,0,1,1.37,1.37V344.6a5.46,5.46,0,0,0,10.92,0,1.37,1.37,0,0,1,2.73,0,8.19,8.19,0,0,1-16.38,0V316.83A1.36,1.36,0,0,1,755.78,315.46Z" transform="translate(-0.07 -0.35)"/><path id="_Контур_64" data-name="&lt;Контур&gt;" class="cls-17" d="M739.85,228.16a17.3,17.3,0,0,1,17.3,17.26,1.37,1.37,0,0,1-2.73,0,14.58,14.58,0,0,0-14.57-14.54,1.36,1.36,0,0,1,0-2.72Z" transform="translate(-0.07 -0.35)"/><path id="_Контур_65" data-name="&lt;Контур&gt;" class="cls-17" d="M710.27,272.57a1.36,1.36,0,0,1,1.36,1.36v27.22a5.47,5.47,0,0,0,10.93,0,1.37,1.37,0,1,1,2.73,0,8.2,8.2,0,0,1-16.39,0V273.93A1.36,1.36,0,0,1,710.27,272.57Z" transform="translate(-0.07 -0.35)"/><path id="_Контур_66" data-name="&lt;Контур&gt;" class="cls-17" d="M694.34,234.22a17.3,17.3,0,0,1,17.29,17.26,1.37,1.37,0,0,1-2.73,0,14.56,14.56,0,0,0-14.56-14.54,1.36,1.36,0,1,1,0-2.72Z" transform="translate(-0.07 -0.35)"/></g></g></svg>