<svg id="контакты" xmlns="http://www.w3.org/2000/svg" viewBox="0 0 51.85 51.85"><defs><style>.cls-1{fill:#fff;}</style></defs><title>instagram</title><g id="инстаграм"><path class="cls-1" d="M779.37,3440.34h-21A15.47,15.47,0,0,0,743,3455.79v21a15.46,15.46,0,0,0,15.45,15.44h21a15.46,15.46,0,0,0,15.45-15.44v-21a15.47,15.47,0,0,0-15.45-15.45Zm10.23,36.41A10.23,10.23,0,0,1,779.37,3487h-21a10.23,10.23,0,0,1-10.23-10.23v-21a10.23,10.23,0,0,1,10.23-10.23h21a10.23,10.23,0,0,1,10.23,10.23Zm0,0" transform="translate(-742.96 -3440.34)"/><path class="cls-1" d="M768.89,3452.85a13.42,13.42,0,1,0,13.41,13.42,13.43,13.43,0,0,0-13.41-13.42Zm0,21.61a8.2,8.2,0,1,1,8.19-8.19,8.2,8.2,0,0,1-8.19,8.19Zm0,0" transform="translate(-742.96 -3440.34)"/><path class="cls-1" d="M785.54,3453a3.22,3.22,0,1,1-3.22-3.22,3.22,3.22,0,0,1,3.22,3.22Zm0,0" transform="translate(-742.96 -3440.34)"/></g></svg>