<svg id="вкус_лимон" data-name="вкус лимон" xmlns="http://www.w3.org/2000/svg" xmlns:xlink="http://www.w3.org/1999/xlink" viewBox="0 0 923.26 923.27"><defs><style>.cls-1{fill:none;}.cls-2{opacity:0.3;}.cls-3{clip-path:url(#clip-path);}.cls-4{fill:#fff;}</style><clipPath id="clip-path" transform="translate(-715.96 -2017.43)"><rect class="cls-1" x="715.92" y="2125.13" width="650.08" height="708.26"/></clipPath></defs><title>lemon-background</title><g id="лимон_на_заднем_плане" data-name="лимон на заднем плане" class="cls-2"><g class="cls-3"><path class="cls-4" d="M1584.17,2185.07c-27.66,27.63-21.28,74.82-13.21,134.52a717.28,717.28,0,0,1,8.52,152.41,292,292,0,1,0-409,408.94,717.74,717.74,0,0,1-152.44-8.51c-59.7-8-106.84-14.42-134.52,13.21-52.76,52.93-105.22,4.13-111-1.52s-54.45-58.28-1.51-111.07c27.58-27.68,21.17-74.82,13.08-134.46C768.9,2526.05,748,2371.92,909.21,2210.68s315.37-140.31,427.85-125c59.7,8.12,106.87,14.47,134.57-13.16,52.74-52.94,105.18-4.13,111,1.56s54.46,58.28,1.57,111Zm-237.32,724.87c-144.45,0-261.57-117.18-261.57-261.62s117.12-261.57,261.57-261.57,261.57,117.12,261.57,261.57c-.18,144.39-117.17,261.41-261.57,261.62Zm292.37-776.59a119.09,119.09,0,0,0-115.86-115.92h0a102.6,102.6,0,0,0-73.46,33.33c-16.89,16.84-57.35,11.34-108.63,4.38C1229,2039.92,1059.41,2016.93,887.44,2189s-149,341.54-133.77,453.77c6.94,51.27,12.41,91.71-4.38,108.6A102.18,102.18,0,0,0,716,2824.78a119.08,119.08,0,0,0,115.86,115.91h0a102.23,102.23,0,0,0,73.46-33.28c16.87-16.83,57.36-11.34,108.6-4.48a650,650,0,0,0,197.47,4.23,292,292,0,0,0,394.27-394.27,650.07,650.07,0,0,0-4.21-197.44c-6.91-51.27-12.4-91.76,4.44-108.6a102.53,102.53,0,0,0,33.32-73.5Z" transform="translate(-715.96 -2017.43)"/><path class="cls-4" d="M1245.4,2107.28c-7.81-.4-15.65-.66-23.64-.71s-16.09.1-24.25.51a15.43,15.43,0,0,0-14.62,16.13,15,15,0,0,0,5,10.74,15.21,15.21,0,0,0,11.17,3.88c7.61-.35,15.1-.5,22.59-.5s14.87.3,22.21.7h.8a15.39,15.39,0,0,0,.78-30.75Z" transform="translate(-715.96 -2017.43)"/><path class="cls-4" d="M1121.48,2118.27c-8.82,2.21-17.7,4.84-26.32,7.76-8.82,3-17.8,6.46-26.67,10.29s-18.1,8.22-27,13c-9.24,4.9-18.41,10.24-27.26,15.88-9.25,5.85-18.53,12.31-27.5,19.07-9.18,6.85-18.48,14.36-27.71,22.38s-18.65,16.89-27.8,26-17.93,18.55-26,27.83-15.55,18.5-22.44,27.68c-6.75,9-13.15,18.25-19,27.48-5.67,8.87-11,18-15.93,27.27a15.44,15.44,0,0,0,6.37,20.83,15,15,0,0,0,7.19,1.76,15.3,15.3,0,0,0,13.61-8.17c4.54-8.47,9.48-16.94,14.67-25.16,5.5-8.57,11.45-17.14,17.75-25.56,6.4-8.57,13.46-17.29,21-25.91,7.67-8.78,15.94-17.6,24.58-26.27s17.47-16.94,26.27-24.61c8.65-7.51,17.37-14.57,25.94-21,8.37-6.3,17-12.25,25.56-17.7,8.17-5.24,16.64-10.18,25.14-14.67,8.19-4.34,16.56-8.37,24.78-11.9s16.38-6.71,24.43-9.43c7.86-2.67,16-5,24-7.11a15.37,15.37,0,1,0-7.61-29.79Z" transform="translate(-715.96 -2017.43)"/><path class="cls-4" d="M1048.8,2812.18a15.8,15.8,0,0,0-1.09,5.9,15,15,0,0,0,9.38,14.11,17.57,17.57,0,0,0,6,1.26,15.33,15.33,0,0,0,14.14-9.58,14.5,14.5,0,0,0,0-11.69,14.34,14.34,0,0,0-3.38-5,15.68,15.68,0,0,0-21.68,0,14.53,14.53,0,0,0-3.4,5Z" transform="translate(-715.96 -2017.43)"/><path class="cls-4" d="M1019.25,2774.36a15.41,15.41,0,0,0-26.32,10.74,16.33,16.33,0,0,0,1.26,6.05,15.32,15.32,0,0,0,3.23,4.89,16.67,16.67,0,0,0,5.07,3.38,14.26,14.26,0,0,0,11.69,0,17.43,17.43,0,0,0,5.07-3.38,15.52,15.52,0,0,0,4.47-10.94,15.81,15.81,0,0,0-4.47-10.74Z" transform="translate(-715.96 -2017.43)"/><path class="cls-4" d="M1521.75,2551.31a199.87,199.87,0,0,1,18,44.17,28.7,28.7,0,0,1-5.09,25.06,31.06,31.06,0,0,1-25,12.4H1384l88.81-88.79a30.27,30.27,0,0,1,25.94-8.67,31,31,0,0,1,23,15.83Zm18,149.9h0a201.9,201.9,0,0,1-18,44.16,31,31,0,0,1-23.06,15.83,30.21,30.21,0,0,1-25.92-8.67L1384,2663.74h125.74a31.13,31.13,0,0,1,25,12.36,28.77,28.77,0,0,1,5.09,25.11Zm-80.09,99a31,31,0,0,1-15.81,23h-.05a199.09,199.09,0,0,1-44.17,18.05,28.8,28.8,0,0,1-25-5.05,31.25,31.25,0,0,1-12.41-25V2685.47l88.82,88.79a30.48,30.48,0,0,1,8.67,26Zm-140.64,36a28.73,28.73,0,0,1-25.11,5.05,200,200,0,0,1-44.14-18.05,31.09,31.09,0,0,1-15.86-23,30.59,30.59,0,0,1,8.7-26l88.81-88.79v125.75a31.33,31.33,0,0,1-12.43,25Zm-124.11-75a31,31,0,0,1-23-15.83,201.37,201.37,0,0,1-18-44.16,28.82,28.82,0,0,1,5.06-25.11,31.23,31.23,0,0,1,25-12.36h125.72l-88.79,88.79a30.25,30.25,0,0,1-25.94,8.67Zm-41.06-165.77a198.53,198.53,0,0,1,18-44.12,30.93,30.93,0,0,1,23-15.83,30.29,30.29,0,0,1,26,8.67l88.79,88.79H1184a31.15,31.15,0,0,1-25-12.4,28.83,28.83,0,0,1-5.06-25.11Zm80.06-99a31.07,31.07,0,0,1,15.86-23,196.82,196.82,0,0,1,44.16-18,26.7,26.7,0,0,1,7.44-1,28.5,28.5,0,0,1,17.62,6.05,31.28,31.28,0,0,1,12.43,25v125.74l-88.81-88.84a30.42,30.42,0,0,1-8.7-25.91Zm140.67-36a29.27,29.27,0,0,1,17.64-6.05,27.16,27.16,0,0,1,7.47,1,197.59,197.59,0,0,1,44.16,18,30.93,30.93,0,0,1,15.81,23,30.31,30.31,0,0,1-8.67,25.91l-88.82,88.84V2485.47a31.2,31.2,0,0,1,12.41-25Zm115.88,44.21a60.6,60.6,0,0,0-31.69-58.13,227.66,227.66,0,0,0-51-20.82A59.11,59.11,0,0,0,1356,2436a60.89,60.89,0,0,0-9.12,8.82,61.92,61.92,0,0,0-9.13-8.82,59.11,59.11,0,0,0-51.88-10.29,228.24,228.24,0,0,0-51,20.82,60.54,60.54,0,0,0-31.69,58.13,64.27,64.27,0,0,0-12.48.31,61.66,61.66,0,0,0-45.68,31.36,232.46,232.46,0,0,0-20.82,51,59.33,59.33,0,0,0,10.31,51.88,60.37,60.37,0,0,0,8.8,9.13,62.73,62.73,0,0,0-8.8,9.12,59.37,59.37,0,0,0-10.31,51.88,231.66,231.66,0,0,0,20.82,51,61.71,61.71,0,0,0,45.68,31.36,63.17,63.17,0,0,0,8.67.6c1.31,0,2.53-.3,3.81-.4a60.69,60.69,0,0,0,31.66,58.23,232.89,232.89,0,0,0,51,20.82,59.29,59.29,0,0,0,51.88-10.28,63,63,0,0,0,9.13-8.82,61.89,61.89,0,0,0,9.12,8.82,59.28,59.28,0,0,0,51.88,10.28,232.46,232.46,0,0,0,51-20.82,60.7,60.7,0,0,0,31.69-58.23c1.26.1,2.5.4,3.78.4a63.49,63.49,0,0,0,8.7-.6,61.61,61.61,0,0,0,45.68-31.42,227,227,0,0,0,20.77-51,59.14,59.14,0,0,0-10.28-51.88,60.7,60.7,0,0,0-8.8-9.12,59.07,59.07,0,0,0,19.08-61,227.57,227.57,0,0,0-20.82-51,60.51,60.51,0,0,0-58.11-31.67Z" transform="translate(-715.96 -2017.43)"/></g></g></svg>