<svg xmlns="http://www.w3.org/2000/svg" xmlns:xlink="http://www.w3.org/1999/xlink" viewBox="0 0 507.74 91.12"><defs><style>.cls-1{isolation:isolate;}.cls-18,.cls-19,.cls-2,.cls-3,.cls-30,.cls-37,.cls-4,.cls-7{opacity:0.4;}.cls-2{fill:url(#linear-gradient);}.cls-3{fill:url(#linear-gradient-2);}.cls-4{fill:url(#linear-gradient-3);}.cls-5{fill:url(#linear-gradient-4);}.cls-6{fill:#fff;}.cls-29,.cls-7{fill:#31152d;}.cls-8{fill:url(#linear-gradient-5);}.cls-9{fill:url(#linear-gradient-6);}.cls-10{fill:url(#linear-gradient-7);}.cls-11{fill:url(#linear-gradient-8);}.cls-12{fill:url(#linear-gradient-9);}.cls-13{fill:url(#linear-gradient-10);}.cls-14{fill:url(#linear-gradient-11);}.cls-15{fill:url(#linear-gradient-12);}.cls-16{fill:url(#linear-gradient-13);}.cls-17{fill:url(#linear-gradient-14);}.cls-18{fill:url(#linear-gradient-15);}.cls-19{fill:url(#linear-gradient-16);}.cls-20{fill:url(#linear-gradient-17);}.cls-21{fill:url(#linear-gradient-18);}.cls-22{fill:url(#linear-gradient-19);}.cls-23{fill:url(#linear-gradient-20);}.cls-24{fill:url(#linear-gradient-21);}.cls-25{fill:url(#linear-gradient-22);}.cls-26{fill:url(#linear-gradient-23);}.cls-27{fill:url(#linear-gradient-24);}.cls-28{fill:url(#linear-gradient-25);}.cls-30{mix-blend-mode:multiply;}.cls-31{fill:url(#linear-gradient-26);}.cls-32{fill:url(#linear-gradient-27);}.cls-33{fill:url(#linear-gradient-28);}.cls-34{fill:url(#linear-gradient-29);}.cls-35{fill:url(#linear-gradient-30);}.cls-36{fill:url(#linear-gradient-31);}.cls-38{fill:url(#linear-gradient-32);}.cls-39{fill:url(#linear-gradient-33);}.cls-40{fill:url(#linear-gradient-34);}</style><linearGradient id="linear-gradient" x1="392.98" y1="196.62" x2="422.48" y2="28.66" gradientUnits="userSpaceOnUse"><stop offset="0" stop-color="#e0997b"/><stop offset="0.51" stop-color="#dd8f7b"/><stop offset="1" stop-color="#d36479"/></linearGradient><linearGradient id="linear-gradient-2" x1="347.71" y1="121.08" x2="352.47" y2="94.02" xlink:href="#linear-gradient"/><linearGradient id="linear-gradient-3" x1="330.33" y1="123.32" x2="343.34" y2="49.24" xlink:href="#linear-gradient"/><linearGradient id="linear-gradient-4" x1="335.42" y1="92.47" x2="323.82" y2="77.36" gradientUnits="userSpaceOnUse"><stop offset="0" stop-color="#32113f"/><stop offset="1" stop-color="#56267d"/></linearGradient><linearGradient id="linear-gradient-5" x1="582.01" y1="75.12" x2="573.3" y2="60.52" gradientTransform="matrix(0.76, 0.06, -0.07, 1, -74.43, 7.76)" gradientUnits="userSpaceOnUse"><stop offset="0" stop-color="#e0997b"/><stop offset="0.51" stop-color="#d87c74"/><stop offset="1" stop-color="#cf4b78"/></linearGradient><linearGradient id="linear-gradient-6" x1="713.47" y1="-15.56" x2="704.77" y2="-30.16" gradientTransform="matrix(0.75, 0.15, -0.2, 0.98, -141.26, 11.56)" xlink:href="#linear-gradient-5"/><linearGradient id="linear-gradient-7" x1="423.19" y1="135.58" x2="425.17" y2="135.58" xlink:href="#linear-gradient-4"/><linearGradient id="linear-gradient-8" x1="424.85" y1="123.83" x2="426.27" y2="123.83" xlink:href="#linear-gradient-4"/><linearGradient id="linear-gradient-9" x1="370.05" y1="129.34" x2="371.36" y2="129.34" xlink:href="#linear-gradient-4"/><linearGradient id="linear-gradient-10" x1="325.85" y1="120" x2="346.35" y2="120" xlink:href="#linear-gradient-4"/><linearGradient id="linear-gradient-11" x1="320.63" y1="92.16" x2="329.28" y2="57.86" xlink:href="#linear-gradient-4"/><linearGradient id="linear-gradient-12" x1="355.31" y1="80.59" x2="346.21" y2="68.73" xlink:href="#linear-gradient-4"/><linearGradient id="linear-gradient-13" x1="443.45" y1="89.35" x2="450.68" y2="57.17" gradientTransform="matrix(1, 0, 0, 1, 0, 0)" xlink:href="#linear-gradient-5"/><linearGradient id="linear-gradient-14" x1="316.92" y1="70.71" x2="310.9" y2="133.64" gradientTransform="matrix(1, 0, 0, 1, 0, 0)" xlink:href="#linear-gradient-5"/><linearGradient id="linear-gradient-15" x1="142.98" y1="185.25" x2="168.92" y2="37.55" xlink:href="#linear-gradient"/><linearGradient id="linear-gradient-16" x1="214.41" y1="172.49" x2="234.45" y2="58.43" xlink:href="#linear-gradient"/><linearGradient id="linear-gradient-17" x1="188.72" y1="133.03" x2="184.58" y2="129.67" gradientUnits="userSpaceOnUse"><stop offset="0" stop-color="#57326a"/><stop offset="1" stop-color="#71207b"/></linearGradient><linearGradient id="linear-gradient-18" x1="285.1" y1="72.18" x2="277.88" y2="57" xlink:href="#linear-gradient-4"/><linearGradient id="linear-gradient-19" x1="250.29" y1="63.62" x2="254.91" y2="43.07" gradientTransform="translate(-55.64 11.61) rotate(5.69)" xlink:href="#linear-gradient-5"/><linearGradient id="linear-gradient-20" x1="218.97" y1="96.77" x2="222.77" y2="79.85" gradientTransform="matrix(1, 0, 0, 1, 0, 0)" xlink:href="#linear-gradient-5"/><linearGradient id="linear-gradient-21" x1="237.78" y1="93.85" x2="241.58" y2="76.92" gradientTransform="matrix(1, 0, 0, 1, 0, 0)" xlink:href="#linear-gradient-5"/><linearGradient id="linear-gradient-22" x1="480.51" y1="-994.61" x2="484.31" y2="-1011.54" gradientTransform="matrix(0.92, 0.4, 0.4, -0.92, 209.49, -1016.46)" xlink:href="#linear-gradient-5"/><linearGradient id="linear-gradient-23" x1="141.56" y1="52.45" x2="136.14" y2="109.14" gradientTransform="matrix(1, 0, 0, 1, 0, 0)" xlink:href="#linear-gradient-5"/><linearGradient id="linear-gradient-24" x1="163.87" y1="80.28" x2="158.59" y2="135.41" xlink:href="#linear-gradient-4"/><linearGradient id="linear-gradient-25" x1="263.69" y1="59.27" x2="260.28" y2="94.82" xlink:href="#linear-gradient-4"/><linearGradient id="linear-gradient-26" x1="565.43" y1="12.96" x2="493.97" y2="102.65" xlink:href="#linear-gradient"/><linearGradient id="linear-gradient-27" x1="597" y1="38.11" x2="525.53" y2="127.8" xlink:href="#linear-gradient"/><linearGradient id="linear-gradient-28" x1="609.53" y1="73.28" x2="604.58" y2="79.5" xlink:href="#linear-gradient"/><linearGradient id="linear-gradient-29" x1="626.32" y1="66.53" x2="608.53" y2="88.85" xlink:href="#linear-gradient"/><linearGradient id="linear-gradient-30" x1="577.67" y1="73.09" x2="562.66" y2="91.93" xlink:href="#linear-gradient"/><linearGradient id="linear-gradient-31" x1="558.33" y1="75.41" x2="524.41" y2="117.99" xlink:href="#linear-gradient"/><linearGradient id="linear-gradient-32" x1="500.92" y1="156.57" x2="516.03" y2="70.53" xlink:href="#linear-gradient-4"/><linearGradient id="linear-gradient-33" x1="530.6" y1="93.24" x2="532.48" y2="85.34" xlink:href="#linear-gradient-4"/><linearGradient id="linear-gradient-34" x1="566.96" y1="86.3" x2="568.83" y2="78.39" xlink:href="#linear-gradient-4"/></defs><title>logo</title><g class="cls-1"><g id="шапка"><g id="лого"><path class="cls-2" d="M461.91,91l-.06-.34a.84.84,0,0,0-.5-.65h-.08q-8.5,15.87-12.64,17.52c-.13,0-.26-.21-.34-.76-.44-2.34.26-7,2.08-14,2.08-8,3.88-14.64,5-19.84,1.85-8.6,2.47-14,2.14-15.95a5.77,5.77,0,0,0-4.61-4.89,15.36,15.36,0,0,0-4.28-.29c-.13,3.14-.34,5.5-.56,7-1,6.42-2.12,12.75-3.56,19.09-3.53-2-6.38-2.74-8.61-2.37-1.6.26-3.37,1.33-5.34,3.21a15.2,15.2,0,0,0-2.95,3.61,26.21,26.21,0,0,0-3.33,7.25c-.17.59-.31,1.16-.46,1.73l-.28.07a4.22,4.22,0,0,1-4.63-1.82c-1.13-2.62-2.48-3.77-4.12-3.51s-3.73,1.79-6.47,4.53a5,5,0,0,0-.54,2.95,2.43,2.43,0,0,0,.13.54,2.9,2.9,0,0,0,1.4,1.66,15.41,15.41,0,0,1-.29,3.46,53.69,53.69,0,0,1-3.74,10.48c-1.71,3.48-3.45,5.28-5,5.53-.84.14-1.41-.67-1.71-2.48a28.29,28.29,0,0,1,.23-8.8,31.3,31.3,0,0,1,1.72-6.77C403.62,89.4,408.29,85,414.38,84l.17,0a20.38,20.38,0,0,1,4.51-.14h.09a18.27,18.27,0,0,0-1.91-2.93c-2.94-3.62-6.26-5.14-10-4.52-4.16.69-8.14,3.81-11.77,9.51A27.36,27.36,0,0,0,392.07,93c-.4,1.33-.72,2.59-1,3.83A4.12,4.12,0,0,1,386.77,95c-1.12-2.62-2.48-3.78-4.12-3.51s-3.72,1.79-6.46,4.54a5,5,0,0,0-.55,2.94,2.56,2.56,0,0,0,.13.54,3,3,0,0,0,1.4,1.67,15.48,15.48,0,0,1-.29,3.46,53.61,53.61,0,0,1-3.74,10.47c-1.71,3.49-3.45,5.29-5,5.54-.84.14-1.41-.68-1.71-2.48a28.35,28.35,0,0,1,.23-8.81,32,32,0,0,1,1.72-6.77c3.11-7.82,7.78-12.22,13.87-13.24l.17,0a20.4,20.4,0,0,1,4.51-.14h.09a18.73,18.73,0,0,0-1.91-2.93c-2.94-3.61-6.26-5.14-10-4.52-4.16.69-8.14,3.81-11.77,9.51A27.61,27.61,0,0,0,360,98.33c-2.12,7-2.75,12.82-2,17.32a17.78,17.78,0,0,0,.75,2.94l.76.77v1c.17.33.33.66.52,1a3.78,3.78,0,0,0,1.35,1.59c2.93,1.8,5,2.84,6.25,3.07a5.21,5.21,0,0,0,3,.49c4.75-.79,9-4.86,12.42-12.35a39.15,39.15,0,0,0,3-9c0-.08-.2-.18-.57-.34a11.24,11.24,0,0,1-2.78-2.91v0a15.24,15.24,0,0,0,2,1,6.57,6.57,0,0,0,3.83.4,10.49,10.49,0,0,0,1.49-.38,27.39,27.39,0,0,0,.09,7.51,16.28,16.28,0,0,0,2,5.71,3.77,3.77,0,0,0,1.34,1.59c2.94,1.8,5,2.84,6.26,3.06a5.22,5.22,0,0,0,3,.5c4.75-.79,8.95-4.86,12.42-12.35a39.15,39.15,0,0,0,3-9c0-.09-.21-.19-.57-.34a11.24,11.24,0,0,1-2.78-2.91v0a15.94,15.94,0,0,0,2,1,6.65,6.65,0,0,0,3.83.4,9.37,9.37,0,0,0,2-.56,31.63,31.63,0,0,0-.11,9.49c.59,3.49,1.92,6.08,4.06,7.76,2.3,1.38,4.26,2,5.81,1.71l.25,0a4.52,4.52,0,0,0,3.17-2.52q3-7.19,4.21-10.29H440v.13a17.31,17.31,0,0,0,1.94,5.64,9.92,9.92,0,0,0,3.49,3.29L460.94,97C461.77,94.29,462.13,92.26,461.91,91Zm-20.1-3.14a130,130,0,0,1-7,15.81,55.53,55.53,0,0,1-3.76,6.2c-.13,0-.26-.22-.33-.68-.39-2.31.06-6.89,1.88-13.63,2.23-8.19,5.19-12.48,8.26-13a4.57,4.57,0,0,1,2.51.32h.05C442.78,85.05,442.18,86.66,441.81,87.81Z" transform="translate(-128.33 -48.8)"/><path class="cls-3" d="M357.9,106.37c.38-.06.42-.85.17-2.32a24.33,24.33,0,0,0-2.29-6.53,77,77,0,0,1-12.7,5.42l8.14,8.14a19.75,19.75,0,0,0,2.33-1.22A19.32,19.32,0,0,0,357.9,106.37Z" transform="translate(-128.33 -48.8)"/><path class="cls-4" d="M317.86,77.72l8.58,8.57A41.14,41.14,0,0,1,340.86,69.1a20.9,20.9,0,0,1,7.32-3.28c.67-.11,1.08.25,1.21,1.05a3.35,3.35,0,0,1,.08.72,16.61,16.61,0,0,1-.71,3.57,38.76,38.76,0,0,1-4.42,11.07,49.78,49.78,0,0,1-5.25,8.21c-2.23,3-3.4,4.5-3.36,4.75a19.84,19.84,0,0,0,2.35-.17c4.84-.81,9.71-3.69,14.24-9,5.93-7,8.29-13,7.48-17.87-.63-3.83-3.54-7-8.83-9-4.93-1.82-8.55-2.3-10.69-1.94a15.74,15.74,0,0,0-3.14.87c-4,1.43-7.83,4.37-11.68,8.5a46.9,46.9,0,0,0-4.39,5.83C319.84,74.32,318.78,76.06,317.86,77.72Z" transform="translate(-128.33 -48.8)"/><path class="cls-5" d="M326.75,75.37s1.2-.9,1.2.81-1.2,11-1.2,12.25-.11,2.85,1.2,2.85,1.73-.73,1.45-2.85-.45-6.61-.47-7.11-.46-7.17-.46-7.17l-.66-.56Z" transform="translate(-128.33 -48.8)"/><path class="cls-6" d="M351.36,95.93a70.81,70.81,0,0,1-21.72,7.62,73.75,73.75,0,0,1-8.94.84s0,.08,0,.09l.53.91c2.22,3.69,4.43,6.09,7,7,1.27.61,4.37.53,9.37-.3l1.26-.21c-3.61,6.6-7.83,10.33-12.67,11.13a14.81,14.81,0,0,1-6.06-.38,19.54,19.54,0,0,1-3-7.75l-.19-1.13A43.65,43.65,0,0,1,318,95.89a54.29,54.29,0,0,1,9-19.48c.4-.44,1.13-1.06,1.48.15.63,2.19-.86,11.29-.86,12.58s.56,2.21,1.41,1.91,0-2.37,0-4.72-.65-12.25.38-12.25,1.21,1.62,1.21,2.61-.48,2.9-.48,3.41.3.7.85.7-.16-3.64-.16-4.36-.25-3.54.38-3.74,1.08-.76,1.53-.31,1.06,9,.75,10.6-.39,3.15.41,3.33.51-2,.21-3.86-.57-7.22-.62-8.6c-.11-3,.26-4.31.54-4.61.78-.61,1.57-1.19,2.4-1.74a20.94,20.94,0,0,1,7.31-3.29c.68-.11,1.08.25,1.22,1.06a3.24,3.24,0,0,1,.08.72,16.61,16.61,0,0,1-.71,3.57,38.43,38.43,0,0,1-4.43,11.06,48.25,48.25,0,0,1-5.24,8.22c-2.22,3-3.4,4.5-3.36,4.75a19.46,19.46,0,0,0,2.35-.18c4.83-.8,9.71-3.68,14.23-9,5.93-7,8.3-13,7.49-17.88-.64-3.83-3.54-7-8.83-8.94a27.42,27.42,0,0,0-9.2-2,15.74,15.74,0,0,0-4.79,1h0a7.94,7.94,0,0,1-.86.39h0c-.57.25-1.13.51-1.68.81v0a8.94,8.94,0,0,0-2.18,1.57,1,1,0,0,1-.68.29A40.77,40.77,0,0,0,321,65.06a45.92,45.92,0,0,0-4.39,5.83,61.38,61.38,0,0,0-5.21,9.21,73.19,73.19,0,0,0-4.2,12.4c-1.94,8.1-2.29,15.11-1.33,20.87.89,5.34,3,9.19,6.38,11.6a33.23,33.23,0,0,0,4.75,3.1,29.42,29.42,0,0,0,6.79,2.41,34.08,34.08,0,0,0,5.16.62,28.67,28.67,0,0,0,7-2.29,21.69,21.69,0,0,0,4.31-2.66,20.2,20.2,0,0,0,5.07-5.34,26.44,26.44,0,0,0,2.87-5.36c-.08-.72-.16-1.22-.21-1.56l-.21-1.22c-.12-.76-.28-1.42-.43-2l-2.63-.26v0a25.91,25.91,0,0,0,4.37-2.06,19.6,19.6,0,0,0,4.35-3.49c.38-.06.41-.85.17-2.32A24.21,24.21,0,0,0,351.36,95.93Z" transform="translate(-128.33 -48.8)"/><path class="cls-6" d="M457.48,89.35l-.06-.33a.79.79,0,0,0-.49-.65h-.09q-8.5,15.87-12.63,17.53c-.13,0-.26-.21-.35-.76q-.64-3.52,2.09-14c2.08-8,3.87-14.65,4.95-19.84,1.86-8.61,2.48-14,2.15-15.95a6.06,6.06,0,0,0-.8-2.21,8.75,8.75,0,0,0-6-2.81,1.11,1.11,0,0,1-.54-.16c-.51,0-1,0-1.6,0-.12,3.13-.34,5.5-.55,7.05-1,6.42-2.12,12.75-3.57,19.08-3.52-2-6.37-2.74-8.61-2.37-1.59.26-3.36,1.33-5.34,3.22a15.84,15.84,0,0,0-2.94,3.6,26.51,26.51,0,0,0-3.33,7.25c-.17.59-.31,1.16-.46,1.74l-.29.07A4.2,4.2,0,0,1,414.44,88c-1.12-2.62-2.49-3.77-4.13-3.5s-3.72,1.78-6.46,4.53A5,5,0,0,0,403.3,92a3.33,3.33,0,0,0,.14.54,2.92,2.92,0,0,0,1.4,1.67,16.19,16.19,0,0,1-.29,3.47,54.13,54.13,0,0,1-3.75,10.47c-1.71,3.48-3.44,5.28-4.95,5.53-.84.14-1.41-.67-1.72-2.48a29,29,0,0,1,.23-8.81,32,32,0,0,1,1.72-6.77c3.11-7.82,7.78-12.22,13.87-13.23l.18,0a20.35,20.35,0,0,1,4.51-.15h.08a17.31,17.31,0,0,0-1.91-2.92,16.92,16.92,0,0,0-1.62-1.73h0a12.58,12.58,0,0,0-9.64-2.48c-3.69,1.08-7.21,4.1-10.46,9.2a27.36,27.36,0,0,0-3.44,7.14c-.4,1.32-.73,2.59-1,3.82a4.08,4.08,0,0,1-4.27-1.86c-1.13-2.63-2.49-3.78-4.13-3.51s-3.72,1.79-6.46,4.54a4.86,4.86,0,0,0-.55,2.94,2.5,2.5,0,0,0,.13.53,2.92,2.92,0,0,0,1.4,1.67,16.08,16.08,0,0,1-.29,3.46,53.33,53.33,0,0,1-3.75,10.48c-1.71,3.48-3.44,5.28-4.95,5.53-.84.14-1.41-.67-1.71-2.48a28.62,28.62,0,0,1,.22-8.81A32,32,0,0,1,364,101c3.11-7.81,7.77-12.22,13.88-13.23l.16,0a20.35,20.35,0,0,1,4.51-.15h.08a18.34,18.34,0,0,0-1.9-2.92c-2.94-3.62-6.26-5.14-10-4.52a14.68,14.68,0,0,0-8.06,4.72s0,0,0,0a2.19,2.19,0,0,1-.62.7v0A32.82,32.82,0,0,0,359,89.6a27.3,27.3,0,0,0-3.43,7.14c-2.12,7.05-2.76,12.81-2,17.31a16.14,16.14,0,0,0,2,5.71,3.81,3.81,0,0,0,1.34,1.6c2.94,1.8,5,2.84,6.26,3.06a5.21,5.21,0,0,0,2.71.52l0,0,1.47-.16s3.08.09,2.63,2.86-.44,3.93.56,4.94,1.41-.66,1-3.4-1.69-5-1-5.72,2-.92,2,1.16-.12,2.06.61,2.79,1.57-.37.91-2.54c-.46-1.52-1.11-2.74-1.23-3.6a29.26,29.26,0,0,0,5.79-8.73,39.31,39.31,0,0,0,3-9c0-.09-.2-.19-.58-.34a11.54,11.54,0,0,1-2.77-2.91v0a14.84,14.84,0,0,0,2,1,6.64,6.64,0,0,0,3.83.4,10.49,10.49,0,0,0,1.49-.38,27.32,27.32,0,0,0,.09,7.5,16.33,16.33,0,0,0,2,5.71A3.78,3.78,0,0,0,389,116c2.93,1.81,5,2.85,6.25,3.07a5.15,5.15,0,0,0,3,.49c4.75-.79,8.95-4.86,12.42-12.35a40,40,0,0,0,3-9c0-.08-.21-.18-.58-.33a11.2,11.2,0,0,1-2.77-2.91v0a14.08,14.08,0,0,0,2,1,6.45,6.45,0,0,0,3.82.4,9.61,9.61,0,0,0,2-.55,31.31,31.31,0,0,0-.11,9.49,12.56,12.56,0,0,0,3.2,7h0a7.08,7.08,0,0,0,.7.64,4.35,4.35,0,0,1,1.2,3c0,2.33.47,10.75.47,12.72s-.75,5.29-.75,6.64,0,4.77,1.69,4.77,1-4.08,0-7-.66-15.62-.66-16.55.08-2.21.66-1.63.68,3.31.68,6.21-1.29,5.38-.4,6.27,2.43.37,1.69-3.37a35,35,0,0,1-.85-7.21,2.06,2.06,0,0,1,1.05-1.9l0,0a4.67,4.67,0,0,0,1.19,0l.25,0a4.53,4.53,0,0,0,3.17-2.51c2-4.79,3.43-8.22,4.21-10.3h0l0,.12a17.14,17.14,0,0,0,1.93,5.64q3.17,4.53,7.13,3.88l.25,0a9.34,9.34,0,0,0,4.87-2.71,14.87,14.87,0,0,0,3.41-4.67C456.34,96.76,457.9,91.83,457.48,89.35Zm-20.09-3.14a128.68,128.68,0,0,1-7,15.81,56.15,56.15,0,0,1-3.76,6.2c-.13,0-.25-.21-.33-.68-.39-2.31.06-6.88,1.88-13.62,2.23-8.19,5.18-12.48,8.25-13a4.59,4.59,0,0,1,2.52.31h0C438.36,83.46,437.76,85.07,437.39,86.21Z" transform="translate(-128.33 -48.8)"/><path class="cls-7" d="M365.61,117.62c1.52-.26,3.25-2.06,5-5.54a54.56,54.56,0,0,0,3.75-10.47,16.11,16.11,0,0,0,.29-3.46,3,3,0,0,1-1.4-1.67,3.61,3.61,0,0,1-.14-.54,5,5,0,0,1,.55-2.94c2.45-2.45,4.44-3.93,5.94-4.4a2.56,2.56,0,0,0-1.35-.13c-1.55.25-3.72,1.78-6.46,4.53a5,5,0,0,0-.55,2.94,2.69,2.69,0,0,0,.14.54,3,3,0,0,0,1.4,1.67,15.7,15.7,0,0,1-.3,3.46,53.19,53.19,0,0,1-3.74,10.47c-1.37,2.78-2.74,4.47-4,5.17A1,1,0,0,0,365.61,117.62Z" transform="translate(-128.33 -48.8)"/><path class="cls-7" d="M382.09,99.8a15.9,15.9,0,0,1-2-1v0a10.83,10.83,0,0,0,.95,1.23,6.77,6.77,0,0,0,2.6.14A6.15,6.15,0,0,1,382.09,99.8Z" transform="translate(-128.33 -48.8)"/><path class="cls-7" d="M413.76,80.8h.95s0,0,0,0Z" transform="translate(-128.33 -48.8)"/><path class="cls-7" d="M381.67,86.13c.29,0,.56,0,.87,0h.08s0,0,0,0Z" transform="translate(-128.33 -48.8)"/><path class="cls-7" d="M345.61,62.82c-.31.06-.66.15-1,.24a1.56,1.56,0,0,1,.36.82,2.74,2.74,0,0,1,.08.72,16.82,16.82,0,0,1-.7,3.57,38.72,38.72,0,0,1-4.43,11.06,49.66,49.66,0,0,1-5.24,8.22c-2.23,3-3.4,4.5-3.37,4.75.75,0,1.41-.06,1.91-.11a46.18,46.18,0,0,1,3.32-4.64,49.27,49.27,0,0,0,5.25-8.22,38.72,38.72,0,0,0,4.43-11.06,16.82,16.82,0,0,0,.7-3.57,2.74,2.74,0,0,0-.08-.72C346.69,63.08,346.29,62.71,345.61,62.82Z" transform="translate(-128.33 -48.8)"/><path class="cls-7" d="M351.34,94.53a70.76,70.76,0,0,1-21.71,7.62,72.16,72.16,0,0,1-8.94.84c0,.05,0,.09,0,.1l.54.9c2.22,3.69,4.43,6.09,7,7a8.9,8.9,0,0,0,3.71.36,5.45,5.45,0,0,1-1.84-.36c-2.57-.92-4.78-3.32-7-7l-.54-.9c.05,0,0,0,0-.1a72,72,0,0,0,8.94-.84,69.49,69.49,0,0,0,20.2-6.85C351.58,95.05,351.48,94.8,351.34,94.53Z" transform="translate(-128.33 -48.8)"/><path class="cls-7" d="M328,121.62c4.84-.81,9.06-4.54,12.67-11.14l-1.26.21-.81.12c-3.57,6.4-7.72,10-12.47,10.81-.37.06-.75.09-1.14.12A13.58,13.58,0,0,0,328,121.62Z" transform="translate(-128.33 -48.8)"/><path class="cls-7" d="M440.84,79.84h0a4.69,4.69,0,0,0-2.52-.31l-.23.06a6.16,6.16,0,0,1,.88.25h0c-.63,2.22-1.22,3.83-1.59,5a129.36,129.36,0,0,1-7,15.82c-.61,1.16-1.38,2.53-2.34,4a12.3,12.3,0,0,0,.11,1.48c.08.46.2.7.33.68a54.33,54.33,0,0,0,3.77-6.2,129.36,129.36,0,0,0,7-15.82C439.62,83.67,440.21,82.06,440.84,79.84Z" transform="translate(-128.33 -48.8)"/><path class="cls-7" d="M365.05,123c-1.25-.23-3.33-1.27-6.26-3.07a3.92,3.92,0,0,1-1.35-1.59,16.41,16.41,0,0,1-2-5.71c-.74-4.51-.1-10.27,2-17.32a27.51,27.51,0,0,1,3.44-7.14c3.63-5.7,7.6-8.82,11.76-9.51a6,6,0,0,1,.72-.07,9,9,0,0,0-2.59.07c-4.16.69-8.13,3.81-11.76,9.51a27.51,27.51,0,0,0-3.44,7.14c-.29,1-.55,1.94-.8,2.87a54.63,54.63,0,0,0-1.29,6.93,27.47,27.47,0,0,0,.09,7.52,16.2,16.2,0,0,0,2,5.71,3.92,3.92,0,0,0,1.35,1.59c2.93,1.8,5,2.84,6.25,3.07a5.29,5.29,0,0,0,3,.49l.2,0A6.35,6.35,0,0,1,365.05,123Z" transform="translate(-128.33 -48.8)"/><path class="cls-7" d="M325.69,129.09a29.48,29.48,0,0,1-6.8-2.41,35.71,35.71,0,0,1-4.75-3.1c-3.38-2.42-5.49-6.26-6.38-11.6-.95-5.76-.61-12.78,1.33-20.88a74.08,74.08,0,0,1,4.2-12.4,62,62,0,0,1,5.22-9.21,45.92,45.92,0,0,1,4.39-5.83c3.84-4.14,7.72-7.07,11.67-8.5a16.11,16.11,0,0,1,3.14-.87,5.11,5.11,0,0,1,.59-.06,10.75,10.75,0,0,0-2.46.06,15.92,15.92,0,0,0-3.14.87c-3.95,1.43-7.83,4.36-11.68,8.5a47.92,47.92,0,0,0-4.39,5.83,62.79,62.79,0,0,0-5.21,9.21,73.19,73.19,0,0,0-4.2,12.4c-1.94,8.1-2.29,15.12-1.33,20.88.89,5.34,3,9.18,6.38,11.6a35.07,35.07,0,0,0,4.75,3.1,29.48,29.48,0,0,0,6.8,2.41,33.84,33.84,0,0,0,5.15.61c.17,0,.36-.07.54-.11A34.75,34.75,0,0,1,325.69,129.09Z" transform="translate(-128.33 -48.8)"/><path class="cls-7" d="M397.13,117.69c-1.24-.22-3.32-1.26-6.25-3.06a3.92,3.92,0,0,1-1.35-1.59,16.41,16.41,0,0,1-2-5.71,28.21,28.21,0,0,1-.09-7.51,9.3,9.3,0,0,1-1.49.38l-.41,0a27.11,27.11,0,0,0,.12,7.09,16.21,16.21,0,0,0,2,5.71,3.91,3.91,0,0,0,1.34,1.59c2.94,1.8,5,2.84,6.26,3.06a5.22,5.22,0,0,0,3,.5l.2-.06A5.06,5.06,0,0,1,397.13,117.69Z" transform="translate(-128.33 -48.8)"/><path class="cls-7" d="M439.38,106.18a17.28,17.28,0,0,1-1.93-5.65l0-.12h0c-.29.77-.67,1.72-1.13,2.87a15.74,15.74,0,0,0,1.25,2.89q3.14,4.48,7.06,3.87Q441.75,109.57,439.38,106.18Z" transform="translate(-128.33 -48.8)"/><path class="cls-7" d="M424,111.55c-2.14-1.67-3.48-4.26-4.06-7.75a31,31,0,0,1,.11-9.49,9.59,9.59,0,0,1-1.94.54,30.85,30.85,0,0,0,0,9c.58,3.49,1.92,6.08,4.05,7.75,2.31,1.39,4.26,2,5.82,1.71l.24,0A11.4,11.4,0,0,1,424,111.55Z" transform="translate(-128.33 -48.8)"/><path class="cls-7" d="M386.65,93.71a5,5,0,0,0,1.84.12c.29-1.23.62-2.5,1-3.82A27,27,0,0,1,393,82.87c3.63-5.7,7.6-8.82,11.76-9.51a6.08,6.08,0,0,1,.71-.07,9,9,0,0,0-2.58.07c-4.16.69-8.13,3.81-11.77,9.51A27.3,27.3,0,0,0,387.64,90C387.25,91.29,386.94,92.51,386.65,93.71Z" transform="translate(-128.33 -48.8)"/><path class="cls-7" d="M420.92,88.46a2.29,2.29,0,0,0,.28-.07l.46-1.74A26.76,26.76,0,0,1,425,79.41a15.69,15.69,0,0,1,2.95-3.61c2-1.88,3.75-3,5.34-3.22h.22a7.67,7.67,0,0,0-2.09,0c-1.6.27-3.37,1.34-5.34,3.22a15.42,15.42,0,0,0-2.95,3.61,26.76,26.76,0,0,0-3.33,7.24c-.16.6-.31,1.17-.45,1.74-.1,0-.2.06-.29.07H419A5.56,5.56,0,0,0,420.92,88.46Z" transform="translate(-128.33 -48.8)"/><path class="cls-7" d="M445.46,55.87c.21-1.55.42-3.92.55-7h.14c-.62,0-1.28,0-2,0-.13,3.13-.34,5.5-.56,7-.92,6.13-2,12.17-3.38,18.22.54.26,1.11.54,1.69.86C443.34,68.62,444.49,62.29,445.46,55.87Z" transform="translate(-128.33 -48.8)"/><path class="cls-7" d="M397.7,112.28c1.52-.25,3.25-2,5-5.53a54.56,54.56,0,0,0,3.75-10.47,15.88,15.88,0,0,0,.28-3.46,3,3,0,0,1-1.4-1.67,3.4,3.4,0,0,1-.13-.54,5,5,0,0,1,.55-3c2.44-2.44,4.43-3.92,5.93-4.39a2.52,2.52,0,0,0-1.34-.13c-1.55.25-3.72,1.78-6.46,4.52a5,5,0,0,0-.55,3,5,5,0,0,0,.13.54,3,3,0,0,0,1.4,1.67,15.88,15.88,0,0,1-.28,3.46,54.56,54.56,0,0,1-3.75,10.47c-1.37,2.78-2.74,4.47-4,5.17A1,1,0,0,0,397.7,112.28Z" transform="translate(-128.33 -48.8)"/><path class="cls-7" d="M414.18,94.47a15.24,15.24,0,0,1-2-1v0a10.83,10.83,0,0,0,.95,1.23,6.76,6.76,0,0,0,2.6.13A5.67,5.67,0,0,1,414.18,94.47Z" transform="translate(-128.33 -48.8)"/><path class="cls-7" d="M457.47,88l-.06-.33a.81.81,0,0,0-.49-.65h-.09q-7.09,13.22-11.13,16.56c0,.07,0,.14,0,.2.09.55.21.79.34.77q3.84-1.55,11.45-15.35A5.24,5.24,0,0,0,457.47,88Z" transform="translate(-128.33 -48.8)"/><path class="cls-8" d="M358.48,97a40.25,40.25,0,0,0-1.1,15.18c.91,6.06,3.28,7.11,3.28,7.11s-2.13-1.53-2.78-7.9,1.79-13.16,2.15-14.29S359,94.53,358.48,97Z" transform="translate(-128.33 -48.8)"/><path class="cls-9" d="M392.63,88.26a40.45,40.45,0,0,0-3.08,14.9c.1,6.14,2.32,7.48,2.32,7.48s-1.91-1.8-1.72-8.2,3.5-12.81,4-13.87S393.51,85.86,392.63,88.26Z" transform="translate(-128.33 -48.8)"/><path class="cls-10" d="M423.19,134.31s0,3.56,1.27,3.56.51-3.1,0-4.36.81,3.36,0,3.61S423.19,134.31,423.19,134.31Z" transform="translate(-128.33 -48.8)"/><path class="cls-11" d="M426,121.94s.7,3.13-.26,3.67-.91-1.26-.91-1.26.37,1.4.71.56A13.23,13.23,0,0,0,426,121.94Z" transform="translate(-128.33 -48.8)"/><path class="cls-12" d="M370.05,127.86s.14,3,.91,3.11.19-3.25.19-3.25.27,2.63-.16,2.73S370.05,127.86,370.05,127.86Z" transform="translate(-128.33 -48.8)"/><path class="cls-13" d="M346.15,112.3s1.38,3.43-3.07,7.88-11.81,8-13.58,8h-3.65s3.27.28,9.07-3.18S343.23,109.38,346.15,112.3Z" transform="translate(-128.33 -48.8)"/><path class="cls-14" d="M334.82,57.61a32.33,32.33,0,0,0-15.59,14C313.1,82.27,313,84.15,313,84.15s5.3-10.54,12.17-16.17,12.05-7.1,13-8S339.24,56.06,334.82,57.61Z" transform="translate(-128.33 -48.8)"/><path class="cls-15" d="M353,64a10.38,10.38,0,0,1,0,7.8c-1.69,4.3-6.63,10.62-6.63,10.62s5-8.5,5.35-11.44S350.5,62.26,353,64Z" transform="translate(-128.33 -48.8)"/><path class="cls-16" d="M451.61,55s-2.2,14.68-4.33,23.59l-2.12,8.91S450,56.58,450,54.19,451.61,53.28,451.61,55Z" transform="translate(-128.33 -48.8)"/><path class="cls-17" d="M311.31,88.38s-4.37,11.6-1.49,24,7.36,9.55,7.36,9.55-1.75-1.52-3-2.65S306.7,108.75,311.31,88.38Z" transform="translate(-128.33 -48.8)"/><path class="cls-18" d="M138.39,103.35a12.53,12.53,0,0,0,3.22.86,25.93,25.93,0,0,0,4.14,0v0a18.88,18.88,0,0,1-1.87-5.52c-.79-4.75-.27-10.5,1.74-17.1a51.69,51.69,0,0,1,3.19-7.84A28.41,28.41,0,0,1,154.22,66c1.94-1.88,3.56-2.8,4.69-3H159v.08a14.29,14.29,0,0,1-.08,3.94c-.89,6.89-1.95,14.54-3.11,22.9a23.88,23.88,0,0,0-.36,6.41,9.33,9.33,0,0,0,3.31,5.85c2.66,2.23,5,3.1,6.85,2.79q4.11-.69,7.64-7.88l-.44,1.76a51.8,51.8,0,0,1-3.61,9.76,32.31,32.31,0,0,1-3.1,5.22,21.48,21.48,0,0,1-14.31,8.82,32.07,32.07,0,0,1-6.86.32v.09c6.15,5.23,11.53,7.5,16.11,6.73,5.8-1,10.78-6.93,15-17.83a151.48,151.48,0,0,0,6.33-22.18,214.78,214.78,0,0,0,3.5-21.88s-.06-.08-.19-.1a9.9,9.9,0,0,1-3.08-.57v-.09a5.23,5.23,0,0,0,1.33-.56,7.12,7.12,0,0,0,3.67-3.89,25.07,25.07,0,0,0,1-5.75v0h0a26.38,26.38,0,0,1-10.93,4.72,26.79,26.79,0,0,1-3.74.32h-.09a23.28,23.28,0,0,0,.17,4.68c0,.21.09.55.22,1s.85.72,2.32,1c-.37,1.22-.79,2.81-1.39,4.68a137.19,137.19,0,0,1-7.82,19,28.62,28.62,0,0,1-3,4.83h0c-.12-.71.1-3,.81-6.82,1.3-7,2.48-12.87,3.09-17.76a43.37,43.37,0,0,0,.6-8.35l0-.13a6,6,0,0,0-2.42-3.36A32.86,32.86,0,0,0,160,57.27L138.39,78.9Z" transform="translate(-128.33 -48.8)"/><path class="cls-19" d="M268.68,95.49a52.49,52.49,0,0,1,4.07-6.5L260.06,76.3q-1.17,6.61-2.2,13.48c-.2.35-.46.82-.79,1.47-6,11.4-10.27,17.48-12.77,18-.55.14-1-.48-1.17-1.79-.77-4.67,1-14,5.41-27.77a5.8,5.8,0,0,0,.66-2.57,6.16,6.16,0,0,0-1-2.52c-1.38-2.06-4.38-2.69-9-1.92h0c-.62,2.78-1.31,5.36-2,7.67a107.12,107.12,0,0,1-6,15.42A133.88,133.88,0,0,1,224,109a21.22,21.22,0,0,1,.42-5.51c.86-5.46,3-12.91,6.29-22.48A6.6,6.6,0,0,0,229,79.11v.48a8.57,8.57,0,0,1-11.43,8.11c-.61,2.31-1.08,4.52-1.48,6.67h-.06a4.21,4.21,0,0,1-4.63-1.82c-1.12-2.62-2.48-3.78-4.12-3.5s-3.72,1.78-6.46,4.53a5,5,0,0,0-.55,2.94,2.43,2.43,0,0,0,.13.54,3,3,0,0,0,1.4,1.67,15.88,15.88,0,0,1-.28,3.46,54.65,54.65,0,0,1-3.75,10.48c-1.71,3.47-3.45,5.28-5,5.53-.84.14-1.41-.68-1.71-2.48a28.93,28.93,0,0,1,.22-8.81,33.28,33.28,0,0,1,1.73-6.77c3.11-7.82,7.78-12.23,13.88-13.24l.16,0a21.15,21.15,0,0,1,4.52-.14l.08,0a18.85,18.85,0,0,0-1.91-2.92c-2.94-3.62-6.26-5.14-10-4.52-4.16.69-8.13,3.81-11.76,9.51a27.67,27.67,0,0,0-3.44,7.14c-2.11,7-2.75,12.82-2,17.32a16.21,16.21,0,0,0,2,5.71,3.78,3.78,0,0,0,1.35,1.59c2.93,1.8,5,2.84,6.25,3.07a5.21,5.21,0,0,0,3,.49c4.75-.79,9-4.86,12.42-12.35a39.15,39.15,0,0,0,3-9.05c0-.09-.2-.18-.57-.34a10.89,10.89,0,0,1-2.77-2.91v0a13.57,13.57,0,0,0,2,1,6.53,6.53,0,0,0,3.82.4,8.93,8.93,0,0,0,2.12-.62,47,47,0,0,0,.24,12.41l.16,1c.09.5.21,1.22.4,2.14,3,2.79,5.68,4,8.07,3.58,2.95-.49,6.21-6.08,9.82-16.84h0v0a18.21,18.21,0,0,0,.25,3.89c.8,4.75,3.31,7.65,7.49,8.65a17.63,17.63,0,0,0,4.25.33c1.07-.57,1.86-1,2.41-1.36,3.63-2.4,6.15-6.33,7.71-11.65-.28,2.17-.56,4.33-.82,6.54l0,.17q2.32,4.67,6.11,4a8.86,8.86,0,0,0,2.6-1c.89-4.51,1.86-8.86,2.94-13.06C266.93,98.46,267.47,97.3,268.68,95.49Z" transform="translate(-128.33 -48.8)"/><path class="cls-6" d="M156.6,128.21c.25,0,.5-.11.75-.17,0,0,0,0,0,0a2.08,2.08,0,0,1,.86-.28c.14,0,.15,0,0,.05a2.58,2.58,0,0,1,.46-.18h0a14.51,14.51,0,0,0,5.35-3.9,10,10,0,0,1-.44,3c-.41,1.58.31,2.64.82,2.12s0-2.39,0-3.62a7.34,7.34,0,0,1,.44-2.35,1.36,1.36,0,0,1,.06-.16c.19-.22.38-.46.56-.71a.34.34,0,0,1,.37.11c.52.53-.47,5.71-.88,8.79s.36,4.55,1.35,3.56.16-2.74-.39-6,1.18-8.81,1.18-8.81h0a56.18,56.18,0,0,0,4.49-9.24A151.31,151.31,0,0,0,178,88.2a215.24,215.24,0,0,0,3.5-21.88s-.06-.08-.19-.11a9.76,9.76,0,0,1-3.08-.56v-.09A6.14,6.14,0,0,0,179.5,65a7.09,7.09,0,0,0,3.67-3.89,25,25,0,0,0,1-5.75l0,0h0A26.26,26.26,0,0,1,173.23,60a24.08,24.08,0,0,1-3.75.32l-.09,0a24,24,0,0,0,.18,4.68,9.51,9.51,0,0,0,.22,1c.06.38.85.72,2.31,1-.35,1.23-.78,2.81-1.38,4.68a139.06,139.06,0,0,1-7.82,19,28.42,28.42,0,0,1-3.05,4.82h0c-.13-.72.1-3,.8-6.83,1.31-7,2.49-12.86,3.1-17.75a43.46,43.46,0,0,0,.6-8.36l0-.12a6,6,0,0,0-2.41-3.36c-4.72-3.15-8.28-4.55-10.72-4.14a3.27,3.27,0,0,1-.5.12c-2.61.65-5.82,3.44-9.73,7.76a55.42,55.42,0,0,0-5,6.93,57.13,57.13,0,0,0-4.14,7.85c-2.88,6.84-3.94,12.41-3.22,16.74a10.57,10.57,0,0,0,1.6,4.24.76.76,0,0,1,.14.11c1.86,2.33,5.25,2.69,7.79,4.09a5.06,5.06,0,0,1,.59-.15,19.11,19.11,0,0,0,2.64-.08v0A18.93,18.93,0,0,1,139.45,97c-.79-4.75-.27-10.49,1.74-17.09a51.27,51.27,0,0,1,3.19-7.84,28.41,28.41,0,0,1,5.42-7.68c1.94-1.88,3.56-2.79,4.69-3h0l0,.09a14.4,14.4,0,0,1-.09,3.94c-.87,6.89-1.94,14.54-3.1,22.9a24.31,24.31,0,0,0-.36,6.41,9.22,9.22,0,0,0,3.31,5.84c2.66,2.24,5,3.11,6.85,2.79q4.11-.67,7.64-7.87l-.44,1.76a52,52,0,0,1-3.61,9.75,32.21,32.21,0,0,1-3.11,5.23,21.43,21.43,0,0,1-14.3,8.82,32.84,32.84,0,0,1-6.87.32l0,.08C146.63,126.71,152,129,156.6,128.21Z" transform="translate(-128.33 -48.8)"/><path class="cls-6" d="M287.86,66.69a4.31,4.31,0,0,0-1-2.13A5.8,5.8,0,0,0,282.07,63l-.54.09c-2.15.36-4.65,2.2-7.23,5.69a156.15,156.15,0,0,0-8.73,14.5c1.36-6.1,1.94-9.87,1.84-11.28-.35-2.1-1.87-3.44-4.56-4a18.27,18.27,0,0,0-5.87-.28l-.09,0c-1.26,6.58-2.41,13.4-3.45,20.41-.2.34-.47.82-.79,1.46-6,11.42-10.27,17.48-12.78,18-.54.13-.94-.49-1.16-1.8-.78-4.66,1-13.94,5.41-27.77a5.69,5.69,0,0,0,.65-2.57,6.08,6.08,0,0,0-1-2.52c-1.38-2.06-4.38-2.68-9-1.91h0c-.62,2.78-1.32,5.35-2,7.67a107.32,107.32,0,0,1-5.95,15.42,134.09,134.09,0,0,1-7.27,13.22,21.5,21.5,0,0,1,.43-5.52c.86-5.46,3-12.91,6.29-22.47A7.81,7.81,0,0,0,222,76.07a15.21,15.21,0,0,0-5.4-.52h-.08a106.36,106.36,0,0,0-4.82,17.22h-.06A4.21,4.21,0,0,1,207,91c-1.13-2.62-2.48-3.78-4.12-3.51s-3.72,1.79-6.47,4.53a5.05,5.05,0,0,0-.54,3,3.67,3.67,0,0,0,.13.54,2.93,2.93,0,0,0,1.4,1.66,15.17,15.17,0,0,1-.28,3.46,54.65,54.65,0,0,1-3.75,10.48c-1.72,3.48-3.45,5.28-5,5.53-.84.14-1.41-.67-1.71-2.48a28.62,28.62,0,0,1,.22-8.81,32.63,32.63,0,0,1,1.73-6.77c3.1-7.82,7.77-12.22,13.88-13.23l.16,0a20.42,20.42,0,0,1,4.52-.15h.08a18.63,18.63,0,0,0-1.91-2.92c-2.94-3.62-6.26-5.14-10-4.52-4.16.69-8.13,3.81-11.77,9.51a27.69,27.69,0,0,0-3.44,7.14c-2.1,7-2.75,12.81-2,17.31a16.14,16.14,0,0,0,2,5.71,4.57,4.57,0,0,0,1.14,1.46c.57,1,3.2,5.94,3.2,8.22a14.58,14.58,0,0,1-.91,5.58c-.55,1.37,1.64,4.2,2.46,1.55s-.82-7.13-.82-9,.35-4.18,1.06-3.47.86,3,.86,4.48,1.23,1.87,1.65,1.46,0-1.92-.68-3.38-.29-1.75.93-1.75h0a4.74,4.74,0,0,0,1.71.05c2.86-.47,5.53-2.17,8-5.06.7-1.12,1.37-2.24,2-3.37s1.83-2.38,2.2-3.73a1,1,0,0,1,.38-.55,39.28,39.28,0,0,0,2.83-8.69c0-.08-.2-.18-.57-.33A11,11,0,0,1,203,97.87v-.05a16.16,16.16,0,0,0,2,1,6.65,6.65,0,0,0,3.83.4,10.14,10.14,0,0,0,2.12-.62,47.48,47.48,0,0,0,.23,12.41l.17,1c.06.38.16.92.28,1.54.54,1.07,1.65,1.34,2.52,2.1a8.87,8.87,0,0,1,.86,1,7.25,7.25,0,0,0,4.81,1.1q4.41-.73,9.82-16.84h0v0a17.62,17.62,0,0,0,.26,3.89c.79,4.76,3.3,7.66,7.48,8.65a17.06,17.06,0,0,0,4.24.33c1.08-.56,1.87-1,2.42-1.35,3.63-2.4,6.15-6.34,7.71-11.66-.28,2.17-.57,4.33-.82,6.54l0,.17a10.77,10.77,0,0,0,1.11,1.79c1.19.59,2.52.93,3.7,1.55A12.26,12.26,0,0,1,257.5,112a24.52,24.52,0,0,1,2.14-1.45q1.32-6.78,2.92-13.06c-.06-.6.48-1.77,1.7-3.57,1.21-2.58,4.3-6.89,8.79-13.12l-.07.35c-.62,3.26-1.11,5.32-.91,6.46a4.67,4.67,0,0,0,.8,2l-.12,0a42.4,42.4,0,0,1,2.1,11.77c0,5.65-2.1,11.5-2.1,13.51s.45,2.74,2.1,2.74,1-2,.55-4.34,0-9,0-10.71-.46-7.8-.46-8.62-.06-2,1-.93.68,4.18.68,5.25,0,1.9.82,1.9,0-1.74,0-3S276.59,93,277,93s1.19-.92,1.19,0-.64,1.84,0,2.49,1.37.08,1-1.19a21.76,21.76,0,0,1-.74-2.22,23.4,23.4,0,0,0,2.77.17l.34-3.43a48.39,48.39,0,0,1,4.38-15.21C287.37,70.49,288.12,68.2,287.86,66.69Z" transform="translate(-128.33 -48.8)"/><path class="cls-7" d="M210.81,97.75a46.58,46.58,0,0,0,.27,11.84l.17,1c.08.51.2,1.22.4,2.14,3,2.79,5.67,4,8.06,3.58h0q-2.86-.45-6.2-3.58c-.2-.92-.32-1.63-.4-2.14l-.17-1a47.47,47.47,0,0,1-.23-12.41A9.56,9.56,0,0,1,210.81,97.75Z" transform="translate(-128.33 -48.8)"/><path class="cls-7" d="M231.71,103.41a19,19,0,0,1-.26-3.9v0h0c-.5,1.51-1,2.91-1.49,4.21.84,4.58,3.32,7.4,7.41,8.37a17.63,17.63,0,0,0,4.25.33l.05,0a13.35,13.35,0,0,1-2.42-.3C235,111.06,232.5,108.16,231.71,103.41Z" transform="translate(-128.33 -48.8)"/><path class="cls-7" d="M206.34,83.73c.3,0,.56,0,.87,0l.08,0a0,0,0,0,0,0,0Z" transform="translate(-128.33 -48.8)"/><path class="cls-7" d="M205.75,97.7a6.77,6.77,0,0,0,2.6.14,5.86,5.86,0,0,1-1.58-.44,15.28,15.28,0,0,1-2-1v0A12.11,12.11,0,0,0,205.75,97.7Z" transform="translate(-128.33 -48.8)"/><path class="cls-7" d="M152.86,93.35a23.79,23.79,0,0,1,.35-6.41c1.17-8.36,2.23-16,3.11-22.9a13.89,13.89,0,0,0,.08-3.94V60h0a5.66,5.66,0,0,0-1.75.69,16.3,16.3,0,0,1-.14,3.33c-.9,6.89-2,14.54-3.12,22.9a24.31,24.31,0,0,0-.36,6.41,9.31,9.31,0,0,0,3.31,5.84c2.66,2.24,5,3.11,6.86,2.8l.14,0a11.43,11.43,0,0,1-5.13-2.76A9.25,9.25,0,0,1,152.86,93.35Z" transform="translate(-128.33 -48.8)"/><path class="cls-7" d="M267.42,81.92a156.27,156.27,0,0,1,8.74-14.51c2.57-3.49,5.08-5.33,7.22-5.69l.38-.06a5.43,5.43,0,0,0-1.71,0l-.54.09c-2.15.36-4.64,2.2-7.22,5.69-1.77,2.45-6.62,10.82-8.72,14.5C265.28,83.42,266,83.31,267.42,81.92Z" transform="translate(-128.33 -48.8)"/><path class="cls-7" d="M164.73,105.63a31.79,31.79,0,0,1-3.11,5.22,21.37,21.37,0,0,1-14.3,8.82,27.68,27.68,0,0,1-3.94.34,30.74,30.74,0,0,0,5.81-.34,21.42,21.42,0,0,0,14.31-8.82,32.54,32.54,0,0,0,3.11-5.22,51.81,51.81,0,0,0,3.6-9.76l.44-1.76a23,23,0,0,1-3.32,5.17A59.12,59.12,0,0,1,164.73,105.63Z" transform="translate(-128.33 -48.8)"/><path class="cls-7" d="M190.29,115.21c1.51-.25,3.24-2,5-5.53A53.9,53.9,0,0,0,199,99.21a16.11,16.11,0,0,0,.29-3.46,2.92,2.92,0,0,1-1.4-1.67,4,4,0,0,1-.14-.54,5,5,0,0,1,.56-2.94c2.44-2.46,4.42-3.92,5.93-4.4a2.52,2.52,0,0,0-1.34-.13c-1.56.26-3.73,1.78-6.47,4.53a4.94,4.94,0,0,0-.54,2.94,2.15,2.15,0,0,0,.13.54,3,3,0,0,0,1.4,1.67,16.11,16.11,0,0,1-.29,3.46,53.9,53.9,0,0,1-3.75,10.47c-1.36,2.78-2.74,4.47-4,5.18A1,1,0,0,0,190.29,115.21Z" transform="translate(-128.33 -48.8)"/><path class="cls-7" d="M155.73,126.89c-3.95-.32-8.42-2.58-13.38-6.82v0c-.6,0-1.23,0-1.87-.05v.08C146.24,125,151.34,127.25,155.73,126.89Z" transform="translate(-128.33 -48.8)"/><path class="cls-7" d="M180.22,92.94c-2.11,7-2.75,12.81-2,17.32a16.4,16.4,0,0,0,2,5.71,3.84,3.84,0,0,0,1.35,1.59,48.71,48.71,0,0,1-1.5-7.3c-.75-4.51-.12-10.27,2-17.32a27.69,27.69,0,0,1,3.44-7.14c3.64-5.7,7.6-8.82,11.77-9.51.24,0,.47-.05.71-.07a9,9,0,0,0-2.58.07c-4.17.69-8.14,3.81-11.77,9.51A27.36,27.36,0,0,0,180.22,92.94Z" transform="translate(-128.33 -48.8)"/><path class="cls-7" d="M137.17,101.22c1.34,0,2.34.06,3.09,0l-1.22,0c-4.95-.69-7.83-3.45-8.63-8.24-.72-4.34.34-9.91,3.23-16.74a54.52,54.52,0,0,1,4.14-7.86,56.19,56.19,0,0,1,5-6.93c3.91-4.32,7.12-7.1,9.73-7.75l.45-.11a5.87,5.87,0,0,0-1.82,0,4.86,4.86,0,0,1-.5.13c-2.61.65-5.82,3.43-9.73,7.75a56.09,56.09,0,0,0-5,6.93,55.37,55.37,0,0,0-4.13,7.86c-2.89,6.83-4,12.4-3.23,16.74a13.74,13.74,0,0,0,.94,3.11,8.7,8.7,0,0,0,2.84,3.41A10.56,10.56,0,0,0,137.17,101.22Z" transform="translate(-128.33 -48.8)"/><path class="cls-7" d="M169.77,64.7c.06.37.86.72,2.32,1-.36,1.22-.79,2.81-1.38,4.67a138.65,138.65,0,0,1-7.83,19c-.29.62-.64,1.24-1,1.88a12.9,12.9,0,0,0-.19,2.95h0a27,27,0,0,0,3-4.82,138.65,138.65,0,0,0,7.83-19c.6-1.86,1-3.45,1.38-4.67-1.47-.23-2.26-.58-2.32-1s-.18-.84-.22-1.05a24,24,0,0,1-.17-4.68h.08a25.51,25.51,0,0,0,3.76-.33,25.2,25.2,0,0,0,9-3.43c.05-.41.09-.8.13-1.24v0h0a26.22,26.22,0,0,1-10.93,4.71,25.23,25.23,0,0,1-3.75.33h-.08a22.48,22.48,0,0,0,.18,4.68A8.87,8.87,0,0,0,169.77,64.7Z" transform="translate(-128.33 -48.8)"/><path class="cls-7" d="M213.5,91.4l.07,0a107.28,107.28,0,0,1,4.81-17.22h.22c-.61,0-1.27,0-2,0h-.08a107.28,107.28,0,0,0-4.81,17.22l-.06,0h-.08A5.75,5.75,0,0,0,213.5,91.4Z" transform="translate(-128.33 -48.8)"/><path class="cls-7" d="M221.53,102.67a14.76,14.76,0,0,0-.11,3.31,136.2,136.2,0,0,0,7.27-13.22,108.07,108.07,0,0,0,5.95-15.42c.65-2.31,1.35-4.89,2-7.67h0c.93-.15,1.76-.23,2.56-.28a19.18,19.18,0,0,0-4.43.28h0c-.62,2.78-1.31,5.36-2,7.67a108.07,108.07,0,0,1-6,15.42C225.34,95.93,223.56,99.23,221.53,102.67Z" transform="translate(-128.33 -48.8)"/><path class="cls-7" d="M241,105.73c.21.39.47.58.77.5,2.51-.5,6.77-6.56,12.78-18,.32-.64.59-1.11.79-1.46,1-7,2.19-13.82,3.45-20.41h.08c.57,0,1.08-.06,1.57-.07-.95,0-2.09,0-3.44.07h-.08c-1.27,6.59-2.41,13.41-3.45,20.41-.21.35-.47.82-.79,1.46C247.43,98.14,243.54,104,241,105.73Z" transform="translate(-128.33 -48.8)"/><path class="cls-20" d="M185.39,126.9a25.1,25.1,0,0,1,.5,4.11c0,1.72-.5,2.56-1,2.34s-.78-1.36-.78-1.36.65.78,1,0S185.39,126.9,185.39,126.9Z" transform="translate(-128.33 -48.8)"/><path class="cls-21" d="M280.56,66.16s2.18-3.14,4.72-2.07-.73,5.89-1.65,8.48-1.08,3.13-1.08,3.52-1.1-2,.45-5.59S283.07,64.42,280.56,66.16Z" transform="translate(-128.33 -48.8)"/><path class="cls-22" d="M198.72,78.65c-.65-.11-7.3-1.32-12.38,8.31a49.11,49.11,0,0,0-3.61,9.53l-.06.3s4.55-10.86,6.56-12.63,4.51-4.65,7.88-4.31S199.38,78.74,198.72,78.65Z" transform="translate(-128.33 -48.8)"/><path class="cls-23" d="M223.71,79.38s-3.46,11.81-4.39,15.74S221.79,78.7,222.5,78,224.12,78,223.71,79.38Z" transform="translate(-128.33 -48.8)"/><path class="cls-24" d="M242.52,76.45s-3.46,11.81-4.4,15.75,2.48-16.43,3.19-17.13S242.92,75.07,242.52,76.45Z" transform="translate(-128.33 -48.8)"/><path class="cls-25" d="M254.8,104.93s1.5-12.22,2.19-16.2-4.22,16.06-3.86,17S254.62,106.36,254.8,104.93Z" transform="translate(-128.33 -48.8)"/><path class="cls-26" d="M139,98.33s-3-3.31-1.87-11.57S142.6,69,142.6,69a40.69,40.69,0,0,0-7.21,24.25C136.29,100.17,139,98.33,139,98.33Z" transform="translate(-128.33 -48.8)"/><path class="cls-27" d="M148.41,123s5.19,3.54,12-.62,13.26-25.22,13.26-25.22S163.8,125.24,148.41,123Z" transform="translate(-128.33 -48.8)"/><path class="cls-28" d="M260.4,69.35s5.48-.86,4,6-2.49,12.87-2.49,12.87S262.61,69.35,260.4,69.35Z" transform="translate(-128.33 -48.8)"/><path class="cls-29" d="M139.36,104.22" transform="translate(-128.33 -48.8)"/><g class="cls-30"><path class="cls-31" d="M530.92,63.91A7.08,7.08,0,0,0,536,60.44a17.8,17.8,0,0,0-1.63-3.84,9.47,9.47,0,0,0-3-3.09,7.4,7.4,0,0,0-3.33-1.13c-1.81.32-3.19,1.67-4.16,4.1a92.6,92.6,0,0,0-18.54,1,39.85,39.85,0,0,0-13.91,4.88,12.78,12.78,0,0,0-3.63,3.49,7.15,7.15,0,0,0-1.17,4A16.26,16.26,0,0,0,491.13,76c2.52,2.39,7.33,3.9,6.72,8.26-.16,1.14-1.6,2.87-.34,4,1.63,1.45,2.35-1.13,2.35-2.25s-1.24-3.4-.27-4c.08.49.27,1.79,1,1.34.56-.32.29-1.86.32-2.4s3.69-1.52,4.11-1.74a19.6,19.6,0,0,0,4.67-3.69,49.3,49.3,0,0,0,4-5.51l0-.11c-3.73.89-6.86,1.55-9.44,2l-.08,0a23.33,23.33,0,0,1-6,.48c1.81-2.81,7-5.07,15.63-6.57l1.5-.26a36.68,36.68,0,0,1,6.51-.62c-.16.63-.22,1-.25,1-4.08,17.57-7.12,30.83-9.63,39.67-2,7.14-4.49,10.86-6.84,11.27a2.42,2.42,0,0,1-1.93-.62c-2.12-1.69-3.83-6.71-5.26-15a.31.31,0,0,0-.07-.15c-1.25,1.22-2.37,2.32-3.3,3.36-3.18,3.6-4.53,6.78-4.05,9.51l.11.65c.32,1.17.54,1.73.69,1.71a27.1,27.1,0,0,0,5.23,4.28,20.8,20.8,0,0,0,5.68,2.78,19.49,19.49,0,0,0,4,.73c8.77-1.53,14.52-8.13,16.76-19.9,2.32-12.18,4.26-23.58,6.43-34.12.74-3.69,1.17-5.75,1.37-6.22Z" transform="translate(-128.33 -48.8)"/><path class="cls-32" d="M577.82,68.71a20.37,20.37,0,0,0,7.92-3.44,15.84,15.84,0,0,0,0-5.87l-.09-.5a9.34,9.34,0,0,0-.62-2.67,79.87,79.87,0,0,1-8.19,1.94l-1.39.24a54.52,54.52,0,0,1-5.58.7A27.29,27.29,0,0,0,576,69Z" transform="translate(-128.33 -48.8)"/><path class="cls-33" d="M608.19,81.2a12.59,12.59,0,0,0,.69-7.67,1.52,1.52,0,0,0-.15-.41,25.29,25.29,0,0,0-2.25-2.26A49.59,49.59,0,0,0,608.19,81.2Z" transform="translate(-128.33 -48.8)"/><path class="cls-34" d="M614.48,88.1a6.23,6.23,0,0,0,5.24-2.78l-.09.06A21,21,0,0,1,621,80.71a32.17,32.17,0,0,1,1.51-3.51,59.83,59.83,0,0,0,0-13.35v-.31a9.94,9.94,0,0,0-5,3.48,30.55,30.55,0,0,0-3.49,5.69,35,35,0,0,0-3.34,13.52A4.88,4.88,0,0,0,614.48,88.1Z" transform="translate(-128.33 -48.8)"/><path class="cls-35" d="M579.78,78.86c.17-1.06.32-2.06.43-3l-.1-.34c-1.77-2.67-4.68-3.67-8.72-3a78.22,78.22,0,0,0-2.48,8.76c-.89,3.94-1.55,7.41-2,10.41Z" transform="translate(-128.33 -48.8)"/><path class="cls-36" d="M538.66,118.53c2.69-.47,5.64-5.63,8.92-15.48a17.12,17.12,0,0,0,.26,3.56,12.57,12.57,0,0,0,1,3.19l7.1-7.1c.42-4.78,2-11.66,4.8-20.7a5.32,5.32,0,0,0,.58-2.36,5.47,5.47,0,0,0-.92-2.3c-1.28-1.88-4-2.43-8.3-1.69-.55,2.56-1.17,4.92-1.75,7A98.85,98.85,0,0,1,545,96.88a123.44,123.44,0,0,1-6.57,12.17,19.23,19.23,0,0,1,.35-5.06c.75-5,2.69-11.85,5.6-20.65a7.11,7.11,0,0,0-3.93-3,13.85,13.85,0,0,0-5-.45h-.07q-7,19.66-4.73,32.52l.16.92c.08.46.2,1.12.38,2C534,117.83,536.46,118.91,538.66,118.53Z" transform="translate(-128.33 -48.8)"/></g><path class="cls-6" d="M525.35,63.91a7.08,7.08,0,0,0,5.11-3.47,17.84,17.84,0,0,0-1.62-3.84,9.57,9.57,0,0,0-3-3.09,7.4,7.4,0,0,0-3.33-1.13c-1.81.32-3.2,1.67-4.16,4.1a92.75,92.75,0,0,0-18.55,1,39.79,39.79,0,0,0-13.9,4.88,12.8,12.8,0,0,0-3.64,3.49,7.15,7.15,0,0,0-1.17,4A16.3,16.3,0,0,0,485.57,76c2.51,2.39,7.32,3.9,6.72,8.26-.16,1.14-1.61,2.87-.35,4,1.64,1.45,2.36-1.13,2.35-2.25s-1.23-3.4-.26-4c.07.49.27,1.79,1,1.34.56-.32.29-1.86.32-2.4s3.68-1.52,4.1-1.74a19.21,19.21,0,0,0,4.67-3.69,46.77,46.77,0,0,0,4-5.51l0-.11c-3.73.89-6.87,1.55-9.45,2l-.07,0a23.38,23.38,0,0,1-6,.48c1.81-2.81,7-5.07,15.63-6.57l1.51-.26a36.51,36.51,0,0,1,6.51-.62c-.17.63-.22,1-.25,1-4.08,17.57-7.13,30.83-9.63,39.67-2.05,7.14-4.49,10.86-6.84,11.27a2.42,2.42,0,0,1-1.93-.62c-2.12-1.69-3.83-6.71-5.27-15a.26.26,0,0,0-.06-.15c-1.26,1.22-2.37,2.32-3.3,3.36-3.18,3.6-4.53,6.78-4.06,9.51l.12.65c.32,1.17.54,1.73.69,1.71a26.79,26.79,0,0,0,5.23,4.28,20.67,20.67,0,0,0,5.68,2.78,19.52,19.52,0,0,0,4,.73c8.78-1.53,14.53-8.13,16.76-19.9,2.32-12.18,4.26-23.58,6.43-34.12.75-3.69,1.18-5.75,1.37-6.22Z" transform="translate(-128.33 -48.8)"/><path class="cls-6" d="M572.25,68.71a20.34,20.34,0,0,0,7.93-3.44,16.05,16.05,0,0,0,0-5.87l-.09-.5a9.53,9.53,0,0,0-.63-2.67,79.74,79.74,0,0,1-8.18,1.94l-1.39.24a55.06,55.06,0,0,1-5.59.7A27.29,27.29,0,0,0,570.4,69Z" transform="translate(-128.33 -48.8)"/><path class="cls-6" d="M635.91,80.5c-1,1.08-3.66,3.81-6.33,6.9a43.45,43.45,0,0,1-6.72,6.52c-3.16,2.38-5.45,3.57-6.72,3.79-1.5.26-2.46-.68-2.84-2.88a17.24,17.24,0,0,1-.16-3.89l3.46-1.52a23.77,23.77,0,0,0,5-3.09,30.4,30.4,0,0,0,4-3.67,36.45,36.45,0,0,0,4-5.5,10.82,10.82,0,0,0,.7-5.56c-.42-2.42-1.94-4.3-4.49-5.76-3.21-1.82-5.68-2.74-7.52-2.65h-.08A10,10,0,0,0,612,67a30.55,30.55,0,0,0-3.49,5.69,34.35,34.35,0,0,0-3.25,17.59c-1.36,1.61-2.53,2.91-3.49,3.85q-7.28,7-11.07,7.72l-.46.08a4.3,4.3,0,0,1-1.1,0c-1.59-.24-2.56-1.46-2.94-3.65a19.55,19.55,0,0,1,.29-6.32,41.66,41.66,0,0,1,2.15-7.67,25.31,25.31,0,0,1,3.15-5.59c1.82-2.1,3.37-3.44,4.71-4a2.45,2.45,0,0,0,.12.49c.44,2.51-1.25,6.25-5.08,11.32a12.38,12.38,0,0,0,3.39-.11l.57-.1a10.26,10.26,0,0,0,3.94-1.52c3.56-2.37,4.8-6.19,3.9-11.35a1.52,1.52,0,0,0-.16-.41c-3.81-4.37-7.63-6.24-11.4-5.59a12.27,12.27,0,0,0-5,2.25,14.85,14.85,0,0,0-3.38,3.81,21,21,0,0,0-2.7,5.23c-2.23,6.34-3,11.75-2.39,16.33-.85,1.41-1.74,2.82-2.72,4.23-3,4.25-5.12,6.36-6.12,6.54-.34.06-.56-.26-.67-.92a17.61,17.61,0,0,1,.1-3.94,64,64,0,0,1,2.57-11,84,84,0,0,0,3.16-14.19l-.1-.34c-1.77-2.67-4.68-3.67-8.73-3a80.44,80.44,0,0,0-2.48,8.76,126,126,0,0,0-2.68,15.75c-4.17,7.56-7.24,11.65-9.18,12-.49.13-.87-.44-1.08-1.63-.74-4.28.83-12.8,4.76-25.5a5,5,0,0,0,.58-2.36,5.46,5.46,0,0,0-.91-2.3c-1.28-1.88-4-2.43-8.31-1.69-.55,2.56-1.16,4.92-1.75,7a96.48,96.48,0,0,1-5.34,14.18,125.37,125.37,0,0,1-6.56,12.17,19.23,19.23,0,0,1,.35-5.06c.75-5,2.69-11.85,5.6-20.65a7.18,7.18,0,0,0-3.93-3,13.85,13.85,0,0,0-5-.45h-.08q-7,19.66-4.72,32.52l.16.92c.08.46.19,1.12.38,2,2.74,2.53,5.23,3.61,7.42,3.23,2.7-.47,5.65-5.63,8.92-15.48a17.16,17.16,0,0,0,.27,3.56c.76,4.35,3.08,7,6.92,7.88a15.41,15.41,0,0,0,3.9.27c1-.53,1.7-.93,2.2-1.25a16.79,16.79,0,0,0,6-7.81,10.8,10.8,0,0,0,2.54,4c3.13,1.8,5.91,2.47,8.29,2,2.81-1.88,5.55-5.25,7.77-10.28l.17-.4a14.88,14.88,0,0,0,1.3,2.21c3,4.08,7,5.65,11.67,4.83,4.27-.75,8.85-4.72,13.29-12.06a9.9,9.9,0,0,0,1.53,3.09,11.58,11.58,0,0,0,4.08,3.14,12.14,12.14,0,0,0,5.91,1.36c2.2-.06,2,1.32,2,3.29,0,1.3.43,2.22,1.87,1.59a13.59,13.59,0,0,0-.47-3.33c-.2-1-.57-3.65,1.38-2.88.78.31.46,1.62,1.44,1.66s.67-1.71.75-2.34a2.25,2.25,0,0,1,1.28-2.08,15,15,0,0,0,5-4.58,24.57,24.57,0,0,0,3.52-6.41C635.9,84.79,636.34,82.09,635.91,80.5Zm-20.51.21c1.9-5.25,4.51-8.72,7.57-10.52l0,.27a7.38,7.38,0,0,1-.39,2.76,23.82,23.82,0,0,1-3.46,7.23,19.86,19.86,0,0,1-5.09,4.93A20.32,20.32,0,0,1,615.4,80.71Z" transform="translate(-128.33 -48.8)"/><g class="cls-37"><path class="cls-29" d="M567,59.11a55.06,55.06,0,0,0,5.59-.7l1.39-.24c1.7-.3,3.63-.72,5.74-1.27a1.51,1.51,0,0,0-.24-.67,79.74,79.74,0,0,1-8.18,1.94l-1.39.24a55.06,55.06,0,0,1-5.59.7A27.29,27.29,0,0,0,570.4,69l1.85-.32.46-.11A27.26,27.26,0,0,1,567,59.11Z" transform="translate(-128.33 -48.8)"/><path class="cls-29" d="M502.28,116.87c2.34-.41,4.79-4.13,6.84-11.27,2.5-8.84,5.55-22.1,9.63-39.67,0-.05.08-.41.25-1-.84,0-1.76,0-2.71.13-.14.53-.2.87-.22.91-4.08,17.57-7.13,30.83-9.63,39.67-1.75,6.09-3.78,9.67-5.8,10.85A2.31,2.31,0,0,0,502.28,116.87Z" transform="translate(-128.33 -48.8)"/><path class="cls-29" d="M501.34,71.86l.07,0q2.76-.48,6.39-1.29c.14-.21.26-.38.4-.6l0-.11c-3.73.89-6.87,1.55-9.45,2l-.07,0c-1.23.21-2.32.36-3.28.45l0,0A23.38,23.38,0,0,0,501.34,71.86Z" transform="translate(-128.33 -48.8)"/><path class="cls-29" d="M499.38,123.44a20.67,20.67,0,0,1-5.68-2.78,26.79,26.79,0,0,1-5.23-4.28c-.15,0-.37-.54-.69-1.71l-.12-.65c-.47-2.73.88-5.91,4.06-9.51.32-.37.7-.75,1.07-1.14-.13-.67-.26-1.34-.39-2.07a.26.26,0,0,0-.06-.15c-1.26,1.22-2.37,2.32-3.3,3.36-3.18,3.6-4.53,6.78-4.06,9.51l.12.65c.32,1.17.54,1.73.69,1.71a26.79,26.79,0,0,0,5.23,4.28,20.67,20.67,0,0,0,5.68,2.78,19.52,19.52,0,0,0,4,.73c.31-.06.58-.16.88-.23A20.54,20.54,0,0,1,499.38,123.44Z" transform="translate(-128.33 -48.8)"/><path class="cls-29" d="M492.29,84.22c-.16,1.14-1.61,2.87-.35,4s1.89,0,2.19-1.13a2.65,2.65,0,0,1,.15-.9c0-.07,0-.15,0-.22,0-1-1.23-3.4-.26-4,.07.47.26,1.7,1,1.36-.14-3.67-4.43-5.14-6.76-7.35a16.3,16.3,0,0,1-4.44-6.13,7.15,7.15,0,0,1,1.17-4,12.8,12.8,0,0,1,3.64-3.49,39.79,39.79,0,0,1,13.9-4.88,81.82,81.82,0,0,1,12.6-1.05,87.25,87.25,0,0,0-15.28,1.05,39.79,39.79,0,0,0-13.9,4.88,12.8,12.8,0,0,0-3.64,3.49,7.15,7.15,0,0,0-1.17,4A16.3,16.3,0,0,0,485.57,76C488.08,78.35,492.89,79.86,492.29,84.22Z" transform="translate(-128.33 -48.8)"/><path class="cls-29" d="M521.07,56.48a6.34,6.34,0,0,1,3.14-3.75,5.61,5.61,0,0,0-1.66-.35c-1.8.32-3.18,1.66-4.15,4.07C519.29,56.46,520.15,56.45,521.07,56.48Z" transform="translate(-128.33 -48.8)"/><path class="cls-29" d="M535.94,103.72c0,.09,0,.18,0,.27a19.23,19.23,0,0,0-.35,5.06,125.37,125.37,0,0,0,6.56-12.17,96.48,96.48,0,0,0,5.34-14.18c.59-2.13,1.2-4.49,1.75-7,.66-.11,1.27-.19,1.85-.24a16.22,16.22,0,0,0-4.53.24c-.55,2.56-1.16,4.92-1.75,7a96.48,96.48,0,0,1-5.34,14.18C538.43,99.08,537.24,101.37,535.94,103.72Z" transform="translate(-128.33 -48.8)"/><path class="cls-29" d="M594.23,86.57c3.81-5,5.49-8.78,5-11.28a2.45,2.45,0,0,1-.12-.49,8.51,8.51,0,0,0-2.52,1.7c-.16,2.45-1.86,5.79-5.12,10.11A12.88,12.88,0,0,0,594.23,86.57Z" transform="translate(-128.33 -48.8)"/><path class="cls-29" d="M554.16,109.13c1.94-.4,5-4.49,9.18-12A126,126,0,0,1,566,81.33a80.44,80.44,0,0,1,2.48-8.76c.34-.06.65-.09,1-.12a12,12,0,0,0-3.65.12,80.44,80.44,0,0,0-2.48,8.76,126,126,0,0,0-2.68,15.75c-3.09,5.6-5.57,9.28-7.44,11C553.44,108.85,553.76,109.24,554.16,109.13Z" transform="translate(-128.33 -48.8)"/><path class="cls-29" d="M575.61,99.38a39.89,39.89,0,0,1-4.16,5.15,3.08,3.08,0,0,0,0,.47c.11.66.33,1,.67.92,1-.18,3.13-2.29,6.12-6.54,1-1.41,1.87-2.82,2.72-4.23-.58-4.58.16-10,2.39-16.33a21.26,21.26,0,0,1,2.69-5.23,15,15,0,0,1,3.39-3.81,12.27,12.27,0,0,1,5-2.25h.17a8.52,8.52,0,0,0-2.85,0,12.27,12.27,0,0,0-5,2.25,14.85,14.85,0,0,0-3.38,3.81,21,21,0,0,0-2.7,5.23c-2.23,6.34-3,11.75-2.39,16.33C577.48,96.56,576.59,98,575.61,99.38Z" transform="translate(-128.33 -48.8)"/><path class="cls-29" d="M621.84,80.45a24.06,24.06,0,0,0,3.46-7.23,7.38,7.38,0,0,0,.39-2.76l0-.27a12.79,12.79,0,0,0-2.85,2.33c-.06.22-.11.45-.18.7a23.82,23.82,0,0,1-3.46,7.23,17.31,17.31,0,0,1-1.68,2,12.33,12.33,0,0,0-.73,2.91A19.86,19.86,0,0,0,621.84,80.45Z" transform="translate(-128.33 -48.8)"/><path class="cls-29" d="M605.24,90.3c-1.36,1.61-2.53,2.91-3.49,3.85-4.59,4.44-8.11,7-10.63,7.6a3,3,0,0,0,.68.23,4.3,4.3,0,0,0,1.1,0l.46-.08q3.81-.68,11.07-7.72c1-.94,2.13-2.24,3.49-3.85a34.35,34.35,0,0,1,3.25-17.59A30.55,30.55,0,0,1,614.66,67a10,10,0,0,1,5.47-3.62,6.81,6.81,0,0,0-1.83-.21h-.08A10,10,0,0,0,612,67a30.55,30.55,0,0,0-3.49,5.69A34.35,34.35,0,0,0,605.24,90.3Z" transform="translate(-128.33 -48.8)"/><path class="cls-29" d="M622.86,93.92a26.71,26.71,0,0,1-5.59,3.44,2,2,0,0,0,1.55.35c1.27-.22,3.56-1.41,6.72-3.79a43,43,0,0,0,6.71-6.52c1.3-1.49,2.59-2.89,3.69-4.07a7.71,7.71,0,0,0,0-2.83c-1,1.08-3.66,3.81-6.33,6.9A43.45,43.45,0,0,1,622.86,93.92Z" transform="translate(-128.33 -48.8)"/><path class="cls-29" d="M621.08,103.66a2.69,2.69,0,0,0-.59,0,12.14,12.14,0,0,1-5.91-1.36,11.58,11.58,0,0,1-4.08-3.14A9.9,9.9,0,0,1,609,96c-.52.85-1,1.66-1.56,2.42.14.22.26.48.41.67a11.58,11.58,0,0,0,4.08,3.14,12.14,12.14,0,0,0,5.91,1.36c2.2-.06,2,1.32,2,3.29,0,1.3.43,2.22,1.87,1.59a13.59,13.59,0,0,0-.47-3.33A7.68,7.68,0,0,1,621.08,103.66Z" transform="translate(-128.33 -48.8)"/><path class="cls-29" d="M584,103.26a14.88,14.88,0,0,1-1.3-2.21l-.17.4c-.32.73-.66,1.41-1,2.07A11.14,11.14,0,0,0,592,108.2,11.36,11.36,0,0,1,584,103.26Z" transform="translate(-128.33 -48.8)"/><path class="cls-29" d="M623.76,103.82a.69.69,0,0,0,.3.13c.84,0,.78-1,.75-1.77C623.94,102.1,623.74,102.94,623.76,103.82Z" transform="translate(-128.33 -48.8)"/><path class="cls-29" d="M551.88,114.49c-3.84-.88-6.16-3.53-6.92-7.88a17.16,17.16,0,0,1-.27-3.56c-.66,2-1.31,3.77-2,5.38a8.45,8.45,0,0,0,6.47,6.06,15.41,15.41,0,0,0,3.9.27l.16-.09A10.2,10.2,0,0,1,551.88,114.49Z" transform="translate(-128.33 -48.8)"/><path class="cls-29" d="M566.48,109.68a10.8,10.8,0,0,1-2.54-4,21.13,21.13,0,0,1-1.29,2.61,10.05,10.05,0,0,0,1.15,1.37c3.13,1.8,5.91,2.47,8.29,2h0A15.42,15.42,0,0,1,566.48,109.68Z" transform="translate(-128.33 -48.8)"/><path class="cls-29" d="M528.35,115.3c-.19-.84-.3-1.5-.38-2l-.16-.92q-2.25-12.87,4.72-32.5a19.94,19.94,0,0,0-2.6,0h-.08q-7,19.66-4.72,32.52l.16.92c.08.46.19,1.12.38,2,2.74,2.53,5.23,3.61,7.42,3.23.11,0,.23-.1.34-.13A12.39,12.39,0,0,1,528.35,115.3Z" transform="translate(-128.33 -48.8)"/></g><path class="cls-38" d="M501,122.81s9.95-3.22,13.15-13.4,5.74-28.94,5.74-28.94-3.14,27-9.11,34.08C504.5,122,501,122.81,501,122.81Z" transform="translate(-128.33 -48.8)"/><path class="cls-39" d="M527.66,94.6a32,32,0,0,1,1.08-5.89c.34-1.41.56-2.87,1-4.24.3-1,.79-2.31,1.84-2.65a5.26,5.26,0,0,1,3.47.51,2.93,2.93,0,0,1,1,.67c-1-.32-2.6-.83-3.57-.14a6,6,0,0,0-1.9,2.63c-.5,1.2-.88,2.46-1.29,3.7a29.62,29.62,0,0,0-1.35,3.87,5.22,5.22,0,0,1-.2.87" transform="translate(-128.33 -48.8)"/><path class="cls-40" d="M564,87.66a33.12,33.12,0,0,1,1.09-5.9c.34-1.4.56-2.86,1-4.24.3-1,.8-2.31,1.84-2.64a5.19,5.19,0,0,1,3.47.5,3,3,0,0,1,1,.68c-1-.32-2.6-.84-3.56-.14a5.93,5.93,0,0,0-1.91,2.63c-.49,1.2-.88,2.46-1.29,3.69a31.68,31.68,0,0,0-1.34,3.87,8.06,8.06,0,0,1-.2.88" transform="translate(-128.33 -48.8)"/></g></g></g></svg>