<svg id="преимущества_работы" data-name="преимущества работы" xmlns="http://www.w3.org/2000/svg" xmlns:xlink="http://www.w3.org/1999/xlink" viewBox="0 0 69.56 60.29"><defs><style>.cls-1{fill:url(#linear-gradient);}.cls-2{fill:url(#linear-gradient-2);}.cls-3{fill:url(#linear-gradient-3);}.cls-4{fill:url(#linear-gradient-4);}.cls-5{fill:url(#linear-gradient-5);}.cls-6{fill:url(#linear-gradient-6);}.cls-7{fill:url(#linear-gradient-7);}.cls-8{fill:url(#linear-gradient-8);}.cls-9{fill:url(#linear-gradient-9);}.cls-10{fill:url(#linear-gradient-10);}.cls-11{fill:url(#linear-gradient-11);}</style><linearGradient id="linear-gradient" x1="817.44" y1="3051.76" x2="830.19" y2="3051.76" gradientUnits="userSpaceOnUse"><stop offset="0" stop-color="#32113f"/><stop offset="1" stop-color="#56267d"/></linearGradient><linearGradient id="linear-gradient-2" x1="823.23" y1="3048.3" x2="825.55" y2="3048.3" xlink:href="#linear-gradient"/><linearGradient id="linear-gradient-3" x1="874.24" y1="3051.76" x2="887" y2="3051.76" xlink:href="#linear-gradient"/><linearGradient id="linear-gradient-4" x1="878.88" y1="3048.3" x2="881.2" y2="3048.3" xlink:href="#linear-gradient"/><linearGradient id="linear-gradient-5" x1="817.44" y1="3028.57" x2="887" y2="3028.57" xlink:href="#linear-gradient"/><linearGradient id="linear-gradient-6" x1="827.87" y1="3037.85" x2="830.19" y2="3037.85" xlink:href="#linear-gradient"/><linearGradient id="linear-gradient-7" x1="874.24" y1="3034.37" x2="876.56" y2="3034.37" xlink:href="#linear-gradient"/><linearGradient id="linear-gradient-8" x1="874.24" y1="3003.07" x2="876.56" y2="3003.07" xlink:href="#linear-gradient"/><linearGradient id="linear-gradient-9" x1="829.03" y1="3005.97" x2="831.35" y2="3005.97" xlink:href="#linear-gradient"/><linearGradient id="linear-gradient-10" x1="827.87" y1="3028.57" x2="830.19" y2="3028.57" xlink:href="#linear-gradient"/><linearGradient id="linear-gradient-11" x1="874.24" y1="3018.14" x2="876.56" y2="3018.14" xlink:href="#linear-gradient"/></defs><title>map</title><g id="карта"><path class="cls-1" d="M824.56,3049.44a1.16,1.16,0,0,0,0,2.32c.78,0,3.31.17,3.31,2.32,0,1.21-1.66,2.32-3.48,2.32a4.59,4.59,0,0,1-4.63-4.64c0-2.14,2.34-4.64,5.36-4.64H829a1.16,1.16,0,1,0,0-2.32h-3.91c-4,0-7.68,3.32-7.68,7a6.89,6.89,0,0,0,6.95,7c3.2,0,5.8-2.08,5.8-4.64C830.19,3051.3,827.93,3049.44,824.56,3049.44Z" transform="translate(-817.44 -2998.43)"/><path class="cls-2" d="M824.39,3044.84a1.16,1.16,0,0,0-1.16,1.16v4.6a1.16,1.16,0,1,0,2.32,0V3046A1.16,1.16,0,0,0,824.39,3044.84Z" transform="translate(-817.44 -2998.43)"/><path class="cls-3" d="M879.32,3044.8H875.4a1.16,1.16,0,0,0,0,2.32h3.92c3,0,5.36,2.5,5.36,4.64a4.6,4.6,0,0,1-4.64,4.64c-1.82,0-3.48-1.11-3.48-2.32,0-2.15,2.54-2.32,3.32-2.32a1.16,1.16,0,1,0,0-2.32c-3.37,0-5.64,1.86-5.64,4.64,0,2.56,2.61,4.64,5.8,4.64a6.89,6.89,0,0,0,7-7C887,3048.12,883.34,3044.8,879.32,3044.8Z" transform="translate(-817.44 -2998.43)"/><path class="cls-4" d="M880,3044.84a1.16,1.16,0,0,0-1.16,1.16v4.6a1.16,1.16,0,1,0,2.32,0V3046A1.16,1.16,0,0,0,880,3044.84Z" transform="translate(-817.44 -2998.43)"/><path class="cls-5" d="M880.6,2998.43h-1.83a10.77,10.77,0,0,0-8.31,3.9,8.53,8.53,0,0,1-6.54,3.06H840.51a8.49,8.49,0,0,1-6.53-3.06,10.81,10.81,0,0,0-8.32-3.9h-1.82a6.41,6.41,0,0,0-6.4,6.4v46.93a6.89,6.89,0,0,0,6.95,7c3.2,0,5.8-2.08,5.8-4.64v-5.51a24.71,24.71,0,0,0,15.63,5.51h12.79a24.71,24.71,0,0,0,15.63-5.51v5.51c0,2.56,2.61,4.64,5.8,4.64a6.89,6.89,0,0,0,7-7v-46.93A6.41,6.41,0,0,0,880.6,2998.43Zm4.08,53.33a4.6,4.6,0,0,1-4.64,4.64c-1.82,0-3.48-1.11-3.48-2.32V3046a1.17,1.17,0,0,0-.71-1.07,1.2,1.2,0,0,0-.45-.09,1.18,1.18,0,0,0-.82.34,22.4,22.4,0,0,1-16,6.62H845.82a22.44,22.44,0,0,1-16-6.62,1.16,1.16,0,0,0-2,.82v8.12c0,1.21-1.66,2.32-3.48,2.32a4.59,4.59,0,0,1-4.63-4.64v-46.93a4.08,4.08,0,0,1,4.08-4.08h1.82a8.48,8.48,0,0,1,6.54,3.06,10.77,10.77,0,0,0,8.31,3.9h23.41a10.81,10.81,0,0,0,8.32-3.9,8.46,8.46,0,0,1,6.53-3.06h1.83a4.08,4.08,0,0,1,4.08,4.08v46.93Z" transform="translate(-817.44 -2998.43)"/><path class="cls-6" d="M829,3034.37a1.16,1.16,0,0,0-1.16,1.16v4.64a1.16,1.16,0,0,0,2.32,0v-4.64A1.16,1.16,0,0,0,829,3034.37Z" transform="translate(-817.44 -2998.43)"/><path class="cls-7" d="M875.4,3026.25a1.16,1.16,0,0,0-1.16,1.16v13.92a1.16,1.16,0,0,0,2.32,0v-13.92A1.16,1.16,0,0,0,875.4,3026.25Z" transform="translate(-817.44 -2998.43)"/><path class="cls-8" d="M875.4,2999.59a1.16,1.16,0,0,0-1.16,1.16v4.64a1.16,1.16,0,0,0,2.32,0v-4.64A1.16,1.16,0,0,0,875.4,2999.59Z" transform="translate(-817.44 -2998.43)"/><path class="cls-9" d="M830.19,2999.59a1.16,1.16,0,0,0-1.16,1.16v10.43a1.16,1.16,0,0,0,2.32,0v-10.43A1.16,1.16,0,0,0,830.19,2999.59Z" transform="translate(-817.44 -2998.43)"/><path class="cls-10" d="M829,3025.1a1.15,1.15,0,0,0-1.16,1.15v4.64a1.16,1.16,0,1,0,2.32,0v-4.64A1.15,1.15,0,0,0,829,3025.1Z" transform="translate(-817.44 -2998.43)"/><path class="cls-11" d="M875.4,3014.66a1.16,1.16,0,0,0-1.16,1.16v4.64a1.16,1.16,0,0,0,2.32,0v-4.64A1.16,1.16,0,0,0,875.4,3014.66Z" transform="translate(-817.44 -2998.43)"/></g></svg>