<svg xmlns="http://www.w3.org/2000/svg" xmlns:xlink="http://www.w3.org/1999/xlink" viewBox="0 0 69.56 69.57"><defs><style>.cls-1{fill:url(#linear-gradient);}.cls-2{fill:url(#linear-gradient-2);}.cls-3{fill:url(#linear-gradient-3);}.cls-4{fill:url(#linear-gradient-4);}</style><linearGradient id="linear-gradient" y1="34.78" x2="69.56" y2="34.78" gradientUnits="userSpaceOnUse"><stop offset="0" stop-color="#32113f"/><stop offset="1" stop-color="#56267d"/></linearGradient><linearGradient id="linear-gradient-2" x1="32.32" y1="34.78" x2="37.2" y2="34.78" xlink:href="#linear-gradient"/><linearGradient id="linear-gradient-3" x1="44.91" y1="34.78" x2="49.79" y2="34.78" xlink:href="#linear-gradient"/><linearGradient id="linear-gradient-4" x1="19.73" y1="34.78" x2="24.61" y2="34.78" xlink:href="#linear-gradient"/></defs><title>Ресурс 2</title><g id="Слой_2" data-name="Слой 2"><g id="преимущества_работы" data-name="преимущества работы"><g id="общение"><path class="cls-1" d="M59.35,10.19A34.77,34.77,0,0,0,8,57c-1.12,2.25-2.91,4.87-5.57,6.18A3.23,3.23,0,0,0,.63,66.55a3.27,3.27,0,0,0,2.72,2.74,18.44,18.44,0,0,0,2.75.2,20.74,20.74,0,0,0,12.23-4.06,34.77,34.77,0,0,0,41-55.24ZM56.54,56.57a30.81,30.81,0,0,1-37.38,4.79,2,2,0,0,0-2.41.31.66.66,0,0,0-.17.12A17,17,0,0,1,6.1,65.52h0a19.33,19.33,0,0,0,6-7.93,2,2,0,0,0,.11-1.27,2.1,2.1,0,0,0-.49-1.12,30.81,30.81,0,1,1,44.87,1.37Z"/><path class="cls-2" d="M37.2,34.78a2.44,2.44,0,1,1-2.44-2.44,2.44,2.44,0,0,1,2.44,2.44Z"/><path class="cls-3" d="M49.79,34.78a2.44,2.44,0,1,1-2.44-2.44,2.44,2.44,0,0,1,2.44,2.44Z"/><path class="cls-4" d="M24.61,34.78a2.44,2.44,0,1,1-2.44-2.44,2.44,2.44,0,0,1,2.44,2.44Z"/></g></g></g></svg>