<svg id="вкус_персик" data-name="вкус персик" xmlns="http://www.w3.org/2000/svg" xmlns:xlink="http://www.w3.org/1999/xlink" viewBox="0 0 804.8 923.27"><defs><style>.cls-1{fill:none;}.cls-2{opacity:0.3;}.cls-3{clip-path:url(#clip-path);}.cls-4{fill:#fff;}</style><clipPath id="clip-path" transform="translate(306.45 -1296.09)"><rect class="cls-1" x="0.07" y="1416.87" width="498.31" height="708.26"/></clipPath></defs><title>peach-background</title><g id="персик_на_заднем_плане" data-name="персик на заднем плане" class="cls-2"><g class="cls-3"><path class="cls-4" d="M-124.65,2003.91a15.89,15.89,0,0,1-5.89,1.11,15.92,15.92,0,0,1-14.84-10.12,452.46,452.46,0,0,1-31.89-166.61,458.19,458.19,0,0,1,42.15-190.64,16,16,0,0,1,21.22-7.81,16,16,0,0,1,7.78,21.22,425.88,425.88,0,0,0-39.18,177.23,421.09,421.09,0,0,0,29.63,154.89,16,16,0,0,1-9,20.73Z" transform="translate(306.45 -1296.09)"/><path class="cls-4" d="M-302.44,1769.37a16,16,0,0,1,18-13.67,16,16,0,0,1,13.65,18,400.78,400.78,0,0,0-3.69,54.56c0,168.47,105,308,240.4,328.84-24.87-21.81-48.21-48.66-68.6-79.68a16,16,0,0,1,4.56-22.13A16,16,0,0,1-76,2059.91c50.09,76.14,121.06,126.16,180.78,127.46.81,0,1.66,0,2.49,0,198,0,359.1-161.11,359.1-359.12a355.74,355.74,0,0,0-34.93-154.7,16,16,0,1,1,28.82-13.79,387,387,0,0,1,38.07,168.49c0,215.65-175.45,391.08-391.06,391.08-1.07,0-2.15,0-3.2,0-29.53-.65-60.51-10.46-90.67-27.87-4,.19-8.13.33-12.31.33-169.61,0-307.55-163.08-307.55-363.5a437.37,437.37,0,0,1,4-58.92Z" transform="translate(306.45 -1296.09)"/><path class="cls-4" d="M18.18,1462.44c5.13-42.19,28.38-76.81,69.29-103.2a376.65,376.65,0,0,0-23.86,84.26,216.79,216.79,0,0,0-45.43,18.94ZM347,1827.1c1.24-1.67,30.49-41.06,52.11-98.74,29-77.57,29.94-151.15,2.59-212.78a192,192,0,0,0-39.47-57.72,16,16,0,0,0-22.67,22.54,160.12,160.12,0,0,1,32.94,48.17c24.22,54.56,23.1,118-3.33,188.55a423.83,423.83,0,0,1-31.4,65.53c-17.36-29.91-48.11-49.91-82.39-72.22-37.64-24.46-80.28-52.25-121.92-100.73-57.44-66.87-43.93-154.34-28-206.34,13,42.11,32.49,70.08,54.38,92v28.78a16,16,0,1,0,32,0v-1.25c5.94,4.56,11.92,9,17.88,13.38C236,1555.67,261,1574,282.13,1604.31a191.68,191.68,0,0,1,15.23,26.28l-12.09,23.29A16,16,0,0,0,312.06,1671a318.81,318.81,0,0,1,9.66,61.13,16,16,0,0,0,15.92,14.95c.35,0,.69,0,1.06,0a16,16,0,0,0,14.88-17c-3.77-58-19-106.47-45.27-144.07A242.67,242.67,0,0,0,277,1549.62a16,16,0,0,0-5.21-31.07H239.51c-3.65-2.72-7.28-5.38-10.87-8-39.29-29-74-54.59-93.12-118,13.93,5.31,30.54,9.8,48.88,14.76,35.07,9.46,74.78,20.19,110.36,39.92a16,16,0,0,0,15.52-28c-39-21.6-82.53-33.36-117.52-42.8-30.29-8.19-61.58-16.65-68.1-26.89,0-.06-.07-.1-.12-.18l0-.09a3.79,3.79,0,0,1-.6-1.33c-.09-.33-.19-.66-.27-1a16,16,0,0,0-3-5.41,232,232,0,0,1,41-13.84,16,16,0,1,0-6.36-31.31c-1.74.34-42.75,8.9-84.11,35.27-51.52,32.84-80.81,78.8-85.43,133.56-126.41,7.37-236.36,105.23-276.56,248.21a15.9,15.9,0,0,0,11,19.67,15.35,15.35,0,0,0,4.34.63,16,16,0,0,0,15.4-11.68c34.11-121.21,122.44-206.67,225.93-222.61a383.94,383.94,0,0,0-53.45,58.11,16,16,0,0,0,3.21,22.37,15.68,15.68,0,0,0,9.55,3.19,15.9,15.9,0,0,0,12.8-6.39c36-48,79.53-83,122.1-98.54-2.11,49.44,8.3,104.93,49,152.33,44.6,52,91.26,82.29,128.74,106.67,42.31,27.55,72.9,47.44,80.6,83.65a16,16,0,0,0,12.21,12.27,15.33,15.33,0,0,0,3.43.37,15.94,15.94,0,0,0,12.8-6.39Z" transform="translate(306.45 -1296.09)"/></g></g></svg>