<svg id="преимущества_работы" data-name="преимущества работы" xmlns="http://www.w3.org/2000/svg" xmlns:xlink="http://www.w3.org/1999/xlink" viewBox="0 0 59.17 69.56"><defs><style>.cls-1{fill:url(#linear-gradient);}</style><linearGradient id="linear-gradient" x1="556.41" y1="3238.1" x2="615.58" y2="3238.1" gradientUnits="userSpaceOnUse"><stop offset="0" stop-color="#32113f"/><stop offset="1" stop-color="#56267d"/></linearGradient></defs><title>person</title><g id="отзывы"><path d="M585.74,3222.13h.46a13.33,13.33,0,0,0,10.16-4.4c5.54-6.25,4.62-17,4.52-18-.36-7.68-4-11.35-7-13.07a16.06,16.06,0,0,0-7.75-2h-.24a16,16,0,0,0-7.75,2c-3,1.71-6.71,5.38-7.07,13.12-.1,1-1,11.74,4.52,18a13.27,13.27,0,0,0,10.14,4.4Zm-10.82-22s0-.09,0-.12c.47-10.32,7.8-11.43,10.94-11.43h.18c3.89.08,10.5,1.67,11,11.43a.41.41,0,0,0,0,.12c0,.1,1,9.9-3.56,15.05a9.42,9.42,0,0,1-7.42,3.09h-.14a9.43,9.43,0,0,1-7.41-3.09c-4.56-5.12-3.58-15-3.57-15.05Zm0,0" transform="translate(-556.41 -3184.64)"/><path class="cls-1" d="M615.57,3239.9v0c0-.12,0-.23,0-.36-.09-2.85-.28-9.52-6.53-11.66l-.14,0a41.87,41.87,0,0,1-12-5.44,1.94,1.94,0,0,0-2.23,3.18,45.2,45.2,0,0,0,13.15,6c3.36,1.19,3.73,4.78,3.83,8.06a2.06,2.06,0,0,0,0,.36,26.61,26.61,0,0,1-.3,4.45c-2.34,1.33-11.49,5.91-25.4,5.91s-23.06-4.6-25.41-5.92a24.71,24.71,0,0,1-.3-4.45c0-.12,0-.23,0-.36.1-3.29.48-6.87,3.83-8.07a44.9,44.9,0,0,0,13.15-6,1.94,1.94,0,1,0-2.23-3.18,41.29,41.29,0,0,1-11.95,5.45l-.15,0c-6.25,2.15-6.44,8.82-6.52,11.65a2.06,2.06,0,0,1,0,.36v0c0,.75,0,4.59.74,6.52a1.81,1.81,0,0,0,.75.91c.43.29,10.79,6.88,28.11,6.88s27.69-6.61,28.12-6.88a1.91,1.91,0,0,0,.75-.91c.72-1.91.71-5.76.69-6.51Zm0,0" transform="translate(-556.41 -3184.64)"/></g></svg>