<svg xmlns="http://www.w3.org/2000/svg" xmlns:xlink="http://www.w3.org/1999/xlink" viewBox="0 0 59.17 69.56"><defs><style>.cls-1{fill:url(#linear-gradient);}.cls-2{fill:url(#linear-gradient-2);}</style><linearGradient id="linear-gradient" x1="14.55" y1="18.74" x2="44.59" y2="18.74" gradientUnits="userSpaceOnUse"><stop offset="0" stop-color="#32113f"/><stop offset="1" stop-color="#56267d"/></linearGradient><linearGradient id="linear-gradient-2" x1="0" y1="53.45" x2="59.17" y2="53.45" xlink:href="#linear-gradient"/></defs><title>Ресурс 1</title><g id="Слой_2" data-name="Слой 2"><g id="преимущества_работы" data-name="преимущества работы"><g id="отзывы"><path class="cls-1" d="M29.33,37.48h.46A13.28,13.28,0,0,0,40,33.09c5.54-6.25,4.62-17,4.52-18-.36-7.68-4-11.35-7-13.07a16.09,16.09,0,0,0-7.75-2h-.25a16.07,16.07,0,0,0-7.75,2c-3,1.72-6.71,5.39-7.07,13.13-.1,1-1,11.74,4.52,18a13.23,13.23,0,0,0,10.14,4.39Zm-10.82-22c0-.05,0-.09,0-.12C19,5,26.34,3.9,29.48,3.9h.17c3.89.09,10.5,1.67,11,11.44a.45.45,0,0,0,0,.12c0,.1,1,9.89-3.56,15.05a9.42,9.42,0,0,1-7.42,3.08h-.14a9.39,9.39,0,0,1-7.4-3.08c-4.57-5.13-3.59-15-3.58-15Z"/><path class="cls-2" d="M59.16,55.26v0c0-.11,0-.23,0-.36-.09-2.85-.27-9.52-6.53-11.65l-.14,0a41.44,41.44,0,0,1-12-5.45,1.95,1.95,0,0,0-2.23,3.19,45,45,0,0,0,13.15,6c3.36,1.2,3.73,4.78,3.83,8.07a2.11,2.11,0,0,0,0,.36,26.61,26.61,0,0,1-.3,4.45c-2.34,1.33-11.48,5.91-25.4,5.91S6.53,61.09,4.18,59.77a24.82,24.82,0,0,1-.3-4.46c0-.11,0-.23,0-.36.1-3.28.48-6.87,3.83-8.06a45.47,45.47,0,0,0,13.16-6,1.94,1.94,0,0,0-2.24-3.18A41,41,0,0,1,6.69,43.14l-.15,0C.29,45.33.1,52,0,54.84a2.11,2.11,0,0,1,0,.36v0c0,.75,0,4.6.74,6.53a1.85,1.85,0,0,0,.75.91c.43.28,10.79,6.88,28.12,6.88S57.29,63,57.72,62.68a1.9,1.9,0,0,0,.75-.91c.72-1.92.71-5.76.69-6.51Z"/></g></g></g></svg>