<svg id="вкус_ананас" data-name="вкус ананас" xmlns="http://www.w3.org/2000/svg" xmlns:xlink="http://www.w3.org/1999/xlink" viewBox="0 0 761.96 1275"><defs><style>.cls-1{fill:none;}.cls-2{opacity:0.3;}.cls-3{clip-path:url(#clip-path);}.cls-4{fill:#fff;}</style><clipPath id="clip-path" transform="translate(-808.93 -437.99)"><rect class="cls-1" x="715.92" y="708.61" width="650.08" height="708.26" transform="translate(2081.92 2125.48) rotate(-180)"/></clipPath></defs><title>pineapple-background</title><g id="ананас_на_заднем_плане" data-name="ананас на заднем плане" class="cls-2"><g class="cls-3"><path class="cls-4" d="M817.67,791a20.94,20.94,0,0,0,8.93,37.7c151,24,180.79,83.16,182.64,87.21a22.21,22.21,0,0,0,1.34,3.23A368.48,368.48,0,0,0,967,970.94c-57.41,81.91-89,190.49-89,305.71s31.61,223.8,89,305.75c59,84.21,138.11,130.59,222.9,130.59s163.92-46.38,222.87-130.59c57.4-82,89-190.53,89-305.75s-31.64-223.8-89-305.71a363.67,363.67,0,0,0-43.58-51.82,18.48,18.48,0,0,0,1.32-3.23c1.86-4,31.65-63.26,182.68-87.21a20.94,20.94,0,0,0,9-37.7c-2.07-1.52-51.63-36.45-132.41-36.45-38.76,0-77.89,7.93-117,23.58,32.84-34.7,85.16-72.82,165.18-91.69a21,21,0,0,0,.44-40.75c-2.36-.55-58.33-14.72-122.21-14.72-40.27,0-72.22,5.54-97.53,14.63,7.27-49.23-8.52-115-47.12-196.21-6.66-15.17-36.61-15.17-43.26,0-38.62,81.17-54.35,147-47.11,196.21-25.31-9.09-57.24-14.63-97.5-14.63-63.89,0-119.86,14.17-122.22,14.72a21.05,21.05,0,0,0-15.73,20.58,20.83,20.83,0,0,0,16.15,20.17c79.21,18.69,131.46,56.75,164.46,91.46-38.83-15.51-77.73-23.35-116.26-23.35-80.76,0-130.34,34.93-132.39,36.45Zm400.79-174.7c0,.78,0,1.66,0,2.49,0,.46,0,.92,0,1.39,0,.87,0,1.7,0,2.53,0,.42,0,.83,0,1.25,0,1,0,1.89-.1,2.81,0,.28,0,.51,0,.79,0,1.15-.12,2.31-.21,3.41a11.22,11.22,0,0,0-.11,1.52c-.09.6-.09,1.2-.21,1.71s-.09,1.16-.14,1.76a14,14,0,0,0-.18,1.43c-.07.55-.16,1.15-.28,1.7a9.33,9.33,0,0,1-.19,1.29,17,17,0,0,1-.29,1.76c0,.37-.1.74-.16,1.11-.15.55-.24,1.15-.4,1.7a5.11,5.11,0,0,1-.2,1c-.1.55-.24,1.15-.4,1.71,0,.27-.11.6-.18.87-.17.6-.3,1.16-.46,1.71a.51.51,0,0,1-.07.23c-.63,2.31-1.29,4.48-2,6.46-5.84,15.74-15.09,24-22.91,28.43-7.8-4.43-17.08-12.69-22.92-28.43-3.55-9.55-6-22.56-5.62-39.91v-.23c.09-1.06.09-2.22.13-3.33a3,3,0,0,0,0-.64c0-1.06.09-2.12.18-3.28,0-.28,0-.6,0-.88.11-1,.16-2.17.26-3.22.06-.33.06-.7.11-1,.09-1.16.18-2.22.34-3.37a7.19,7.19,0,0,0,.1-1.06c.16-1.11.3-2.26.43-3.46.08-.37.12-.7.17-1,.16-1.25.34-2.4.53-3.69,0-.23.09-.51.14-.83.2-1.34.41-2.63.62-4a.89.89,0,0,0,.07-.28c1.06-6,2.42-12.5,4.06-19.33a3.84,3.84,0,0,0,.25-1c.4-1.34.72-2.73,1.11-4.11.12-.55.28-1.11.42-1.61.34-1.34.71-2.63,1.1-4,.17-.69.35-1.29.51-1.94.39-1.29.79-2.63,1.18-4,.21-.69.41-1.43.62-2.12.39-1.29.85-2.68,1.25-4,.25-.74.51-1.48.71-2.17.44-1.39.88-2.77,1.39-4.16.23-.78.5-1.52.71-2.26.49-1.43,1-2.86,1.48-4.29.25-.74.48-1.47.81-2.26.53-1.48,1-3,1.61-4.52.23-.65.49-1.34.74-2l1.84-4.94c.15-.46.35-1,.56-1.47,1.61-4.11,3.25-8.31,5-12.65h0c2.09,5.17,4,10.15,5.9,15,.1.27.21.55.3.83.78,2,1.55,4.11,2.31,6.18.16.46.35,1,.51,1.43.64,1.8,1.29,3.65,1.89,5.4.19.56.37,1.11.6,1.66.55,1.71,1.11,3.37,1.64,5q.3.9.57,1.8c.54,1.57,1,3.13,1.53,4.7.14.56.34,1.16.5,1.71.51,1.57,1,3.09,1.41,4.62.16.55.3,1.1.48,1.65.42,1.53.86,3,1.3,4.57.11.51.27,1,.37,1.43.44,1.66.87,3.23,1.26,4.8.1.37.21.7.31,1.06.46,1.85.89,3.65,1.29,5.45a.58.58,0,0,1,0,.18c.91,3.83,1.67,7.52,2.36,11.08l0,0c.32,1.71.62,3.42.92,5.08,0,.32.1.65.14,1,.23,1.29.46,2.58.62,3.87.1.51.14.93.23,1.43.15,1.16.31,2.22.47,3.33,0,.55.13,1.06.18,1.57.1,1,.26,2,.35,3,.07.51.11,1,.16,1.57.09,1,.19,1.94.23,2.86a10.45,10.45,0,0,1,.16,1.57c0,.93.09,1.85.21,2.77,0,.46,0,1,.07,1.48,0,.87.09,1.75.11,2.58,0,.51.05,1.06.1,1.57Zm117.6,87c-61.91,43-92.8,93.94-104.8,117.94h-82.69c-12-24-42.84-74.94-104.72-117.85-1.62-1.11-3.24-2.26-4.89-3.37a13.83,13.83,0,0,1-1.6-1.06c-1.52-1-3.07-2-4.64-3-.73-.51-1.45-1-2.18-1.43-2-1.25-4-2.45-6-3.69-1.62-1-3.26-1.94-4.89-2.87-1-.6-2.06-1.2-3.07-1.75-1.53-.87-3.09-1.75-4.62-2.59-1-.55-2-1.05-3-1.61-1.76-1-3.51-1.84-5.28-2.77-.86-.46-1.72-.92-2.57-1.29-2.63-1.38-5.3-2.72-8.07-4,9.83-.69,20.12-1.1,30.57-1.1,82.57,0,131.76,25,146.11,74.2a21,21,0,0,0,40.24,0c14.45-49.24,63.59-74.2,146.17-74.2,10.44,0,20.73.41,30.54,1.1-2.75,1.3-5.42,2.64-8.1,4-.83.37-1.66.83-2.51,1.29-1.8.93-3.53,1.8-5.29,2.77-1,.56-2,1.06-3,1.61-1.52.84-3.09,1.72-4.61,2.59-1,.55-2,1.15-3,1.75-1.75,1-3.46,2-5.17,3.05-1.91,1.15-3.75,2.31-5.6,3.46-.76.51-1.57,1-2.33,1.48-1.54,1-3,1.94-4.52,2.9-.6.42-1.2.84-1.75,1.2-1.62,1.06-3.19,2.13-4.73,3.19ZM1077.92,917.88C1112,895,1150,882.3,1189.92,882.3s77.86,12.74,112,35.53l-23.07,16.43-88.89,63.36L1101,934.26l-23.08-16.38Zm25.45-35.67c0-.05-.09-.1-.09-.14l.14.14Zm-57,269.16,143.58-102.26,143.57,102.26-21.18,14.9-122.39,86.16-122.45-86.16Zm2.86,251.39,140.72-99.07,140.71,99.07-21.06,15.14-119.65,85.87-119.63-85.87Zm363.85-576c-38.79,19.29-59.81,40.28-70.86,55.28a.25.25,0,0,1-.09.14l-76.39-32.77c55.3-35.16,110.35-53,164-53a230.19,230.19,0,0,1,49.56,5.35c-3,.88-6,1.71-8.86,2.59l-2.63.83c-2,.6-4,1.25-6.07,1.89-.9.33-1.82.6-2.7.93-2,.69-4.1,1.38-6.09,2.07l-2,.7q-3.95,1.44-7.82,2.9a1.5,1.5,0,0,0-.47.19c-2.39.92-4.7,1.8-7,2.72-.6.28-1.2.5-1.8.78-1.89.74-3.76,1.57-5.54,2.31-.57.28-1.13.51-1.68.78-2.15.93-4.18,1.85-6.19,2.77-.18.1-.39.14-.52.23-2.36,1.11-4.6,2.17-6.83,3.28Zm-77.11,118.32c37.47,35.34,68.57,83.79,90.26,141l-9.56,6.74-46.81,32.9L1226,1023.36l109.9-78.25Zm104,182.68a536.33,536.33,0,0,1,12.55,56.8l-7-5L1406,1151.55l33.87-23.76Zm20,148.86q0,17.24-1,34.1l-92.17,66.12-119.1-83.79-21.27-15,143.32-100.87,89.06,63.36q1,15.43,1.08,31.1c0,1.65.07,3.32.07,5Zm-10.24,107.51a3.18,3.18,0,0,1-.12.6c-2.86,14.77-6.3,29.17-10.31,43.11L1403,1402.39l49.74-35.67c-1,5.86-2,11.68-3.14,17.44Zm-29.12,97.28c-21.34,51-50.36,94.59-84.72,126.94l-109.92-78.86L1367,1428.28l58.39,41.12c-1.5,4-3,7.79-4.68,11.67a1.77,1.77,0,0,1-.14.37Zm-336.53,158c-2-1.25-4-2.49-5.88-3.79l111.81-80.29,111.8,80.25c-1.91,1.34-3.9,2.58-5.88,3.78-1.34.88-2.75,1.71-4.11,2.5-.55.32-1.11.69-1.61,1-1.73,1-3.46,2-5.21,3a1.82,1.82,0,0,1-.47.22c-1.84,1-3.73,2-5.67,3l0,.09c-27.8,14.21-57.68,22-88.8,22-33.3,0-65.18-8.9-94.69-25h0c-1.92-1.06-3.74-2.08-5.59-3.14a15.15,15.15,0,0,0-1.31-.83c-1.46-.88-2.91-1.75-4.34-2.63ZM959.36,1481.53a5,5,0,0,1-.24-.51c-1.61-3.83-3.16-7.66-4.65-11.58l58.39-41.16,141.06,101.24-20.85,15-89,63.86c-34.35-32.3-63.37-75.81-84.69-126.85Zm-18.79-53.62a531.12,531.12,0,0,1-13.52-61.19l49.73,35.67-36.21,25.52Zm212.91-149.83-140.37,98.79-92.17-66.12q-1-16.89-1-34.1c0-1.8,0-3.6.07-5.35.09-10.34.41-20.59,1-30.73l89.05-63.36m-73.85-35.58c.09-.42.21-.78.3-1.15,1.11-4.29,2.19-8.54,3.37-12.69l33.82,23.76-16.72,12-22.68,16.11-7,5c2.42-14.44,5.31-28.52,8.77-42.27a5.73,5.73,0,0,0,.16-.69Zm17.37-55.51c21.64-57.17,52.77-105.67,90.26-141l109.89,78.25-21.06,15L1010,1125.81l-46.79-33-9.56-6.74Zm-53-284.25c.05,0,.05,0,.12,0h-.12A223.85,223.85,0,0,1,935,797c.51-.05,1.06-.09,1.6-.09a3.4,3.4,0,0,0,.71,0c4.1-.23,8.4-.37,12.76-.37h.16c53.69,0,108.76,17.81,164,53l-13.61,5.82s-.09,0-.09,0l-62.88,27c-16.07-21.92-53.55-56.76-137-80.34Zm0,0" transform="translate(-808.93 -437.99)"/></g></g></svg>