<svg xmlns="http://www.w3.org/2000/svg" xmlns:xlink="http://www.w3.org/1999/xlink" viewBox="0 0 69.55 69.56"><defs><style>.cls-1{fill:url(#linear-gradient);}</style><linearGradient id="linear-gradient" y1="34.78" x2="69.55" y2="34.78" gradientUnits="userSpaceOnUse"><stop offset="0" stop-color="#32113f"/><stop offset="1" stop-color="#56267d"/></linearGradient></defs><title>Ресурс 3</title><g id="Слой_2" data-name="Слой 2"><g id="преимущества_работы" data-name="преимущества работы"><g id="ответы"><path class="cls-1" d="M34.78,0A34.78,34.78,0,1,0,69.55,34.76,34.77,34.77,0,0,0,34.78,0Zm2.48,54.12a4.16,4.16,0,0,1-2.81,1.08,4.26,4.26,0,0,1-2.87-1.07,3.74,3.74,0,0,1-1.23-3,3.85,3.85,0,0,1,1.19-2.86,4,4,0,0,1,2.91-1.16,3.95,3.95,0,0,1,4,4,3.78,3.78,0,0,1-1.21,3Zm10.07-25a12.06,12.06,0,0,1-2.22,3q-1.28,1.26-4.59,4.22a20.2,20.2,0,0,0-1.47,1.47A6.14,6.14,0,0,0,38.23,39,5,5,0,0,0,37.81,40c-.1.34-.25,1-.44,1.84a3,3,0,0,1-3.21,2.8,3.28,3.28,0,0,1-2.36-.91,3.59,3.59,0,0,1-1-2.72,10.22,10.22,0,0,1,.7-3.93A9.92,9.92,0,0,1,33.4,34.2q1.17-1.26,3.13-3,1.72-1.51,2.49-2.28a7.43,7.43,0,0,0,1.3-1.71,4.14,4.14,0,0,0,.52-2.05,4.76,4.76,0,0,0-1.6-3.64,5.86,5.86,0,0,0-4.14-1.49,5.71,5.71,0,0,0-4.37,1.5A12.08,12.08,0,0,0,28.36,26q-.93,3-3.48,3.05a3.42,3.42,0,0,1-2.55-1.07,3.24,3.24,0,0,1-1-2.3,9.7,9.7,0,0,1,1.64-5.19,12.66,12.66,0,0,1,4.8-4.36,15.11,15.11,0,0,1,7.36-1.73A15.7,15.7,0,0,1,42,15.81a11.21,11.21,0,0,1,4.63,3.92,9.64,9.64,0,0,1,1.63,5.4,8.33,8.33,0,0,1-.93,4Z"/></g></g></g></svg>