<svg id="контакты" xmlns="http://www.w3.org/2000/svg" viewBox="0 0 51.85 51.85"><defs><style>.cls-1{fill:#fff;}</style></defs><title>vk</title><g id="вк"><path class="cls-1" d="M616.8,3492.74H578.68c-.21,0-.41-.11-.62-.15a8.07,8.07,0,0,1-4.92-3.35,9,9,0,0,1-1.33-3.37v-38.12c0-.15.08-.31.11-.46a8,8,0,0,1,3.36-5.06,9,9,0,0,1,3.4-1.35H616.8l.42.1a8.05,8.05,0,0,1,5.07,3.33,8.75,8.75,0,0,1,1.38,3.44v38.12c-.07.3-.14.61-.22.91a8,8,0,0,1-3.53,4.79A9.22,9.22,0,0,1,616.8,3492.74ZM611,3477.19v0c.78,0,1.57,0,2.36,0a2.92,2.92,0,0,0,1.45-.31.92.92,0,0,0,.5-1.18,3.35,3.35,0,0,0-.3-.67,12.68,12.68,0,0,0-1.89-2.43c-1-1-2-1.88-2.91-2.85a1.6,1.6,0,0,1-.23-2.38c.16-.25.33-.5.51-.74.74-1,1.49-1.92,2.21-2.9a19,19,0,0,0,2.43-3.94c.52-1.29.18-1.79-1.21-1.78h-5.58c-.85,0-1.09.17-1.41,1a29.47,29.47,0,0,1-2.74,5.29,9.91,9.91,0,0,1-2,2.37c-.6.48-1.08.35-1.39-.35a3.59,3.59,0,0,1-.28-1.55c0-1.46.08-2.91.13-4.37a9.3,9.3,0,0,0-.05-1.67c-.14-.89-.4-1.2-1.27-1.4a15.4,15.4,0,0,0-4-.22,9.8,9.8,0,0,0-2.22.24,2.25,2.25,0,0,0-1.2.69c-.21.25-.23.42.15.5a2,2,0,0,1,1.71,1.94,20.79,20.79,0,0,1,.11,4,6.94,6.94,0,0,1-.28,1.69c-.28.88-.87,1.06-1.6.49a5.56,5.56,0,0,1-1-1.11,31.56,31.56,0,0,1-3.54-6.41,1.51,1.51,0,0,0-1.69-1.15h-4.51c-1.31,0-1.59.45-1,1.66q.94,2.07,2,4.08a47.9,47.9,0,0,0,5.4,8.45,13.77,13.77,0,0,0,6.14,4.38,14.82,14.82,0,0,0,5,.62c1.46,0,1.85-.47,1.84-1.74a4.48,4.48,0,0,1,.51-2.2,1.13,1.13,0,0,1,1.79-.45,4.16,4.16,0,0,1,.81.7c.8.84,1.51,1.76,2.37,2.54a3.91,3.91,0,0,0,3,1.18C609.78,3477.16,610.4,3477.19,611,3477.19Z" transform="translate(-571.81 -3440.88)"/></g></svg>